<svg version="1.1" xmlns="http://www.w3.org/2000/svg" viewBox="0 0 1441.953125 728.2490234375" width="2883.90625" height="1456.498046875">
  <!-- svg-source:excalidraw -->
  
  <defs>
    <style class="style-fonts">
      @font-face {
        font-family: "Virgil";
        src: url("https://excalidraw.com/Virgil.woff2");
      }
      @font-face {
        font-family: "Cascadia";
        src: url("https://excalidraw.com/Cascadia.woff2");
      }
    </style>
  </defs>
  <g stroke-linecap="round" transform="translate(64.82421875 170.9140625) rotate(0 268.080078125 206.54296875)"><path d="M32 0 M32 0 C202.63 -0.3, 372.76 -0.34, 504.16 0 M504.16 0 C526.49 1.81, 536.39 12.05, 536.16 32 M536.16 32 C536.22 172.01, 537.52 309.37, 536.16 381.09 M536.16 381.09 C534.99 404.08, 524.98 414.59, 504.16 413.09 M504.16 413.09 C339.82 413.74, 176.21 413.67, 32 413.09 M32 413.09 C12.66 412.02, 1.16 402.52, 0 381.09 M0 381.09 C-0.97 281.04, -1.43 182.07, 0 32 M0 32 C0.54 12.42, 9.93 0.01, 32 0" stroke="#000000" stroke-width="1.5" fill="none" stroke-dasharray="8 9"></path></g><g transform="translate(520.6796875 548.01953125) rotate(0 33 11.5)"><text x="0" y="17" font-family="Virgil, HanziPen SC, Kai, Segoe UI Emoji" font-size="16px" fill="#000000" text-anchor="start" style="white-space: pre;" direction="ltr">本地IDC</text></g><g stroke-linecap="round" transform="translate(130.1953125 296.98828125) rotate(0 77.126953125 116.78125)"><path d="M32 0 M32 0 C56.61 -0.95, 83.73 2.52, 122.25 0 M122.25 0 C143.82 1.39, 156.22 10.78, 154.25 32 M154.25 32 C156.05 73.51, 153 118.38, 154.25 201.56 M154.25 201.56 C153.74 224.4, 144.55 232.57, 122.25 233.56 M122.25 233.56 C91.96 231.75, 60.17 231.98, 32 233.56 M32 233.56 C11.83 233.66, -0.32 224.27, 0 201.56 M0 201.56 C-0.56 152.23, -0.23 106.58, 0 32 M0 32 C-0.74 10.67, 8.91 0.81, 32 0" stroke="#5f3dc4" stroke-width="1.5" fill="none" stroke-dasharray="1.5 7"></path></g><g transform="translate(198.30078125 499.5234375) rotate(0 34 10)"><text x="0" y="14" font-family="Virgil, HanziPen SC, Kai, Segoe UI Emoji" font-size="16px" fill="#5f3dc4" text-anchor="start" style="white-space: pre;" direction="ltr">Service 1</text></g><g stroke-linecap="round" transform="translate(157.59765625 332.25) rotate(0 49.017578125 22.783203125)"><path d="M9.82 -0.76 L84.99 0.99 L95.4 1.84 L99.24 10.68 L98.15 33.17 L96.33 42.73 L95.47 43.11 L85.48 47.23 L10.88 47.07 L5.41 42.97 L1.28 36.9 L-0.96 10.47 L1.55 4.84 L10.32 1.16" stroke="none" stroke-width="0" fill="#228be6"></path><path d="M11.39 0 M11.39 0 C34.05 0.39, 55.99 -0.31, 86.64 0 M11.39 0 C29.99 -0.66, 48.45 -0.25, 86.64 0 M86.64 0 C94.42 -1.37, 99.09 4.79, 98.04 11.39 M86.64 0 C92.43 -2.15, 97.87 4.49, 98.04 11.39 M98.04 11.39 C97.27 19.16, 98.69 23.29, 98.04 34.17 M98.04 11.39 C98.88 20.12, 98.5 28.34, 98.04 34.17 M98.04 34.17 C99.57 42.83, 95.56 45.99, 86.64 45.57 M98.04 34.17 C98.73 39.48, 96.05 44.64, 86.64 45.57 M86.64 45.57 C59.32 44.8, 35.97 45.68, 11.39 45.57 M86.64 45.57 C67.21 46.97, 46.02 46.37, 11.39 45.57 M11.39 45.57 C5.66 45.32, -1.61 40.12, 0 34.17 M11.39 45.57 C5.09 46.41, 0.29 41.45, 0 34.17 M0 34.17 C0.65 25.88, -0.58 18.75, 0 11.39 M0 34.17 C0.58 27.21, -0.64 21.66, 0 11.39 M0 11.39 C0.05 2.07, 3.35 -0.12, 11.39 0 M0 11.39 C-1.38 3.59, 5.36 -1.2, 11.39 0" stroke="#1864ab" stroke-width="1" fill="none"></path></g><g transform="translate(191.115234375 345.033203125) rotate(0 15.5 10)"><text x="15.5" y="14" font-family="Virgil, HanziPen SC, Kai, Segoe UI Emoji" font-size="16px" fill="#fff" text-anchor="middle" style="white-space: pre;" direction="ltr">Pod</text></g><g stroke-linecap="round" transform="translate(160.302734375 421.533203125) rotate(0 49.017578125 22.783203125)"><path d="M9.73 0.99 L88.45 0.23 L94.97 3.56 L97.97 7.72 L97.93 35.79 L98.32 40.27 L92.42 45.62 L86.13 47.07 L12.35 44.57 L5.55 44.02 L-0.96 38.59 L-1.12 10.71 L1.78 4.01 L11.49 -0.32" stroke="none" stroke-width="0" fill="#228be6"></path><path d="M11.39 0 M11.39 0 C37.82 -0.13, 65.92 0.2, 86.64 0 M11.39 0 C39.68 0.4, 69.83 -0.69, 86.64 0 M86.64 0 C95.3 0.99, 96.46 1.93, 98.04 11.39 M86.64 0 C94.07 0.69, 97.19 4.84, 98.04 11.39 M98.04 11.39 C98.49 19.63, 99.21 26.89, 98.04 34.17 M98.04 11.39 C98.85 20.7, 99.02 29.79, 98.04 34.17 M98.04 34.17 C99.36 42.19, 94.84 43.58, 86.64 45.57 M98.04 34.17 C99.85 40.85, 95.27 46.93, 86.64 45.57 M86.64 45.57 C72.44 46.38, 55.21 44.67, 11.39 45.57 M86.64 45.57 C56.83 46.19, 28.34 45.97, 11.39 45.57 M11.39 45.57 C2.18 43.92, 1.13 42.51, 0 34.17 M11.39 45.57 C4.09 45.24, 0.64 43.85, 0 34.17 M0 34.17 C-0.47 24.78, -0.6 18.18, 0 11.39 M0 34.17 C-0.62 29.6, -0.15 24.13, 0 11.39 M0 11.39 C-0.45 3.68, 2.6 -0.18, 11.39 0 M0 11.39 C1.56 2.59, 5.53 2.01, 11.39 0" stroke="#1864ab" stroke-width="1" fill="none"></path></g><g transform="translate(193.8203125 434.31640625) rotate(0 15.5 10)"><text x="15.5" y="14" font-family="Virgil, HanziPen SC, Kai, Segoe UI Emoji" font-size="16px" fill="#fff" text-anchor="middle" style="white-space: pre;" direction="ltr">Pod</text></g><g transform="translate(196.5078125 389.5546875) rotate(0 12 10)"><text x="0" y="14" font-family="Virgil, HanziPen SC, Kai, Segoe UI Emoji" font-size="16px" fill="#000000" text-anchor="start" style="white-space: pre;" direction="ltr">……</text></g><g stroke-linecap="round" transform="translate(342.462890625 296.7109375) rotate(0 77.126953125 116.78125)"><path d="M32 0 M32 0 C60.25 -1.89, 88.17 0.73, 122.25 0 M122.25 0 C145.47 -0.85, 153.09 12.33, 154.25 32 M154.25 32 C154.54 79.64, 155.59 123.95, 154.25 201.56 M154.25 201.56 C156 221.6, 145.58 232.5, 122.25 233.56 M122.25 233.56 C91.32 233.12, 58.55 232.11, 32 233.56 M32 233.56 C10.87 232.6, 0.54 224.65, 0 201.56 M0 201.56 C0.81 157.13, -1.37 113.38, 0 32 M0 32 C0.99 9.1, 8.8 -0.14, 32 0" stroke="#5f3dc4" stroke-width="1.5" fill="none" stroke-dasharray="1.5 7"></path></g><g transform="translate(410.568359375 499.24609375) rotate(0 37.5 10)"><text x="0" y="14" font-family="Virgil, HanziPen SC, Kai, Segoe UI Emoji" font-size="16px" fill="#5f3dc4" text-anchor="start" style="white-space: pre;" direction="ltr">Service 2</text></g><g stroke-linecap="round" transform="translate(369.865234375 331.97265625) rotate(0 49.017578125 22.783203125)"><path d="M13.35 0.11 L85.64 -0.1 L95.2 3.49 L97.01 7.56 L99.69 33.66 L97.94 42.08 L92.59 45.06 L86.7 44.43 L13.14 44.27 L6.44 42.9 L1.34 36.95 L-0.14 10.1 L2.55 3.75 L10.08 0.21" stroke="none" stroke-width="0" fill="#228be6"></path><path d="M11.39 0 M11.39 0 C29.62 -0.65, 47.57 0.15, 86.64 0 M11.39 0 C35.16 -1.18, 57 -0.47, 86.64 0 M86.64 0 C94.84 -0.74, 98.94 5.11, 98.04 11.39 M86.64 0 C93.24 2.04, 98.67 3.69, 98.04 11.39 M98.04 11.39 C99.85 20.57, 99.09 28.71, 98.04 34.17 M98.04 11.39 C98.37 20.28, 97.16 29.35, 98.04 34.17 M98.04 34.17 C97.23 42.66, 95.42 43.66, 86.64 45.57 M98.04 34.17 C96.44 41.71, 95.62 46.53, 86.64 45.57 M86.64 45.57 C67.99 47.66, 45.83 46.47, 11.39 45.57 M86.64 45.57 C56.24 45.52, 27.85 45.09, 11.39 45.57 M11.39 45.57 C3.52 46.12, 1.81 43.59, 0 34.17 M11.39 45.57 C4.78 44.62, -0.43 41.21, 0 34.17 M0 34.17 C1.37 26.51, -1.08 21.68, 0 11.39 M0 34.17 C0.14 26.68, 0.11 21.07, 0 11.39 M0 11.39 C-1.05 5.3, 5.54 0.64, 11.39 0 M0 11.39 C2.12 3.39, 3.49 -0.83, 11.39 0" stroke="#1864ab" stroke-width="1" fill="none"></path></g><g transform="translate(403.3828125 344.755859375) rotate(0 15.5 10)"><text x="15.5" y="14" font-family="Virgil, HanziPen SC, Kai, Segoe UI Emoji" font-size="16px" fill="#fff" text-anchor="middle" style="white-space: pre;" direction="ltr">Pod</text></g><g stroke-linecap="round" transform="translate(372.5703125 421.255859375) rotate(0 49.017578125 22.783203125)"><path d="M10.39 -0.1 L88.25 1.89 L92.74 0.44 L99.52 8.21 L99.54 35.14 L95.44 42.22 L93.64 42.83 L88.39 44.27 L13.38 44.5 L5.61 44.07 L-0.14 38.22 L-0.12 9.63 L1.54 3.06 L10.43 0.54" stroke="none" stroke-width="0" fill="#228be6"></path><path d="M11.39 0 M11.39 0 C38.8 0.81, 69.92 -1.37, 86.64 0 M11.39 0 C37.01 0.52, 64.81 0.22, 86.64 0 M86.64 0 C95.15 1.31, 97.17 5.57, 98.04 11.39 M86.64 0 C94.87 -0.11, 99.5 2.47, 98.04 11.39 M98.04 11.39 C99.44 21.08, 99.79 30.32, 98.04 34.17 M98.04 11.39 C97.09 20.52, 97.68 28.52, 98.04 34.17 M98.04 34.17 C99.22 39.86, 92.85 45.51, 86.64 45.57 M98.04 34.17 C99.41 42.73, 93.52 44.56, 86.64 45.57 M86.64 45.57 C56.64 46.28, 29.27 45.84, 11.39 45.57 M86.64 45.57 C70.5 46.12, 53.49 46.27, 11.39 45.57 M11.39 45.57 C5.61 47.39, 0.85 40.95, 0 34.17 M11.39 45.57 C3.37 45.01, -0.57 43.86, 0 34.17 M0 34.17 C-1.05 29.63, -0.13 23.26, 0 11.39 M0 34.17 C-0.08 28.53, -0.51 22.29, 0 11.39 M0 11.39 C1.74 4.44, 5.64 -0.35, 11.39 0 M0 11.39 C-0.31 2.97, 4.18 0.61, 11.39 0" stroke="#1864ab" stroke-width="1" fill="none"></path></g><g transform="translate(406.087890625 434.0390625) rotate(0 15.5 10)"><text x="15.5" y="14" font-family="Virgil, HanziPen SC, Kai, Segoe UI Emoji" font-size="16px" fill="#fff" text-anchor="middle" style="white-space: pre;" direction="ltr">Pod</text></g><g transform="translate(408.775390625 389.27734375) rotate(0 12 10)"><text x="0" y="14" font-family="Virgil, HanziPen SC, Kai, Segoe UI Emoji" font-size="16px" fill="#000000" text-anchor="start" style="white-space: pre;" direction="ltr">……</text></g><g stroke-linecap="round" transform="translate(587.3720703125 42.5673828125) rotate(0 137 25)"><path d="M14.16 -0.51 L265.93 1.16 L269.88 4.22 L273.28 5.9 L275.55 39.13 L272.87 45.81 L262.66 50.1 L9.25 51.18 L4.59 49.15 L-0.53 43.18 L-0.96 13.04 L4.88 2.39 L12.51 -1.76" stroke="none" stroke-width="0" fill="#15aabf"></path><path d="M12.5 0 M12.5 0 C98.21 2.21, 180.9 -0.14, 261.5 0 M12.5 0 C85.79 1.29, 157.99 1.47, 261.5 0 M261.5 0 C270.39 -0.09, 275.27 3.01, 274 12.5 M261.5 0 C271.96 2.24, 275.03 5.53, 274 12.5 M274 12.5 C275.51 21.36, 274.8 27.38, 274 37.5 M274 12.5 C274.49 21.02, 273.2 31.41, 274 37.5 M274 37.5 C275.2 46.67, 269.21 49.13, 261.5 50 M274 37.5 C276.15 47.63, 271.43 49.55, 261.5 50 M261.5 50 C183.06 48.4, 108.18 50.35, 12.5 50 M261.5 50 C184.4 51.31, 106.16 50.23, 12.5 50 M12.5 50 C3.8 49.52, -0.5 47.65, 0 37.5 M12.5 50 C1.9 51.81, -1.61 44.83, 0 37.5 M0 37.5 C-0.46 29.83, -1.2 22.21, 0 12.5 M0 37.5 C1 28.62, 1.05 18.93, 0 12.5 M0 12.5 C-0.27 3.45, 4.5 0.53, 12.5 0 M0 12.5 C-1.54 5.31, 5.77 -0.85, 12.5 0" stroke="#0b7285" stroke-width="1" fill="none"></path></g><g transform="translate(699.8720703125 57.5673828125) rotate(0 24.5 10)"><text x="24.5" y="14" font-family="Virgil, HanziPen SC, Kai, Segoe UI Emoji" font-size="16px" fill="#fff" text-anchor="middle" style="white-space: pre;" direction="ltr">Nacos</text></g><g stroke-linecap="round"><g transform="translate(432.318359375 278.7487619688561) rotate(0 105.45188014755888 -86.16644477736736)"><path d="M0.66 0.03 C35.4 -28.33, 174.29 -142.35, 209 -170.8 M-0.45 -0.99 C34.63 -29.62, 176.05 -143.81, 211.36 -172.37" stroke="#e67700" stroke-width="1" fill="none"></path></g><g transform="translate(432.318359375 278.7487619688561) rotate(0 105.45188014755888 -86.16644477736736)"><path d="M195.94 -147.8 C203.14 -157, 208.78 -165.71, 212.51 -172.27 M196.33 -147.32 C200.21 -154.43, 204.77 -160.37, 210.99 -172.36" stroke="#e67700" stroke-width="1" fill="none"></path></g><g transform="translate(432.318359375 278.7487619688561) rotate(0 105.45188014755888 -86.16644477736736)"><path d="M183.04 -163.76 C194.66 -167.47, 204.78 -170.63, 212.51 -172.27 M183.43 -163.28 C191.08 -165.83, 199.31 -167.24, 210.99 -172.36" stroke="#e67700" stroke-width="1" fill="none"></path></g></g><mask></mask><g transform="translate(372.42578125 539.48046875) rotate(0 47 20)"><text x="0" y="14" font-family="Virgil, HanziPen SC, Kai, Segoe UI Emoji" font-size="16px" fill="#5f3dc4" text-anchor="start" style="white-space: pre;" direction="ltr">Spring Cloud</text><text x="0" y="34" font-family="Virgil, HanziPen SC, Kai, Segoe UI Emoji" font-size="16px" fill="#5f3dc4" text-anchor="start" style="white-space: pre;" direction="ltr">Dubbo/……</text></g><g transform="translate(380.703125 201.91490308544303) rotate(0 59.5 16.5)"><text x="0" y="12.5" font-family="Virgil, HanziPen SC, Kai, Segoe UI Emoji" font-size="11.473101265822798px" fill="#e67700" text-anchor="start" style="white-space: pre;" direction="ltr">通过应用框架或客户端</text><text x="0" y="29" font-family="Virgil, HanziPen SC, Kai, Segoe UI Emoji" font-size="11.473101265822798px" fill="#e67700" text-anchor="start" style="white-space: pre;" direction="ltr">直接注册到Nacos中</text></g><g stroke-linecap="round" transform="translate(806.107421875 169.9853515625) rotate(0 268.080078125 206.54296875)"><path d="M32 0 M32 0 C220.75 -1.36, 410.02 -1.35, 504.16 0 M504.16 0 C526.4 -1.31, 536.37 9.71, 536.16 32 M536.16 32 C538.16 144.96, 538.68 260.34, 536.16 381.09 M536.16 381.09 C534.79 403.48, 526.49 411.52, 504.16 413.09 M504.16 413.09 C406.3 414.12, 309.68 413.33, 32 413.09 M32 413.09 C12.44 413.64, -0.09 403.69, 0 381.09 M0 381.09 C-1.51 297.33, -1.61 213.02, 0 32 M0 32 C1.06 11.99, 11.09 0.61, 32 0" stroke="#000000" stroke-width="1.5" fill="none" stroke-dasharray="8 9"></path></g><g transform="translate(827.560546875 545.7392578125) rotate(0 50 11.5)"><text x="0" y="17" font-family="Virgil, HanziPen SC, Kai, Segoe UI Emoji" font-size="16px" fill="#000000" text-anchor="start" style="white-space: pre;" direction="ltr">云上K8S集群</text></g><g stroke-linecap="round" transform="translate(964.939453125 291.9384765625) rotate(0 77.126953125 116.78125)"><path d="M32 0 M32 0 C65.68 -0.15, 97.51 -1.17, 122.25 0 M122.25 0 C143.79 -0.96, 154.79 12.42, 154.25 32 M154.25 32 C155.07 76.81, 152.89 122.3, 154.25 201.56 M154.25 201.56 C155.25 221.32, 141.72 233.42, 122.25 233.56 M122.25 233.56 C93.78 233.1, 64.45 234.53, 32 233.56 M32 233.56 C10.57 234.84, -1.16 224.74, 0 201.56 M0 201.56 C-0.01 135.75, 0.3 68.18, 0 32 M0 32 C0.42 11.27, 8.68 1.57, 32 0" stroke="#5f3dc4" stroke-width="1.5" fill="none" stroke-dasharray="1.5 7"></path></g><g transform="translate(1033.044921875 494.4736328125) rotate(0 37.5 10)"><text x="0" y="14" font-family="Virgil, HanziPen SC, Kai, Segoe UI Emoji" font-size="16px" fill="#5f3dc4" text-anchor="start" style="white-space: pre;" direction="ltr">Service 3</text></g><g stroke-linecap="round" transform="translate(992.341796875 327.2001953125) rotate(0 49.017578125 22.783203125)"><path d="M11.07 1.37 L86.35 0.9 L92.27 1.81 L96.9 9.26 L99.79 33.44 L96.44 39.36 L94.4 44.15 L85.28 46.62 L12.39 44 L2.58 43.82 L0.78 36.11 L1.09 10.03 L1.98 4.62 L11.94 -0.09" stroke="none" stroke-width="0" fill="#228be6"></path><path d="M11.39 0 M11.39 0 C40.7 0.2, 67.31 0.06, 86.64 0 M11.39 0 C39.96 -0.19, 67.1 0.29, 86.64 0 M86.64 0 C93.44 0.89, 99.22 1.89, 98.04 11.39 M86.64 0 C92.64 -0.06, 99.41 4.76, 98.04 11.39 M98.04 11.39 C99.5 18.9, 97.55 23.83, 98.04 34.17 M98.04 11.39 C97.18 20.91, 98.38 29.43, 98.04 34.17 M98.04 34.17 C97.75 42.33, 96.05 47.39, 86.64 45.57 M98.04 34.17 C99.02 40.83, 93.81 45.01, 86.64 45.57 M86.64 45.57 C67.52 43.42, 44.36 44.87, 11.39 45.57 M86.64 45.57 C63.82 44.8, 41.02 46.08, 11.39 45.57 M11.39 45.57 C2.75 47.07, 1.74 42.41, 0 34.17 M11.39 45.57 C5.92 45.16, -0.31 40.94, 0 34.17 M0 34.17 C0.93 28.35, -0.8 20.31, 0 11.39 M0 34.17 C0.46 28.9, -0.4 23.02, 0 11.39 M0 11.39 C-0.43 4.58, 5.23 -1.13, 11.39 0 M0 11.39 C-1.5 3.88, 1.68 0.44, 11.39 0" stroke="#1864ab" stroke-width="1" fill="none"></path></g><g transform="translate(1025.859375 339.9833984375) rotate(0 15.5 10)"><text x="15.5" y="14" font-family="Virgil, HanziPen SC, Kai, Segoe UI Emoji" font-size="16px" fill="#fff" text-anchor="middle" style="white-space: pre;" direction="ltr">Pod</text></g><g stroke-linecap="round" transform="translate(995.046875 416.4833984375) rotate(0 49.017578125 22.783203125)"><path d="M11.1 0.9 L85.33 0.21 L92.63 2.14 L99.61 7.98 L98.04 32.41 L97.25 41.3 L92.22 45.02 L87.64 44 L9.52 45.42 L5.05 43.23 L1.09 38.16 L-0.69 10.49 L3.4 2.75 L12.66 -1.16" stroke="none" stroke-width="0" fill="#228be6"></path><path d="M11.39 0 M11.39 0 C42.1 0.41, 71.96 0.72, 86.64 0 M11.39 0 C37.94 0.56, 66.08 0.22, 86.64 0 M86.64 0 C95.42 -1.91, 96.64 3.74, 98.04 11.39 M86.64 0 C95.62 0.96, 97.31 2.79, 98.04 11.39 M98.04 11.39 C97.83 20.55, 100.08 29.08, 98.04 34.17 M98.04 11.39 C98.22 16.52, 97.71 21.67, 98.04 34.17 M98.04 34.17 C99.85 43.59, 95.09 44.75, 86.64 45.57 M98.04 34.17 C97.61 41.21, 93.67 47.66, 86.64 45.57 M86.64 45.57 C70.6 45.08, 56.36 43.31, 11.39 45.57 M86.64 45.57 C65.68 45.8, 44.37 45.87, 11.39 45.57 M11.39 45.57 C5.54 46.2, 1.84 41.42, 0 34.17 M11.39 45.57 C3.49 44.74, 0.39 42.38, 0 34.17 M0 34.17 C-0.85 29.44, -0.83 22.74, 0 11.39 M0 34.17 C-0.58 29.64, -0.3 23.7, 0 11.39 M0 11.39 C1.43 2.67, 2.5 0.07, 11.39 0 M0 11.39 C-2.12 4.23, 4.87 0.17, 11.39 0" stroke="#1864ab" stroke-width="1" fill="none"></path></g><g transform="translate(1028.564453125 429.2666015625) rotate(0 15.5 10)"><text x="15.5" y="14" font-family="Virgil, HanziPen SC, Kai, Segoe UI Emoji" font-size="16px" fill="#fff" text-anchor="middle" style="white-space: pre;" direction="ltr">Pod</text></g><g transform="translate(1031.251953125 384.5048828125) rotate(0 12 10)"><text x="0" y="14" font-family="Virgil, HanziPen SC, Kai, Segoe UI Emoji" font-size="16px" fill="#000000" text-anchor="start" style="white-space: pre;" direction="ltr">……</text></g><g stroke-linecap="round" transform="translate(1177.4453125 291.6572265625) rotate(0 77.126953125 116.78125)"><path d="M32 0 M32 0 C61.76 -0.98, 88.03 -2, 122.25 0 M122.25 0 C144.4 0.19, 152.89 11.72, 154.25 32 M154.25 32 C152.78 91.9, 152.19 151.5, 154.25 201.56 M154.25 201.56 C155.56 222.03, 145.36 234.12, 122.25 233.56 M122.25 233.56 C97.44 234.98, 69.84 234.23, 32 233.56 M32 233.56 C11.42 235.1, 1.06 224.22, 0 201.56 M0 201.56 C1.06 146.33, 0.38 93.88, 0 32 M0 32 C-1.91 9.28, 10.61 1.2, 32 0" stroke="#5f3dc4" stroke-width="1.5" fill="none" stroke-dasharray="1.5 7"></path></g><g transform="translate(1245.55078125 494.1923828125) rotate(0 37 10)"><text x="0" y="14" font-family="Virgil, HanziPen SC, Kai, Segoe UI Emoji" font-size="16px" fill="#5f3dc4" text-anchor="start" style="white-space: pre;" direction="ltr">Service 4</text></g><g stroke-linecap="round" transform="translate(1204.84765625 326.9189453125) rotate(0 49.017578125 22.783203125)"><path d="M11.93 1.75 L85.91 0.01 L91.82 2.42 L98.04 7.35 L99.09 35.17 L94.86 39.25 L93.44 44.57 L85.91 46.47 L12.7 44.7 L6.22 44.52 L0.08 38.12 L-0.98 10.57 L4.79 3.74 L12.58 0.75" stroke="none" stroke-width="0" fill="#228be6"></path><path d="M11.39 0 M11.39 0 C40.17 0.11, 66.11 1.08, 86.64 0 M11.39 0 C29.99 -1.14, 50.47 0.16, 86.64 0 M86.64 0 C95.07 -0.63, 97.16 5.67, 98.04 11.39 M86.64 0 C96.04 1.6, 97.59 4.02, 98.04 11.39 M98.04 11.39 C96.36 21.47, 98.74 29.56, 98.04 34.17 M98.04 11.39 C99.01 18.33, 97.69 24.24, 98.04 34.17 M98.04 34.17 C97.55 41.27, 96.06 43.6, 86.64 45.57 M98.04 34.17 C99.85 40.16, 93.23 45.62, 86.64 45.57 M86.64 45.57 C63.76 44.2, 40.93 46.76, 11.39 45.57 M86.64 45.57 C68.33 47.14, 49.2 46.09, 11.39 45.57 M11.39 45.57 C3.08 45.9, 0.53 40.43, 0 34.17 M11.39 45.57 C4.94 47.17, -0.85 42.43, 0 34.17 M0 34.17 C0.83 29.65, -0.9 23.92, 0 11.39 M0 34.17 C-0.65 27.18, -0.05 20.57, 0 11.39 M0 11.39 C0.38 4.73, 3.95 0.1, 11.39 0 M0 11.39 C0.56 1.82, 3.34 1.53, 11.39 0" stroke="#1864ab" stroke-width="1" fill="none"></path></g><g transform="translate(1238.365234375 339.7021484375) rotate(0 15.5 10)"><text x="15.5" y="14" font-family="Virgil, HanziPen SC, Kai, Segoe UI Emoji" font-size="16px" fill="#fff" text-anchor="middle" style="white-space: pre;" direction="ltr">Pod</text></g><g stroke-linecap="round" transform="translate(1207.552734375 416.2021484375) rotate(0 49.017578125 22.783203125)"><path d="M10.65 0.01 L84.88 0.81 L93.77 0.23 L98.92 9.72 L96.46 32.31 L96.29 41.72 L92.85 44.87 L87.95 44.7 L13.16 46.12 L4.36 45.24 L-0.98 38.69 L2.12 9.62 L4.03 3.6 L12.93 1.06" stroke="none" stroke-width="0" fill="#228be6"></path><path d="M11.39 0 M11.39 0 C36.94 1.35, 65.67 0.67, 86.64 0 M11.39 0 C38.39 1.12, 65.85 0.21, 86.64 0 M86.64 0 C93.37 1.87, 99.6 5.19, 98.04 11.39 M86.64 0 C93.79 0.22, 100.18 3.51, 98.04 11.39 M98.04 11.39 C98.59 16.64, 97.57 21.95, 98.04 34.17 M98.04 11.39 C97.83 20.11, 98 28.94, 98.04 34.17 M98.04 34.17 C99.86 39.8, 95.81 44.17, 86.64 45.57 M98.04 34.17 C97.03 41.82, 94.3 43.57, 86.64 45.57 M86.64 45.57 C65.59 46.47, 43.85 46.62, 11.39 45.57 M86.64 45.57 C57.33 46.13, 28.01 46.43, 11.39 45.57 M11.39 45.57 C4.32 44.22, 0.99 43.16, 0 34.17 M11.39 45.57 C2.94 46.23, -0.82 40.82, 0 34.17 M0 34.17 C-1.08 30.53, -0.52 24.09, 0 11.39 M0 34.17 C0.16 24.79, 0.32 17.71, 0 11.39 M0 11.39 C0.15 3.89, 4.29 -1.72, 11.39 0 M0 11.39 C-0.46 5.33, 5.16 -0.1, 11.39 0" stroke="#1864ab" stroke-width="1" fill="none"></path></g><g transform="translate(1241.0703125 428.9853515625) rotate(0 15.5 10)"><text x="15.5" y="14" font-family="Virgil, HanziPen SC, Kai, Segoe UI Emoji" font-size="16px" fill="#fff" text-anchor="middle" style="white-space: pre;" direction="ltr">Pod</text></g><g transform="translate(1243.7578125 384.2236328125) rotate(0 12 10)"><text x="0" y="14" font-family="Virgil, HanziPen SC, Kai, Segoe UI Emoji" font-size="16px" fill="#000000" text-anchor="start" style="white-space: pre;" direction="ltr">……</text></g><g stroke-linecap="round" transform="translate(853.919921875 197.1533203125) rotate(0 61.923828125 36.345703125)"><path d="M18.99 0.19 L104.31 1.06 L117.74 0.98 L119.42 6.96 L124.16 13.18 L124.76 55.83 L120.42 67.36 L117.3 70.04 L106.95 71.53 L20.02 74.64 L7.99 71.32 L3.31 67.13 L1.34 60.1 L0.7 14.52 L2.55 6.12 L9.42 2.03 L19.35 -1.91" stroke="none" stroke-width="0" fill="#82c91e"></path><path d="M18.17 0 M18.17 0 C39.17 -1.15, 57.63 1.35, 105.67 0 M18.17 0 C51.36 1.1, 84.23 -0.64, 105.67 0 M105.67 0 C116.14 1.13, 124.59 6.31, 123.85 18.17 M105.67 0 C117.47 0.64, 125.93 8.15, 123.85 18.17 M123.85 18.17 C123.21 30.13, 125.52 41.11, 123.85 54.52 M123.85 18.17 C123.61 31.97, 122.73 45.48, 123.85 54.52 M123.85 54.52 C123.73 65.44, 117.61 74.05, 105.67 72.69 M123.85 54.52 C122.64 68.36, 119.8 73.43, 105.67 72.69 M105.67 72.69 C70.63 72.91, 37.56 71.23, 18.17 72.69 M105.67 72.69 C75.38 72.01, 44.1 71.75, 18.17 72.69 M18.17 72.69 C6.79 74.19, -0.99 68.42, 0 54.52 M18.17 72.69 C5.56 73.59, 1.65 65.33, 0 54.52 M0 54.52 C0.37 46.92, 0.14 37.54, 0 18.17 M0 54.52 C0.98 43.32, 0.27 30.34, 0 18.17 M0 18.17 C-0.86 6.33, 6.26 -0.02, 18.17 0 M0 18.17 C2.29 5.31, 4.58 -0.99, 18.17 0" stroke="#5c940d" stroke-width="1" fill="none"></path></g><g transform="translate(877.34375 213.4990234375) rotate(0 38.5 20)"><text x="38.5" y="14" font-family="Virgil, HanziPen SC, Kai, Segoe UI Emoji" font-size="16px" fill="#fff" text-anchor="middle" style="white-space: pre;" direction="ltr">Nacos</text><text x="38.5" y="34" font-family="Virgil, HanziPen SC, Kai, Segoe UI Emoji" font-size="16px" fill="#fff" text-anchor="middle" style="white-space: pre;" direction="ltr">Controller</text></g><g transform="translate(1207.169921875 534.1650390625) rotate(0 47 20)"><text x="0" y="14" font-family="Virgil, HanziPen SC, Kai, Segoe UI Emoji" font-size="16px" fill="#5f3dc4" text-anchor="start" style="white-space: pre;" direction="ltr">Spring Cloud</text><text x="0" y="34" font-family="Virgil, HanziPen SC, Kai, Segoe UI Emoji" font-size="16px" fill="#5f3dc4" text-anchor="start" style="white-space: pre;" direction="ltr">Dubbo/……</text></g><g stroke-linecap="round"><g transform="translate(866.7840809149534 100.2504422270373) rotate(0 176.04304822962195 89.28794237795691)"><path d="M-0.09 0.36 C59.02 30.39, 294.51 149.46, 353.68 179.07 M-1.59 -0.5 C57.4 29.28, 293.14 147.31, 352.5 177.24" stroke="#e67700" stroke-width="1" fill="none"></path></g><g transform="translate(866.7840809149534 100.2504422270373) rotate(0 176.04304822962195 89.28794237795691)"><path d="M30.3 3.19 C24.05 4.43, 15.67 4.1, 0.47 0.27 M30.67 4.38 C19.48 3.28, 8.82 2.14, 0.57 0.57" stroke="#e67700" stroke-width="1" fill="none"></path></g><g transform="translate(866.7840809149534 100.2504422270373) rotate(0 176.04304822962195 89.28794237795691)"><path d="M21.04 21.5 C17.01 18.69, 10.69 14.31, 0.47 0.27 M21.41 22.69 C13.7 14.85, 6.41 7.04, 0.57 0.57" stroke="#e67700" stroke-width="1" fill="none"></path></g><g transform="translate(866.7840809149534 100.2504422270373) rotate(0 176.04304822962195 89.28794237795691)"><path d="M323.3 173.02 C330.17 175.86, 335 177.09, 353.05 177.14 M323.67 174.2 C334.11 175.12, 345.12 176.54, 353.16 177.45" stroke="#e67700" stroke-width="1" fill="none"></path></g><g transform="translate(866.7840809149534 100.2504422270373) rotate(0 176.04304822962195 89.28794237795691)"><path d="M332.51 154.68 C337.17 161.57, 339.96 166.86, 353.05 177.14 M332.88 155.86 C339.86 163.53, 347.52 171.62, 353.16 177.45" stroke="#e67700" stroke-width="1" fill="none"></path></g></g><mask></mask><g stroke-linecap="round"><g transform="translate(777.6468644227621 105.75744011738846) rotate(0 32.50887807298716 47.42882291753739)"><path d="M0.36 -0.44 C11.54 15.67, 55.18 80.36, 65.93 96.58 M-0.91 -1.72 C10.25 14.06, 54.48 78.74, 65.27 94.87" stroke="#e67700" stroke-width="1" fill="none"></path></g><g transform="translate(777.6468644227621 105.75744011738846) rotate(0 32.50887807298716 47.42882291753739)"><path d="M23.94 18.04 C20.97 12.71, 16.41 10.5, 0.27 0.83 M25.12 17.73 C19 13.88, 13.26 9.52, 0.57 -0.14" stroke="#e67700" stroke-width="1" fill="none"></path></g><g transform="translate(777.6468644227621 105.75744011738846) rotate(0 32.50887807298716 47.42882291753739)"><path d="M6.95 29.56 C7.5 21.8, 6.45 17.21, 0.27 0.83 M8.13 29.24 C6.02 22.45, 4.4 15.29, 0.57 -0.14" stroke="#e67700" stroke-width="1" fill="none"></path></g><g transform="translate(777.6468644227621 105.75744011738846) rotate(0 32.50887807298716 47.42882291753739)"><path d="M40.22 78.2 C47.27 79.98, 52.76 85.03, 65.17 96.14 M41.4 77.88 C47.38 82.08, 53.42 86.23, 65.48 95.17" stroke="#e67700" stroke-width="1" fill="none"></path></g><g transform="translate(777.6468644227621 105.75744011738846) rotate(0 32.50887807298716 47.42882291753739)"><path d="M57.2 66.68 C60.74 70.89, 62.72 78.33, 65.17 96.14 M58.39 66.37 C60.36 73.52, 62.29 80.45, 65.48 95.17" stroke="#e67700" stroke-width="1" fill="none"></path></g></g><mask></mask><g stroke-linecap="round"><g transform="translate(893.9234671048821 281.24288086013394) rotate(0 27.86581099554894 28.78205644444563)"><path d="M-0.44 0.54 C8.93 9.9, 46.69 47.04, 56.17 56.51 M1.53 -0.21 C10.82 9.27, 46.52 47.93, 55.64 57.78" stroke="#e67700" stroke-width="1" fill="none"></path></g><g transform="translate(893.9234671048821 281.24288086013394) rotate(0 27.86581099554894 28.78205644444563)"><path d="M27.73 14.37 C17.93 11.06, 11.37 5.54, 0.83 -0.61 M27.42 13.43 C16.78 8.8, 5.97 3.57, -0.14 -0.45" stroke="#e67700" stroke-width="1" fill="none"></path></g><g transform="translate(893.9234671048821 281.24288086013394) rotate(0 27.86581099554894 28.78205644444563)"><path d="M13.31 28.97 C7.69 21.44, 5.35 11.64, 0.83 -0.61 M12.99 28.03 C7.87 17.61, 2.72 6.65, -0.14 -0.45" stroke="#e67700" stroke-width="1" fill="none"></path></g><g transform="translate(893.9234671048821 281.24288086013394) rotate(0 27.86581099554894 28.78205644444563)"><path d="M29.87 45.37 C35.95 49.95, 45.18 52.1, 56.91 56.62 M29.55 44.43 C40.33 49.85, 50.68 54.91, 55.94 56.78" stroke="#e67700" stroke-width="1" fill="none"></path></g><g transform="translate(893.9234671048821 281.24288086013394) rotate(0 27.86581099554894 28.78205644444563)"><path d="M44.93 31.43 C46.64 40.03, 51.46 46.27, 56.91 56.62 M44.61 30.49 C49.61 41.45, 54.06 51.98, 55.94 56.78" stroke="#e67700" stroke-width="1" fill="none"></path></g></g><mask></mask><g transform="translate(1140.3828125 200.9802959070796) rotate(0 75 17.5)"><text x="0" y="13.5" font-family="Virgil, HanziPen SC, Kai, Segoe UI Emoji" font-size="12.17975663716814px" fill="#e67700" text-anchor="start" style="white-space: pre;" direction="ltr">通过应用框架或客户端</text><text x="0" y="31" font-family="Virgil, HanziPen SC, Kai, Segoe UI Emoji" font-size="12.17975663716814px" fill="#e67700" text-anchor="start" style="white-space: pre;" direction="ltr">直接进行Nacos订阅和注册</text></g><g transform="translate(811.8802984775641 309.859375) rotate(0 69.5 16)"><text x="0" y="12" font-family="Virgil, HanziPen SC, Kai, Segoe UI Emoji" font-size="11.282363191972143px" fill="#e67700" text-anchor="start" style="white-space: pre;" direction="ltr">通过Nacos Controller</text><text x="0" y="28" font-family="Virgil, HanziPen SC, Kai, Segoe UI Emoji" font-size="11.282363191972143px" fill="#e67700" text-anchor="start" style="white-space: pre;" direction="ltr">进行Nacos和K8S双向同步</text></g><g stroke-linecap="round" transform="translate(10 10) rotate(0 710.9765625 319.73046875)"><path d="M32 0 M32 0 C380.45 -0.99, 728.51 -0.76, 1389.95 0 M32 0 C571.53 -2.92, 1110.98 -2.96, 1389.95 0 M1389.95 0 C1411.71 0.61, 1419.96 12.24, 1421.95 32 M1389.95 0 C1410.36 1.03, 1423.31 8.47, 1421.95 32 M1421.95 32 C1422.22 164.38, 1421.54 298, 1421.95 607.46 M1421.95 32 C1423.59 249.98, 1423.5 466.9, 1421.95 607.46 M1421.95 607.46 C1420.31 629.92, 1412.02 639.71, 1389.95 639.46 M1421.95 607.46 C1421.63 629.44, 1413.37 641.55, 1389.95 639.46 M1389.95 639.46 C924.41 638.26, 459.99 637.67, 32 639.46 M1389.95 639.46 C875.57 637.09, 360.82 636.99, 32 639.46 M32 639.46 C10.55 638.26, -0.18 630.15, 0 607.46 M32 639.46 C9.46 641.19, 2.01 629.53, 0 607.46 M0 607.46 C0.12 381.88, 0.62 155.5, 0 32 M0 607.46 C-1.49 406.19, -1.77 204.96, 0 32 M0 32 C0.73 12.17, 9.67 1.79, 32 0 M0 32 C-0.5 11.56, 12.31 -1.3, 32 0" stroke="#495057" stroke-width="1" fill="none"></path></g><g transform="translate(1331.2890625 606.1404989919356) rotate(0 42 14.5)"><text x="0" y="21" font-family="Virgil, HanziPen SC, Kai, Segoe UI Emoji" font-size="19.90322580645162px" fill="#495057" text-anchor="start" style="white-space: pre;" direction="ltr">专线网络</text></g><g transform="translate(936.703125 664.26171875) rotate(0 238.5 11.5)"><text x="0" y="17" font-family="Virgil, HanziPen SC, Kai, Segoe UI Emoji" font-size="16px" fill="#495057" text-anchor="start" style="white-space: pre;" direction="ltr">* 在本地容灾等需要进行K8S集群和非K8S环境调用的场景中使用</text></g><g transform="translate(976.0546875 531.5546875) rotate(0 73.5 23)"><text x="0" y="17" font-family="Virgil, HanziPen SC, Kai, Segoe UI Emoji" font-size="16px" fill="#5f3dc4" text-anchor="start" style="white-space: pre;" direction="ltr">多语言程序或</text><text x="0" y="40" font-family="Virgil, HanziPen SC, Kai, Segoe UI Emoji" font-size="16px" fill="#5f3dc4" text-anchor="start" style="white-space: pre;" direction="ltr">不依赖Nacos的应用</text></g><g transform="translate(158.3125 537.8818359375) rotate(0 47 20)"><text x="0" y="14" font-family="Virgil, HanziPen SC, Kai, Segoe UI Emoji" font-size="16px" fill="#5f3dc4" text-anchor="start" style="white-space: pre;" direction="ltr">Spring Cloud</text><text x="0" y="34" font-family="Virgil, HanziPen SC, Kai, Segoe UI Emoji" font-size="16px" fill="#5f3dc4" text-anchor="start" style="white-space: pre;" direction="ltr">Dubbo/……</text></g><g stroke-linecap="round"><g transform="translate(235.833276102441 274.5014057148675) rotate(0 179.80537281315242 -87.38555160355355)"><path d="M0.13 0.71 C60.46 -28.25, 300.54 -144.61, 360.87 -173.84 M-1.26 0.04 C58.98 -29.24, 299.2 -146.6, 359.7 -175.48" stroke="#e67700" stroke-width="1" fill="none"></path></g><g transform="translate(235.833276102441 274.5014057148675) rotate(0 179.80537281315242 -87.38555160355355)"><path d="M339.98 -154.66 C344.63 -157.09, 347.62 -164.5, 358.39 -174.53 M338.59 -154.28 C343.8 -158.32, 348.9 -163.55, 359.4 -174.99" stroke="#e67700" stroke-width="1" fill="none"></path></g><g transform="translate(235.833276102441 274.5014057148675) rotate(0 179.80537281315242 -87.38555160355355)"><path d="M331.05 -173.13 C337.53 -171.76, 342.36 -175.36, 358.39 -174.53 M329.65 -172.75 C336.68 -172.84, 343.73 -174.04, 359.4 -174.99" stroke="#e67700" stroke-width="1" fill="none"></path></g></g><mask></mask><g stroke-linecap="round"><g transform="translate(707.7608234696079 376.2000981034595) rotate(0 74.38456077905744 22.317417474347337)" fill-rule="evenodd"><path d="M1.44 0.93 L1.82 43.74 L91.43 44.94 L91.96 64.42 L149.71 20.04 L91.89 -22.44 L91.67 -1.77 L-1.68 -1.64" stroke="none" stroke-width="0" fill="#ced4da" fill-rule="evenodd"></path><path d="M-1.75 1.8 C-1.93 13.66, 1 26.74, -1.27 45.06 M0.41 -0.93 C-1.08 14.25, -0.54 29.58, 0.43 43.56 M-0.09 44.41 C31.72 44.57, 65.2 43.84, 90.3 45.35 M-0.5 43.28 C35.5 44.5, 71.47 43.41, 90.42 43.29 M92 44.78 C91.36 52.16, 88.39 57.36, 91.88 66.96 M89.37 42.83 C90.65 50.09, 89.84 54.17, 90.58 66.25 M90.57 65.81 C108.11 52.48, 120.26 42.58, 150.52 23.46 M90.44 65.82 C103.4 56.04, 117.35 46.59, 149.32 22.02 M150.38 20.85 C133.98 11.25, 116.83 -3.03, 89.78 -20.63 M150.51 22.67 C137.08 10.61, 122.5 1.95, 90.5 -22.32 M89.72 -20.81 C91.79 -15.51, 92.03 -10.09, 91.24 1.2 M89.32 -21.16 C89.73 -15.42, 89.25 -9.83, 90.77 0.1 M91.87 1.12 C56.3 -0.64, 20.32 -0.93, 1.24 0.55 M89.93 -0.95 C60.49 -1.01, 31.6 -1.02, 0.13 0.19 M0 0 C0 0, 0 0, 0 0 M0 0 C0 0, 0 0, 0 0" stroke="#495057" stroke-width="1" fill="none"></path></g></g><mask></mask><g stroke-linecap="round"><g transform="translate(558.701621795895 378.0445140151486) rotate(179.66187271357438 74.97291138492295 21.47724179539381)" fill-rule="evenodd"><path d="M-0.92 -0.33 L-0.83 44.13 L92.01 44.87 L90.31 64.44 L151.79 22.54 L90.25 -20.78 L91.31 -0.23 L1.45 -0.55" stroke="none" stroke-width="0" fill="#ced4da" fill-rule="evenodd"></path><path d="M-0.31 -0.24 C-1.01 14.25, -1.41 26.28, -1.55 43.25 M0.61 0.28 C0.11 10.84, 0.29 21.95, 0.64 43.33 M-1.68 42.15 C20.94 42.98, 39.14 42.51, 91.28 45.3 M0.8 43.97 C27.48 44.9, 54.26 44.63, 90.7 44.52 M92.15 44.98 C88.27 50.23, 91.21 53.91, 88.96 64.23 M90.39 42.92 C90.53 50.5, 89.88 56.07, 91.13 64.73 M91.81 65.14 C105.24 55.08, 118.88 47.06, 151.62 20.45 M89.47 65.92 C104.91 55.45, 119.03 44.71, 150.3 21.24 M150.23 22.79 C133.24 9.22, 120.24 -2.23, 91.28 -21.62 M150.76 21.63 C137.14 12.4, 124.12 3.12, 89.41 -21.74 M89.19 -22.97 C90.35 -16.08, 90.74 -13.26, 91.04 -0.29 M89.35 -21.84 C89.8 -16.07, 90.49 -9.72, 91.03 0.06 M90.6 -0.69 C57.77 0.03, 23.1 0.34, 1.62 0.78 M91.14 0.17 C64.88 -0.55, 40.27 -0.36, 0.68 0.14 M0 0 C0 0, 0 0, 0 0 M0 0 C0 0, 0 0, 0 0" stroke="#495057" stroke-width="1" fill="none"></path></g></g><mask></mask><g transform="translate(620.51953125 383.7646484375) rotate(0 93 14.5)"><text x="0" y="21" font-family="Virgil, HanziPen SC, Kai, Segoe UI Emoji" font-size="20px" fill="#495057" text-anchor="start" style="white-space: pre;" direction="ltr">云上与自建IDC互通</text></g><g transform="translate(937.0859375 695.2490234375) rotate(0 238.5 11.5)"><text x="0" y="17" font-family="Virgil, HanziPen SC, Kai, Segoe UI Emoji" font-size="16px" fill="#495057" text-anchor="start" style="white-space: pre;" direction="ltr">* 在迁移上云等需要进行K8S集群和非K8S环境调用的场景中使用</text></g></svg>