<svg version="1.1" xmlns="http://www.w3.org/2000/svg" viewBox="0 0 1076.3036705167335 554.16015625" width="2152.607341033467" height="1108.3203125">
  <!-- svg-source:excalidraw -->
  
  <defs>
    <style class="style-fonts">
      @font-face {
        font-family: "Virgil";
        src: url("https://excalidraw.com/Virgil.woff2");
      }
      @font-face {
        font-family: "Cascadia";
        src: url("https://excalidraw.com/Cascadia.woff2");
      }
    </style>
  </defs>
  <g stroke-linecap="round" transform="translate(210.90035020423352 10) rotate(0 137 25)"><path d="M10.57 -1.33 L264.76 0.89 L270.6 4.57 L274.51 6.22 L274.85 39.95 L269.28 47.84 L261.97 50.63 L8.07 49.65 L5.11 49.97 L-0.98 43.84 L-1.63 13.43 L3.19 3.38 L13.25 1.54" stroke="none" stroke-width="0" fill="#15aabf"></path><path d="M12.5 0 M12.5 0 C90.22 -0.38, 166.95 -0.45, 261.5 0 M12.5 0 C64.97 0.98, 116.79 2.01, 261.5 0 M261.5 0 C269.26 1.86, 275.33 3.42, 274 12.5 M261.5 0 C270.31 0.85, 274.86 3.96, 274 12.5 M274 12.5 C275.74 22.48, 274.96 28.35, 274 37.5 M274 12.5 C274.21 16.69, 273.65 22.82, 274 37.5 M274 37.5 C275.38 44.22, 271.58 48.48, 261.5 50 M274 37.5 C272.44 47.66, 269.97 50.78, 261.5 50 M261.5 50 C176.82 50.07, 89.77 48.59, 12.5 50 M261.5 50 C173.65 49.21, 84.64 47.83, 12.5 50 M12.5 50 C2.77 50.4, -1.45 43.91, 0 37.5 M12.5 50 C5.54 48.5, -0.05 44.99, 0 37.5 M0 37.5 C-0.28 29.76, -1.97 25.37, 0 12.5 M0 37.5 C-0.27 30.05, 0.07 20.79, 0 12.5 M0 12.5 C1.91 4.98, 5.49 0.15, 12.5 0 M0 12.5 C-0.52 2.09, 5.05 0.74, 12.5 0" stroke="#0b7285" stroke-width="1" fill="none"></path></g><g transform="translate(323.4003502042335 25) rotate(0 24.5 10)"><text x="24.5" y="14" font-family="Virgil, HanziPen SC, Kai, Segoe UI Emoji" font-size="16px" fill="#fff" text-anchor="middle" style="white-space: pre;" direction="ltr">Nacos</text></g><g stroke-linecap="round" transform="translate(530.1435142667335 131.07421875) rotate(0 268.080078125 206.54296875)"><path d="M32 0 M32 0 C208.28 0.64, 382.9 1.28, 504.16 0 M504.16 0 C525.97 0.63, 534.66 10.51, 536.16 32 M536.16 32 C538.7 139.64, 538.74 249.45, 536.16 381.09 M536.16 381.09 C536.42 403.17, 527.04 413.32, 504.16 413.09 M504.16 413.09 C329.66 412.66, 154.75 412.34, 32 413.09 M32 413.09 C12.47 411.63, 1.19 401.17, 0 381.09 M0 381.09 C-0.23 263.51, -1.93 144.48, 0 32 M0 32 C0.74 11.42, 10.49 0.88, 32 0" stroke="#000000" stroke-width="1.5" fill="none" stroke-dasharray="8 9"></path></g><g transform="translate(571.4755455167335 499.640625) rotate(0 33.5 11.5)"><text x="0" y="17" font-family="Virgil, HanziPen SC, Kai, Segoe UI Emoji" font-size="16px" fill="#000000" text-anchor="start" style="white-space: pre;" direction="ltr">K8S集群</text></g><g stroke-linecap="round" transform="translate(858.2099205167335 258.31640625) rotate(0 77.126953125 116.78125)"><path d="M32 0 M32 0 C53.83 1.18, 79.33 0.85, 122.25 0 M122.25 0 C142.09 -0.15, 154.48 12.4, 154.25 32 M154.25 32 C155.93 67.99, 155.25 104.62, 154.25 201.56 M154.25 201.56 C155.8 223.13, 144.99 234.62, 122.25 233.56 M122.25 233.56 C95.67 231.25, 69.35 231.61, 32 233.56 M32 233.56 C11.86 232.32, 0.79 224.17, 0 201.56 M0 201.56 C-2.33 155.94, -0.84 110.25, 0 32 M0 32 C-0.18 11.55, 12.49 -1.79, 32 0" stroke="#5f3dc4" stroke-width="1.5" fill="none" stroke-dasharray="1.5 7"></path></g><g transform="translate(926.3153892667335 460.8515625) rotate(0 34 10)"><text x="0" y="14" font-family="Virgil, HanziPen SC, Kai, Segoe UI Emoji" font-size="16px" fill="#5f3dc4" text-anchor="start" style="white-space: pre;" direction="ltr">Service 1</text></g><g stroke-linecap="round" transform="translate(885.6122642667335 293.578125) rotate(0 49.017578125 22.783203125)"><path d="M10.91 -1.6 L87.61 0.47 L94.22 0.11 L97.7 8.95 L99.77 32.41 L97.31 39.48 L94.52 44.02 L86.9 46.32 L12.93 45.81 L5.86 45.02 L0.24 37.7 L-0.91 9.49 L1.02 4.65 L9.93 1.19" stroke="none" stroke-width="0" fill="#228be6"></path><path d="M11.39 0 M11.39 0 C28.71 1.38, 48.5 -1.23, 86.64 0 M11.39 0 C35.43 0.16, 60.57 -1.18, 86.64 0 M86.64 0 C95.75 1.38, 98.77 2.45, 98.04 11.39 M86.64 0 C91.98 -1.99, 96.06 4.77, 98.04 11.39 M98.04 11.39 C99.39 14.68, 99.75 19.66, 98.04 34.17 M98.04 11.39 C98.55 17.1, 97.4 21.2, 98.04 34.17 M98.04 34.17 C98.66 43.76, 92.6 45.76, 86.64 45.57 M98.04 34.17 C99.27 43.99, 92.44 46.21, 86.64 45.57 M86.64 45.57 C55.31 45.44, 25.31 43.12, 11.39 45.57 M86.64 45.57 C59.21 45.05, 32.7 46.35, 11.39 45.57 M11.39 45.57 C3.56 44.07, -1.92 42.13, 0 34.17 M11.39 45.57 C4.2 43.29, 1.96 40.57, 0 34.17 M0 34.17 C1.95 27.04, 1.36 18.42, 0 11.39 M0 34.17 C0.53 27.86, -0.47 21.31, 0 11.39 M0 11.39 C-1.58 5.06, 2.69 -0.98, 11.39 0 M0 11.39 C1.48 2.71, 2.44 0.41, 11.39 0" stroke="#1864ab" stroke-width="1" fill="none"></path></g><g transform="translate(919.1298423917335 306.361328125) rotate(0 15.5 10)"><text x="15.5" y="14" font-family="Virgil, HanziPen SC, Kai, Segoe UI Emoji" font-size="16px" fill="#fff" text-anchor="middle" style="white-space: pre;" direction="ltr">Pod</text></g><g transform="translate(924.5224205167335 350.8828125) rotate(0 12 10)"><text x="0" y="14" font-family="Virgil, HanziPen SC, Kai, Segoe UI Emoji" font-size="16px" fill="#000000" text-anchor="start" style="white-space: pre;" direction="ltr">……</text></g><g stroke-linecap="round" transform="translate(552.0966392667335 151.01171875) rotate(0 61.923828125 36.345703125)"><path d="M19.1 0.06 L105.93 0.75 L118.29 2.79 L122.7 8.16 L123.63 14.77 L122.76 55.29 L119.47 67.39 L115.29 71.33 L104.43 73.48 L19.44 72.12 L8.96 71.46 L1.8 66.01 L1.02 59.53 L0.1 14.79 L6.36 2.75 L11.73 2.51 L18.9 -1.35" stroke="none" stroke-width="0" fill="#82c91e"></path><path d="M18.17 0 M18.17 0 C36.67 -0.95, 53.2 1.22, 105.67 0 M18.17 0 C49.71 -1.44, 83.56 -0.7, 105.67 0 M105.67 0 C118.46 0.84, 122.21 4.52, 123.85 18.17 M105.67 0 C118.51 2.29, 121.97 6.28, 123.85 18.17 M123.85 18.17 C124.76 32.99, 122.5 42.49, 123.85 54.52 M123.85 18.17 C122.96 27.14, 123.27 34.89, 123.85 54.52 M123.85 54.52 C123.12 65.63, 118.15 74.28, 105.67 72.69 M123.85 54.52 C123.58 64.92, 115.58 73.11, 105.67 72.69 M105.67 72.69 C76.86 74.42, 49.78 71.75, 18.17 72.69 M105.67 72.69 C71.13 73.04, 35.53 73.65, 18.17 72.69 M18.17 72.69 C6.7 72.7, -1.35 66.18, 0 54.52 M18.17 72.69 C4.24 74.14, -1.28 65.5, 0 54.52 M0 54.52 C0.52 39.52, -0.84 29.56, 0 18.17 M0 54.52 C0.75 42.82, 0.27 31.06, 0 18.17 M0 18.17 C-0.39 6.55, 7.49 -1.42, 18.17 0 M0 18.17 C1.26 7.53, 6.59 -1.03, 18.17 0" stroke="#5c940d" stroke-width="1" fill="none"></path></g><g transform="translate(575.5204673917335 167.357421875) rotate(0 38.5 20)"><text x="38.5" y="14" font-family="Virgil, HanziPen SC, Kai, Segoe UI Emoji" font-size="16px" fill="#fff" text-anchor="middle" style="white-space: pre;" direction="ltr">Nacos</text><text x="38.5" y="34" font-family="Virgil, HanziPen SC, Kai, Segoe UI Emoji" font-size="16px" fill="#fff" text-anchor="middle" style="white-space: pre;" direction="ltr">Controller</text></g><g stroke-linecap="round"><g transform="translate(421.0970836497538 72.92052605488846) rotate(0 59.98729989528101 52.25539813567988)"><path d="M0.84 0.63 C20.71 18.04, 100.38 87.27, 120.15 104.59 M-0.17 -0.08 C19.46 16.96, 99.46 85.65, 119.22 102.74" stroke="#e67700" stroke-width="1" fill="none"></path></g><g transform="translate(421.0970836497538 72.92052605488846) rotate(0 59.98729989528101 52.25539813567988)"><path d="M29.9 11.48 C19.13 6.45, 8.48 1.66, 2.65 -0.83 M29.48 11.13 C19.77 8.31, 8.4 3.98, 1.21 1.01" stroke="#e67700" stroke-width="1" fill="none"></path></g><g transform="translate(421.0970836497538 72.92052605488846) rotate(0 59.98729989528101 52.25539813567988)"><path d="M16.42 26.95 C10.71 16, 5.15 5.37, 2.65 -0.83 M16 26.6 C11.24 18.17, 4.71 8.28, 1.21 1.01" stroke="#e67700" stroke-width="1" fill="none"></path></g><g transform="translate(421.0970836497538 72.92052605488846) rotate(0 59.98729989528101 52.25539813567988)"><path d="M92.22 92.17 C102.61 94.83, 113.1 98.1, 121.02 101.28 M91.8 91.82 C102.11 96.48, 110.89 99.85, 119.59 103.11" stroke="#e67700" stroke-width="1" fill="none"></path></g><g transform="translate(421.0970836497538 72.92052605488846) rotate(0 59.98729989528101 52.25539813567988)"><path d="M105.61 76.62 C110.97 85.24, 116.41 94.37, 121.02 101.28 M105.19 76.28 C110.59 86.58, 114.56 95.53, 119.59 103.11" stroke="#e67700" stroke-width="1" fill="none"></path></g></g><mask></mask><g stroke-linecap="round"><g transform="translate(667.4634992018016 225.93331054763405) rotate(0 24.938022965638766 13.194721714644686)"><path d="M0.63 0.04 C9 4.26, 42.09 21.9, 50.37 26.18 M-0.49 -0.99 C7.75 3.31, 41.31 22.8, 49.69 27.38" stroke="#e67700" stroke-width="1" fill="none"></path></g><g transform="translate(667.4634992018016 225.93331054763405) rotate(0 24.938022965638766 13.194721714644686)"><path d="M0.65 -1.32 L15.17 -0.83 L10.98 10.86 L-0.35 1.33" stroke="none" stroke-width="0" fill="#e67700" fill-rule="evenodd"></path><path d="M0.68 0.68 C4.49 0.76, 8.62 1.75, 14.52 1.64 M0.42 0.73 C4.7 -0.17, 7.92 0.56, 15.9 0.68 M16.57 1.63 C14.15 3.7, 10.41 7.32, 8.63 12.51 M16.05 0.24 C14.89 2.69, 12.64 6.09, 9.76 12.19 M10.19 13.47 C5.48 7.97, 4.41 5.19, -0.54 0.46 M9.19 12.12 C5.66 6.44, 3.04 1.92, 0.62 -0.24 M0.63 0.04 C0.63 0.04, 0.63 0.04, 0.63 0.04 M0.63 0.04 C0.63 0.04, 0.63 0.04, 0.63 0.04" stroke="#e67700" stroke-width="1" fill="none"></path></g><g transform="translate(667.4634992018016 225.93331054763405) rotate(0 24.938022965638766 13.194721714644686)"><path d="M49.7 26.03 L34.28 24.63 L42.23 14.06 L48.71 28.67" stroke="none" stroke-width="0" fill="#e67700" fill-rule="evenodd"></path><path d="M49.74 28.02 C44.2 27.67, 38.98 28.08, 33.64 27.1 M49.48 28.08 C46.63 26.91, 42.73 27.19, 35.02 26.14 M35.69 27.08 C37.25 21.61, 37.68 17.57, 39.89 15.71 M35.17 25.7 C36.64 23.34, 37 21.95, 41.01 15.38 M41.44 16.67 C42.63 19.56, 47.64 25.04, 48.52 27.8 M40.45 15.32 C43.79 19.37, 48.25 24.46, 49.67 27.1 M49.69 27.38 C49.69 27.38, 49.69 27.38, 49.69 27.38 M49.69 27.38 C49.69 27.38, 49.69 27.38, 49.69 27.38" stroke="#e67700" stroke-width="1" fill="none"></path></g></g><mask></mask><g transform="translate(699.3890471192976 196.9365234375) rotate(0 69.5 16)"><text x="0" y="12" font-family="Virgil, HanziPen SC, Kai, Segoe UI Emoji" font-size="11.282363191972143px" fill="#e67700" text-anchor="start" style="white-space: pre;" direction="ltr">通过Nacos Controller</text><text x="0" y="28" font-family="Virgil, HanziPen SC, Kai, Segoe UI Emoji" font-size="11.282363191972143px" fill="#e67700" text-anchor="start" style="white-space: pre;" direction="ltr">进行Nacos和K8S双向同步</text></g><g stroke-linecap="round" transform="translate(668.9403892667335 255.25634765625) rotate(0 77.126953125 116.78125)"><path d="M32 0 M32 0 C59.27 -0.01, 91.27 0.88, 122.25 0 M122.25 0 C142.03 1.4, 154.26 9.93, 154.25 32 M154.25 32 C151.81 81.33, 153.82 133.57, 154.25 201.56 M154.25 201.56 C152.47 223.52, 145.56 232.71, 122.25 233.56 M122.25 233.56 C103.09 231.23, 85.05 233.55, 32 233.56 M32 233.56 C9.5 234.26, -1.34 223.53, 0 201.56 M0 201.56 C-0.74 140.45, -2.58 82.53, 0 32 M0 32 C1.71 8.74, 10.52 1.15, 32 0" stroke="#5f3dc4" stroke-width="1.5" fill="none" stroke-dasharray="1.5 7"></path></g><g stroke-linecap="round" transform="translate(695.4247642667335 275.92822265625) rotate(0 49.017578125 30)"><path d="M14.94 -1.96 L83 0.82 L93.03 0.56 L97.32 5.86 L97.06 11.49 L97.37 45.05 L94.05 52.57 L92.31 57.65 L81.25 60.62 L16.97 59.14 L3.97 58.56 L0.94 53.52 L-1.57 48.38 L0.75 10.32 L4.44 2.41 L9.08 2.01 L16.61 0.72" stroke="none" stroke-width="0" fill="#228be6"></path><path d="M15 0 M15 0 C38.4 2.12, 58.14 0.27, 83.04 0 M15 0 C38.48 -1.26, 63.27 -1.34, 83.04 0 M83.04 0 C94.36 -1.85, 99.15 6.72, 98.04 15 M83.04 0 C90.82 -1.31, 97.13 7.2, 98.04 15 M98.04 15 C97.04 21.19, 96.57 32.21, 98.04 45 M98.04 15 C98.43 22.09, 97.69 26.81, 98.04 45 M98.04 45 C98.58 55.7, 93.11 59.26, 83.04 60 M98.04 45 C98.34 55.12, 92.16 62.18, 83.04 60 M83.04 60 C65.82 59.81, 48.37 60.69, 15 60 M83.04 60 C65.05 59.93, 46.82 59.52, 15 60 M15 60 C6 60.53, -1.08 53.75, 0 45 M15 60 C2.93 60.65, 1.69 54.54, 0 45 M0 45 C-1.88 38.22, 0.57 27.42, 0 15 M0 45 C0.97 33.9, -0.26 24.2, 0 15 M0 15 C1.17 6.34, 6.06 0.91, 15 0 M0 15 C-0.78 6.01, 5.54 -1.8, 15 0" stroke="#1864ab" stroke-width="1" fill="none"></path></g><g transform="translate(704.9423423917335 295.92822265625) rotate(0 39.5 10)"><text x="39.5" y="14" font-family="Virgil, HanziPen SC, Kai, Segoe UI Emoji" font-size="16px" fill="#fff" text-anchor="middle" style="white-space: pre;" direction="ltr">ConfigMap</text></g><g transform="translate(735.4755455167335 351.63525390625) rotate(0 12 10)"><text x="0" y="14" font-family="Virgil, HanziPen SC, Kai, Segoe UI Emoji" font-size="16px" fill="#000000" text-anchor="start" style="white-space: pre;" direction="ltr">……</text></g><g stroke-linecap="round" transform="translate(696.1005455167335 399.22900390625) rotate(0 49.017578125 30)"><path d="M14.66 0.08 L81.08 -2 L92.74 3.67 L95.4 6.72 L97 10 L100.03 46.99 L97.5 54.13 L92.9 56.73 L83.96 58.85 L14.98 58.69 L7.51 57.67 L3.36 52.76 L-0.44 47.76 L-0.54 13.01 L4.5 5.32 L10.22 1.04 L14.88 -1.15" stroke="none" stroke-width="0" fill="#228be6"></path><path d="M15 0 M15 0 C41.1 -2.61, 69.36 -1.58, 83.04 0 M15 0 C41.03 -0.67, 68.45 0.33, 83.04 0 M83.04 0 C93.38 1.26, 99.84 4.75, 98.04 15 M83.04 0 C94.25 0.53, 97.59 5.83, 98.04 15 M98.04 15 C99.01 21.38, 98.7 27.02, 98.04 45 M98.04 15 C98.41 23.23, 97.26 33.62, 98.04 45 M98.04 45 C97.86 54.44, 93.61 61.12, 83.04 60 M98.04 45 C97.9 54.37, 92.85 60.87, 83.04 60 M83.04 60 C62.05 58.65, 45.23 59.89, 15 60 M83.04 60 C67.89 59.96, 50.67 59.08, 15 60 M15 60 C3.1 59.92, -0.86 53.93, 0 45 M15 60 C6.01 58.67, -1.63 55.42, 0 45 M0 45 C-0.16 36.51, 1.68 31.48, 0 15 M0 45 C0.12 34.46, 0.94 22.3, 0 15 M0 15 C-0.03 6.87, 4.61 0.11, 15 0 M0 15 C-1.95 5.56, 6.3 -0.65, 15 0" stroke="#1864ab" stroke-width="1" fill="none"></path></g><g transform="translate(718.6181236417335 419.22900390625) rotate(0 26.5 10)"><text x="26.5" y="14" font-family="Virgil, HanziPen SC, Kai, Segoe UI Emoji" font-size="16px" fill="#fff" text-anchor="middle" style="white-space: pre;" direction="ltr">Secret</text></g><g stroke-linecap="round" transform="translate(22.629408708550045 242.7986665866922) rotate(0 12.071116973872847 12.014314754698262)"><path d="M2.88 2.5 C2.88 2.5, 2.88 2.5, 2.88 2.5 M2.88 2.5 C2.88 2.5, 2.88 2.5, 2.88 2.5 M-0.26 10.03 C2.25 7.51, 5.61 3.45, 11.22 1.78 M0.41 10.93 C3.79 7.24, 7.11 4.94, 10.29 0.48 M3.19 17.57 C4.99 11.62, 7.32 11.35, 12.95 1.28 M0.78 16.75 C4.68 12.25, 7.96 8.15, 13.53 1.72 M3.57 20.46 C10.15 12.95, 14.31 7.3, 19.19 1.29 M2.45 20.34 C8.7 14.67, 12.66 10.77, 20.77 0.98 M7.65 24.25 C12.09 18.72, 15.23 13.86, 20.86 6.02 M6.27 23.68 C9.84 19.59, 12.65 14.48, 21.93 5.35 M8.36 25.82 C16.14 21.04, 19.3 13.47, 23.47 7.93 M9.11 25.79 C15.52 20.16, 18.8 14.21, 23.41 9.41 M13.95 24.06 C19.34 21.76, 22.79 15.1, 27.81 12.11 M14.98 25.57 C18.42 22.99, 20.72 19.78, 25.83 12.64" stroke="#12b886" stroke-width="0.5" fill="none"></path><path d="M11.51 -0.02 C13.81 -0.35, 17.56 -0.08, 19.47 1.58 C21.38 3.23, 22.49 7.29, 22.95 9.89 C23.42 12.49, 23.16 14.95, 22.25 17.16 C21.34 19.37, 20 22.16, 17.52 23.15 C15.04 24.13, 9.9 23.76, 7.35 23.08 C4.81 22.39, 3.54 21.18, 2.25 19.06 C0.95 16.93, -0.55 13.11, -0.41 10.31 C-0.27 7.52, 0.59 3.77, 3.08 2.27 C5.56 0.78, 12.17 1.55, 14.51 1.34 C16.85 1.13, 17.21 0.83, 17.11 1.01 M6.82 2.05 C9.29 0.88, 12.87 1.05, 15.52 1.36 C18.16 1.67, 21.37 1.8, 22.68 3.9 C24 6, 23.58 11.24, 23.4 13.98 C23.22 16.72, 23.36 18.82, 21.61 20.34 C19.86 21.86, 15.66 22.88, 12.92 23.09 C10.18 23.3, 7.48 22.69, 5.16 21.59 C2.85 20.48, -0.38 18.83, -0.96 16.46 C-1.55 14.09, 0.2 9.81, 1.64 7.38 C3.09 4.95, 6.83 2.97, 7.7 1.87 C8.56 0.78, 6.77 0.76, 6.83 0.81" stroke="#495057" stroke-width="1" fill="none"></path></g><g stroke-linecap="round"><g transform="translate(34.643723463248534 266.82729609608873) rotate(0 -0.11338243818812543 16.78655522060518)" fill-rule="evenodd"><path d="M-7.84 -0.19 C-7.84 -0.19, -7.84 -0.19, -7.84 -0.19 M-7.84 -0.19 C-7.84 -0.19, -7.84 -0.19, -7.84 -0.19 M-11.89 11.53 C-10.83 7.9, -8.26 5.68, -4.31 1.23 M-12.39 11.5 C-9.67 7.96, -6.05 3.91, -2.15 -0.17 M-13.97 17.18 C-10.04 12.9, -5.94 8.67, 3.13 2.57 M-12.27 18.26 C-9.73 13.67, -4.75 8.35, 0.68 0.49 M-15.91 25.53 C-11.35 22.37, -2.18 14.36, 7.86 0.63 M-15.91 27.4 C-8 19.89, -2.67 11.04, 7.44 -0.92 M-17.08 33.37 C-4.82 20.44, 3.24 10.11, 11.67 2.21 M-15.35 32.38 C-10.51 26.4, -5.27 21.47, 10.04 3.5 M-12.64 34.63 C-4.68 25.69, 2.72 17.28, 11.51 8.48 M-12.17 35.27 C-6.25 30.02, -2.5 23.34, 11.22 8.58 M-7.12 36.81 C0.6 26.9, 7.93 16.99, 14.74 12.25 M-7.43 36.32 C-2.74 29.96, 3.93 23.44, 14.36 12.15 M-1.11 36.01 C1.97 32.16, 3.92 28.25, 13.89 16.61 M-2.56 36.21 C1.97 31.63, 6.1 26.25, 13.99 16.82 M2.95 37.84 C3.49 35.34, 8.59 28.02, 15.35 19.75 M2.72 38.17 C6.33 32.01, 10.58 27.62, 16.36 20.03 M8.19 35.58 C12.63 33.85, 14.26 29.87, 17.08 24.64 M7.74 36.76 C10.98 32.67, 14.39 29.31, 16.98 26.17" stroke="#12b886" stroke-width="0.5" fill="none"></path><path d="M1.05 -0.08 C2.47 -0.27, 6.6 -5.83, 9.07 -0.48 C11.53 4.87, 20.02 26.79, 15.83 32.01 C11.64 37.23, -11.92 36.12, -16.08 30.86 C-20.23 25.6, -11.71 5.67, -9.12 0.43 C-6.54 -4.82, -2.27 -0.54, -0.56 -0.61 M0.15 -1.17 C1.44 -1.25, 6.2 -4.94, 8.67 0.8 C11.14 6.55, 19.05 28.22, 14.96 33.31 C10.87 38.4, -12.11 36.72, -15.86 31.34 C-19.6 25.97, -10.25 5.98, -7.52 1.04 C-4.78 -3.9, -0.49 2.09, 0.55 1.69" stroke="#495057" stroke-width="1" fill="none"></path></g></g><mask></mask><g stroke-linecap="round"><g transform="translate(222.90364501871716 96.08205644200513) rotate(0 91.88024153517881 -0.3919307035989448)"><path d="M0.51 0.23 C31.14 0.5, 153.87 0.59, 184.44 0.64 M-0.68 -0.7 C29.72 -0.71, 152.2 -1.76, 183.38 -1.32" stroke="#000000" stroke-width="1" fill="none"></path></g></g><mask></mask><g stroke-linecap="round" transform="translate(228.8340181736637 82.45596349032644) rotate(0 3.616295821196445 3.563250132897508)"><path d="M3.41 -0.55 C4.3 -0.43, 5.92 1.18, 6.6 1.68 C7.27 2.19, 7.31 1.81, 7.45 2.47 C7.58 3.14, 8.06 4.99, 7.42 5.67 C6.78 6.35, 4.61 6.4, 3.62 6.56 C2.62 6.72, 1.88 6.72, 1.43 6.61 C0.98 6.5, 0.98 6.46, 0.91 5.9 C0.84 5.34, 0.82 4.23, 1.01 3.27 C1.2 2.3, 1.4 0.63, 2.07 0.09 C2.74 -0.45, 4.55 0.12, 5.04 0.03 C5.53 -0.05, 5.02 -0.44, 5.01 -0.44 M6.08 1.66 C6.72 2.17, 6.16 2.68, 6.29 2.91 C6.42 3.13, 6.92 2.42, 6.89 3.01 C6.85 3.6, 6.76 5.93, 6.07 6.46 C5.37 6.99, 3.33 6.22, 2.72 6.2 C2.11 6.18, 3 6.45, 2.41 6.34 C1.82 6.22, -0.3 6.41, -0.81 5.52 C-1.33 4.63, -1.37 1.69, -0.67 1 C0.03 0.31, 2.69 1.49, 3.37 1.38 C4.06 1.27, 3 0.56, 3.45 0.32 C3.91 0.07, 5.96 -0.15, 6.08 -0.09" stroke="#000000" stroke-width="1" fill="none"></path></g><g stroke-linecap="round" transform="translate(239.24851574882086 82.45596349032644) rotate(0 3.616295821196445 3.563250132897508)"><path d="M1.95 0.49 C2.7 0.37, 4.87 0.09, 5.53 0.48 C6.19 0.88, 5.64 2.33, 5.9 2.84 C6.16 3.34, 7.18 3.03, 7.09 3.53 C7 4.04, 5.97 5.16, 5.34 5.86 C4.72 6.56, 3.88 7.56, 3.35 7.75 C2.81 7.95, 2.57 7.59, 2.14 7.04 C1.72 6.49, 1.14 5.26, 0.79 4.44 C0.45 3.63, -0.28 2.88, 0.08 2.16 C0.45 1.43, 2.52 0.36, 2.98 0.09 C3.44 -0.17, 2.9 0.42, 2.85 0.58 M5.1 -0.44 C6.15 -0.74, 6.96 -0.03, 7.12 0.55 C7.28 1.13, 6.09 2.42, 6.05 3.06 C6.02 3.71, 7.29 3.6, 6.93 4.42 C6.57 5.25, 4.66 7.74, 3.9 8 C3.15 8.27, 2.73 6.66, 2.37 6.03 C2.02 5.39, 2.29 4.54, 1.77 4.19 C1.25 3.85, -0.88 4.74, -0.76 3.96 C-0.65 3.17, 1.71 -0.1, 2.46 -0.54 C3.21 -0.98, 3.62 1.28, 3.76 1.29 C3.9 1.3, 3.28 -0.44, 3.28 -0.47" stroke="#000000" stroke-width="1" fill="none"></path></g><g stroke-linecap="round" transform="translate(249.30631239636227 82.45596349032644) rotate(0 3.616295821196445 3.563250132897508)"><path d="M4.22 0.55 C5.1 0.5, 5.71 -0.34, 6.36 0.1 C7.02 0.53, 8.23 2.33, 8.14 3.16 C8.05 3.99, 6.48 4.48, 5.81 5.1 C5.13 5.72, 4.57 6.43, 4.06 6.87 C3.55 7.32, 3.23 7.94, 2.75 7.77 C2.27 7.6, 1.57 6.79, 1.2 5.86 C0.83 4.94, 0.38 3.08, 0.52 2.2 C0.66 1.32, 1.4 1.07, 2.02 0.58 C2.64 0.09, 3.75 -0.58, 4.24 -0.73 C4.73 -0.87, 4.87 -0.45, 4.96 -0.26 M2.31 1.27 C2.76 0.62, 4.13 -0.94, 4.91 -0.76 C5.69 -0.59, 6.81 1.58, 7.02 2.32 C7.22 3.05, 6.2 2.92, 6.15 3.63 C6.1 4.33, 7.35 5.74, 6.72 6.54 C6.08 7.34, 3.49 8.62, 2.35 8.4 C1.21 8.18, 0.1 5.79, -0.12 5.21 C-0.34 4.64, 1.13 5.56, 1.04 4.95 C0.95 4.35, -1.16 2.45, -0.66 1.58 C-0.16 0.71, 3.56 -0.04, 4.04 -0.25 C4.52 -0.46, 2.3 0.18, 2.22 0.33" stroke="#000000" stroke-width="1" fill="none"></path></g><g stroke-linecap="round"><g transform="translate(216.60325305381184 138.7751189829978) rotate(0 97.91578537768913 0.6754251290087154)"><path d="M-0.74 0.19 C-0.8 -4.38, -0.81 -18.4, -0.57 -27.06 C-0.33 -35.73, 0.08 -45.61, 0.7 -51.79 C1.32 -57.97, 0.68 -61.99, 3.14 -64.14 C5.6 -66.3, 5.93 -64.59, 15.47 -64.72 C25.01 -64.84, 42.25 -64.89, 60.4 -64.89 C78.55 -64.88, 103.74 -65, 124.37 -64.71 C144.99 -64.42, 172.37 -63.71, 184.13 -63.15 C195.89 -62.6, 192.86 -63.14, 194.92 -61.4 C196.99 -59.67, 196.3 -58.86, 196.51 -52.73 C196.72 -46.6, 196.34 -33.67, 196.18 -24.61 C196.01 -15.55, 195.6 -6.96, 195.52 1.64 C195.45 10.24, 195.57 18.16, 195.73 27 C195.9 35.84, 196.83 48.11, 196.52 54.67 C196.2 61.23, 195.74 64.45, 193.82 66.34 C191.9 68.23, 195.12 66.07, 184.99 65.99 C174.87 65.91, 154.07 65.96, 133.08 65.85 C112.09 65.73, 78.94 65.53, 59.05 65.31 C39.16 65.1, 23.46 64.59, 13.75 64.57 C4.04 64.55, 3.05 67.2, 0.79 65.18 C-1.47 63.15, 0.17 58.93, 0.19 52.43 C0.22 45.93, 1.09 34.79, 0.95 26.19 C0.81 17.59, -0.65 5.37, -0.66 0.83 M1.07 -0.76 C1.41 -5.21, 1.87 -17.05, 1.72 -25.89 C1.56 -34.73, -0.16 -47.5, 0.14 -53.79 C0.44 -60.08, 1.12 -61.86, 3.52 -63.62 C5.93 -65.38, 4.95 -64.54, 14.58 -64.36 C24.21 -64.19, 42.96 -62.27, 61.31 -62.57 C79.66 -62.86, 104.31 -66.08, 124.68 -66.13 C145.04 -66.18, 171.98 -63.53, 183.5 -62.89 C195.02 -62.25, 191.44 -63.87, 193.78 -62.31 C196.12 -60.74, 197.03 -59.92, 197.53 -53.48 C198.04 -47.04, 197.38 -33.33, 196.81 -23.68 C196.25 -14.04, 194.23 -3.87, 194.14 4.39 C194.05 12.65, 195.93 17.55, 196.28 25.9 C196.63 34.25, 196.64 47.75, 196.24 54.49 C195.83 61.22, 196.05 64.22, 193.85 66.32 C191.64 68.41, 193.24 67.04, 182.98 67.06 C172.73 67.09, 152.66 66.69, 132.32 66.47 C111.98 66.25, 80.93 66.06, 60.95 65.72 C40.97 65.38, 22.45 64.74, 12.44 64.43 C2.43 64.12, 3.11 65.5, 0.89 63.85 C-1.33 62.2, -0.42 60.51, -0.88 54.54 C-1.35 48.57, -1.86 37.05, -1.88 28.02 C-1.9 19, -1.23 4.88, -1.02 0.4" stroke="#000000" stroke-width="1" fill="none"></path></g></g><mask></mask><g stroke-linecap="round"><g transform="translate(333.72798594556593 80.84143606487703) rotate(0 1.071853797506833 4.445597121475231)"><path d="M0.19 -0.8 C9.8 -0.61, 46.72 -0.11, 58.02 0.39 C69.32 0.88, 66.61 0.71, 67.98 2.15 C69.35 3.6, 67.75 8.12, 66.23 9.04 C64.7 9.95, 69.96 7.81, 58.83 7.66 C47.69 7.51, 18.33 7.87, -0.58 8.16 C-19.49 8.44, -44.1 9.12, -54.64 9.37 C-65.17 9.61, -62.14 10.77, -63.8 9.63 C-65.45 8.49, -65.67 4.06, -64.58 2.56 C-63.5 1.05, -68.01 1.02, -57.27 0.6 C-46.52 0.19, -9.49 0.06, -0.1 0.06 M-1.18 1.4 C8.81 1.28, 48.92 -1.9, 60.37 -1.53 C71.83 -1.17, 66.63 2.18, 67.55 3.61 C68.47 5.04, 67.6 6.41, 65.89 7.06 C64.19 7.72, 68.21 6.99, 57.32 7.55 C46.42 8.12, 19.1 10.3, 0.53 10.45 C-18.03 10.59, -43.28 8.52, -54.07 8.42 C-64.86 8.32, -62.27 10.99, -64.22 9.82 C-66.17 8.66, -67.01 2.99, -65.78 1.43 C-64.54 -0.13, -67.79 0.53, -56.8 0.47 C-45.81 0.41, -9.44 1.07, 0.17 1.08" stroke="#000000" stroke-width="1" fill="none"></path></g></g><mask></mask><g stroke-linecap="round"><g transform="translate(74.7675424964525 270.6025120205701) rotate(0 63.35334859487591 -42.007995587100396)"><path d="M0.01 -0.08 C21.51 -13.99, 106.83 -68.38, 128.15 -82.42 M-1.44 -1.17 C19.99 -14.87, 105.9 -70.23, 127.33 -83.94" stroke="#e67700" stroke-width="1" fill="none"></path></g><g transform="translate(74.7675424964525 270.6025120205701) rotate(0 63.35334859487591 -42.007995587100396)"><path d="M109.02 -59.65 C115.1 -65.59, 116.17 -69.54, 126.27 -84.96 M109.81 -60.11 C112.92 -64.61, 116.3 -70.86, 127.82 -83.22" stroke="#e67700" stroke-width="1" fill="none"></path></g><g transform="translate(74.7675424964525 270.6025120205701) rotate(0 63.35334859487591 -42.007995587100396)"><path d="M97.93 -76.92 C106.74 -78.85, 110.38 -78.79, 126.27 -84.96 M98.72 -77.38 C104.27 -78.31, 110 -80.92, 127.82 -83.22" stroke="#e67700" stroke-width="1" fill="none"></path></g></g><mask></mask><g transform="translate(11.375936141733291 154.47914706724475) rotate(348.2981298919603 104.26617431640636 17.468678419502623)"><text x="0" y="13.468678419502638" font-family="Virgil, HanziPen SC, Kai, Segoe UI Emoji" font-size="12.317998400787172px" fill="#e67700" text-anchor="start" style="white-space: pre;" direction="ltr">通过Nacos 控制台管理</text><text x="0" y="30.937356839005275" font-family="Virgil, HanziPen SC, Kai, Segoe UI Emoji" font-size="12.317998400787172px" fill="#e67700" text-anchor="start" style="white-space: pre;" direction="ltr">ConfigMap/Secret的版本和灰度信息</text></g><g stroke-linecap="round"><g transform="translate(218.03218614173352 217.56884765625) rotate(0 -21.513762707263197 63.55864125840833)"><path d="M0.58 0.57 C-6.69 21.63, -36.16 106.08, -43.61 127.3 M-0.57 -0.18 C-7.45 20.43, -34.34 104.33, -41.22 125.36" stroke="#000000" stroke-width="1" fill="none"></path></g></g><mask></mask><g stroke-linecap="round"><g transform="translate(409.7607925989968 224.51997202284167) rotate(0 14.049924857169401 63.99114884582349)"><path d="M-1.09 -0.17 C3.89 21.26, 24.08 106.63, 29.19 128.02 M0.54 -1.3 C5.44 20.34, 23.6 107.51, 28.37 129.29" stroke="#000000" stroke-width="1" fill="none"></path></g></g><mask></mask><g transform="translate(226.37593614173352 227.46337890625) rotate(0 73 100)"><text x="0" y="14" font-family="Virgil, HanziPen SC, Kai, Segoe UI Emoji" font-size="16px" fill="#495057" text-anchor="start" style="white-space: pre;" direction="ltr"></text><text x="0" y="34" font-family="Virgil, HanziPen SC, Kai, Segoe UI Emoji" font-size="16px" fill="#495057" text-anchor="start" style="white-space: pre;" direction="ltr">- ConfigMap1</text><text x="0" y="54" font-family="Virgil, HanziPen SC, Kai, Segoe UI Emoji" font-size="16px" fill="#495057" text-anchor="start" style="white-space: pre;" direction="ltr">    - version1 : ……</text><text x="0" y="74" font-family="Virgil, HanziPen SC, Kai, Segoe UI Emoji" font-size="16px" fill="#495057" text-anchor="start" style="white-space: pre;" direction="ltr">    - version2: ……</text><text x="0" y="94" font-family="Virgil, HanziPen SC, Kai, Segoe UI Emoji" font-size="16px" fill="#495057" text-anchor="start" style="white-space: pre;" direction="ltr">        - </text><text x="0" y="114" font-family="Virgil, HanziPen SC, Kai, Segoe UI Emoji" font-size="16px" fill="#495057" text-anchor="start" style="white-space: pre;" direction="ltr">- ConfigMap2</text><text x="0" y="134" font-family="Virgil, HanziPen SC, Kai, Segoe UI Emoji" font-size="16px" fill="#495057" text-anchor="start" style="white-space: pre;" direction="ltr">    - version1 : ……</text><text x="0" y="154" font-family="Virgil, HanziPen SC, Kai, Segoe UI Emoji" font-size="16px" fill="#495057" text-anchor="start" style="white-space: pre;" direction="ltr">- Secret1</text><text x="0" y="174" font-family="Virgil, HanziPen SC, Kai, Segoe UI Emoji" font-size="16px" fill="#495057" text-anchor="start" style="white-space: pre;" direction="ltr">    - version1 : ……</text><text x="0" y="194" font-family="Virgil, HanziPen SC, Kai, Segoe UI Emoji" font-size="16px" fill="#495057" text-anchor="start" style="white-space: pre;" direction="ltr">    -version2 : ……</text></g><g stroke-linecap="round"><g transform="translate(800.3134361417335 333.15087890625) rotate(0 38.84899032637475 29.228725708505976)"><path d="M-0.96 -0.92 C11.97 9, 65.27 48.46, 78.66 58.29 M0.74 1.22 C13.43 11.36, 64.72 49.78, 77.77 59.37" stroke="#1864ab" stroke-width="1" fill="none"></path></g><g transform="translate(800.3134361417335 333.15087890625) rotate(0 38.84899032637475 29.228725708505976)"><path d="M76.49 61.29 L61.41 54.61 L72.03 45.55 L77.17 61.04" stroke="none" stroke-width="0" fill="#1864ab" fill-rule="evenodd"></path><path d="M76.62 59.51 C71.03 59.13, 65.05 56.56, 63.3 56.17 M77.5 59.22 C72.3 58.37, 67.92 57.56, 63.01 56.6 M63.8 57.34 C65.51 53.19, 68.92 48.13, 70.15 45.04 M62.97 56.15 C65.42 52.66, 67.69 49.89, 71.01 45.74 M71.72 45.21 C73.55 49.87, 76.07 54.98, 78.11 58.22 M71.27 45.85 C73.27 50.05, 75.38 53.73, 78.14 59.38 M77.77 59.37 C77.77 59.37, 77.77 59.37, 77.77 59.37 M77.77 59.37 C77.77 59.37, 77.77 59.37, 77.77 59.37" stroke="#1864ab" stroke-width="1" fill="none"></path></g></g><mask></mask><g stroke-linecap="round" transform="translate(885.3583580167335 380.79345703125) rotate(0 49.017578125 22.783203125)"><path d="M9.86 -0.78 L85.77 -0.73 L94.79 3.05 L99.79 10.44 L97.79 35.28 L95.17 40.47 L94.55 44.47 L85.47 44.14 L10.9 44.71 L5.73 44.95 L2.07 38.54 L-0.84 8.07 L1.25 0.9 L10.03 1.64" stroke="none" stroke-width="0" fill="#228be6"></path><path d="M11.39 0 M11.39 0 C29.81 -2.22, 51.78 -0.57, 86.64 0 M11.39 0 C40.53 0.37, 70.63 0.8, 86.64 0 M86.64 0 C92.67 0.93, 98.31 3.16, 98.04 11.39 M86.64 0 C94.14 2.18, 97.29 4.13, 98.04 11.39 M98.04 11.39 C99.57 19.17, 96.28 30.1, 98.04 34.17 M98.04 11.39 C98.93 19.78, 97.9 29.06, 98.04 34.17 M98.04 34.17 C98.56 42.91, 92.5 45.53, 86.64 45.57 M98.04 34.17 C96.45 42.23, 94.75 44.18, 86.64 45.57 M86.64 45.57 C66.51 44.96, 41.73 43.48, 11.39 45.57 M86.64 45.57 C70.86 46.76, 54.2 46.96, 11.39 45.57 M11.39 45.57 C2.79 47.08, -1.93 43.75, 0 34.17 M11.39 45.57 C4.98 44.36, 1.1 44, 0 34.17 M0 34.17 C0.52 27.2, 0.34 19.63, 0 11.39 M0 34.17 C0.37 25.14, -0.09 16.24, 0 11.39 M0 11.39 C1.6 5.4, 3.88 -1.73, 11.39 0 M0 11.39 C-0.8 2.13, 3.77 2.03, 11.39 0" stroke="#1864ab" stroke-width="1" fill="none"></path></g><g transform="translate(918.8759361417335 393.57666015625) rotate(0 15.5 10)"><text x="15.5" y="14" font-family="Virgil, HanziPen SC, Kai, Segoe UI Emoji" font-size="16px" fill="#fff" text-anchor="middle" style="white-space: pre;" direction="ltr">Pod</text></g><g transform="translate(934.0126548917335 410.28759765625) rotate(0 22.5 6.5)"><text x="0" y="9" font-family="Virgil, HanziPen SC, Kai, Segoe UI Emoji" font-size="10.087500000000007px" fill="#ced4da" text-anchor="start" style="white-space: pre;" direction="ltr">gray tag</text></g><g stroke-linecap="round"><g transform="translate(802.6753833153587 303.238559447744) rotate(0 36.27393944262985 2.1407671163993314)"><path d="M-0.18 -0.79 C12.11 -0.04, 61.8 4.12, 74.28 5.07 M-1.73 1.41 C10.34 1.79, 60.61 3.14, 73.25 3.41" stroke="#1864ab" stroke-width="1" fill="none"></path></g><g transform="translate(802.6753833153587 303.238559447744) rotate(0 36.27393944262985 2.1407671163993314)"><path d="M73.91 3.56 L60.96 10.03 L60.08 -4.78 L71.55 5.2" stroke="none" stroke-width="0" fill="#1864ab" fill-rule="evenodd"></path><path d="M72.26 3.22 C69.64 5.82, 64.75 6.77, 60.12 8.15 M73.2 3.4 C70.25 5.35, 65.97 6.74, 59.8 9.31 M58.4 8.61 C59.93 6.21, 59.47 0.8, 59.38 -2.98 M59.32 8.96 C60.07 3.99, 59.64 -0.8, 59.84 -3 M60.52 -2.62 C64.1 0.16, 69.65 0.38, 74.57 2.04 M59.64 -3.82 C63.5 -1.16, 66.88 -0.02, 73.98 2.73 M73.25 3.41 C73.25 3.41, 73.25 3.41, 73.25 3.41 M73.25 3.41 C73.25 3.41, 73.25 3.41, 73.25 3.41" stroke="#1864ab" stroke-width="1" fill="none"></path></g></g><mask></mask><g transform="translate(818.4345298917335 284.23291015625) rotate(0 25.10520833333328 8.55859375)"><text x="0" y="12.117187499999943" font-family="Virgil, HanziPen SC, Kai, Segoe UI Emoji" font-size="13.32396556099922px" fill="#1864ab" text-anchor="start" style="white-space: pre;" direction="ltr">version1</text></g><g transform="translate(808.3492005955111 365.9308486553268) rotate(39.67421533770033 27.425017818969195 8.4886959915857)"><text x="0" y="11.977391983171408" font-family="Virgil, HanziPen SC, Kai, Segoe UI Emoji" font-size="13.134237246433257px" fill="#868e96" text-anchor="start" style="white-space: pre;" direction="ltr">version2</text></g><g transform="translate(304.5321861417335 306.11962890625) rotate(0 35.5 10)"><text x="0" y="14" font-family="Virgil, HanziPen SC, Kai, Segoe UI Emoji" font-size="16px" fill="#868e96" text-anchor="start" style="white-space: pre;" direction="ltr">gray tag</text></g></svg>