<svg version="1.1" xmlns="http://www.w3.org/2000/svg" viewBox="0 0 886.3825144026155 496.19921875" width="1772.765028805231" height="992.3984375">
  <!-- svg-source:excalidraw -->
  
  <defs>
    <style class="style-fonts">
      @font-face {
        font-family: "Virgil";
        src: url("https://excalidraw.com/Virgil.woff2");
      }
      @font-face {
        font-family: "Cascadia";
        src: url("https://excalidraw.com/Cascadia.woff2");
      }
    </style>
  </defs>
  <g stroke-linecap="round" transform="translate(10 10) rotate(0 433.19125720130774 238.099609375)"><path d="M566.63 10.68 C596.14 11.83, 623.99 24.11, 650.03 32.5 C676.07 40.89, 700.6 49.97, 722.89 61.03 C745.18 72.08, 766.09 85.38, 783.77 98.85 C801.44 112.33, 816.62 126.9, 828.92 141.88 C841.23 156.86, 851.38 172.85, 857.6 188.73 C863.82 204.61, 866.22 220.7, 866.25 237.18 C866.28 253.65, 863.87 271.22, 857.77 287.57 C851.67 303.92, 842.09 320.19, 829.65 335.28 C817.21 350.38, 800.85 364.88, 783.12 378.15 C765.39 391.42, 745.44 403.83, 723.26 414.91 C701.09 425.98, 676.2 436.24, 650.07 444.58 C623.94 452.92, 594.93 460.07, 566.49 464.96 C538.06 469.86, 509.23 472.45, 479.45 473.96 C449.67 475.46, 417.82 475.42, 387.82 473.99 C357.83 472.56, 327.91 470.27, 299.47 465.38 C271.02 460.49, 243.14 452.89, 217.17 444.64 C191.19 436.39, 165.91 426.8, 143.63 415.86 C121.35 404.91, 101.04 392.43, 83.5 378.95 C65.95 365.47, 50.81 350.07, 38.35 334.99 C25.89 319.91, 15.25 304.54, 8.74 288.46 C2.24 272.38, -0.71 255.06, -0.7 238.52 C-0.7 221.98, 2.45 205.51, 8.77 189.23 C15.1 172.96, 25 156.06, 37.23 140.87 C49.47 125.69, 64.43 111.37, 82.21 98.12 C99.98 84.86, 121.36 72.22, 143.89 61.33 C166.43 50.45, 191.38 41.03, 217.42 32.83 C243.45 24.62, 271.71 17.21, 300.09 12.11 C328.48 7.01, 358.09 4.07, 387.72 2.21 C417.36 0.35, 445.54 -1.06, 477.91 0.95 C510.29 2.96, 562.41 10.56, 581.97 14.25 C601.53 17.93, 597.7 19.25, 595.27 23.06 M438.31 1.01 C466.99 -2.76, 499.15 1.56, 528.33 4.82 C557.52 8.09, 586.09 13.71, 613.42 20.6 C640.75 27.49, 668.12 36.3, 692.32 46.18 C716.52 56.07, 738.69 67.46, 758.62 79.94 C778.55 92.41, 797.28 106.31, 811.92 121.01 C826.57 135.71, 837.58 152.15, 846.48 168.16 C855.38 184.17, 862.6 200.91, 865.32 217.06 C868.04 233.22, 866.25 248.83, 862.81 265.11 C859.38 281.39, 854.41 298.89, 844.73 314.76 C835.06 330.64, 820.47 346.08, 804.77 360.37 C789.07 374.66, 770.83 388.27, 750.51 400.5 C730.19 412.73, 707.28 424.49, 682.87 433.75 C658.45 443.01, 631.53 449.77, 604.02 456.08 C576.5 462.38, 547.02 468.46, 517.75 471.58 C488.48 474.7, 458.33 474.98, 428.37 474.77 C398.42 474.57, 367.5 473.58, 338.03 470.38 C308.56 467.17, 278.93 462.67, 251.57 455.52 C224.21 448.38, 197.68 437.44, 173.86 427.52 C150.04 417.6, 128.31 408.15, 108.67 396.02 C89.03 383.89, 70.79 369.3, 56.03 354.72 C41.26 340.15, 29.33 324.29, 20.08 308.55 C10.84 292.81, 3.3 276.59, 0.57 260.29 C-2.16 243.98, 0.18 227.39, 3.71 210.74 C7.24 194.09, 12.04 176.25, 21.72 160.37 C31.41 144.49, 46.49 129.24, 61.84 115.46 C77.19 101.67, 93.78 89.54, 113.83 77.69 C133.88 65.84, 157.36 54.15, 182.13 44.37 C206.9 34.6, 234.98 25.49, 262.44 19.04 C289.9 12.59, 317.34 8.62, 346.86 5.66 C376.39 2.7, 424.23 1.52, 439.59 1.29 C454.95 1.05, 439.05 0.61, 439.02 4.25" stroke="#000000" stroke-width="1" fill="none"></path></g><g transform="translate(283.4578044491045 77.77067703993373) rotate(0 147.87204531310977 18.64473614817473)"><text x="0" y="28.28947229634943" font-family="Virgil, HanziPen SC, Kai, Segoe UI Emoji" font-size="25.716877445758225px" fill="#000000" text-anchor="start" style="white-space: pre;" direction="ltr">命名空间（Namespace）</text></g><g stroke-linecap="round" transform="translate(133.08941380581075 158.18848345355565) rotate(0 314.04476308200486 148.37683948953529)"><path d="M451.47 15.46 C476.15 18.61, 498.9 28.19, 518.72 35.98 C538.54 43.78, 555.63 52.26, 570.38 62.23 C585.13 72.21, 598.02 84.14, 607.22 95.83 C616.41 107.51, 622.66 120.18, 625.54 132.33 C628.41 144.47, 628.03 156.45, 624.48 168.7 C620.94 180.94, 614.14 194.26, 604.29 205.79 C594.44 217.32, 581.01 227.99, 565.38 237.86 C549.75 247.73, 530.79 257.54, 510.51 265.01 C490.24 272.49, 467.42 277.84, 443.72 282.71 C420.01 287.57, 393.96 291.99, 368.27 294.19 C342.58 296.39, 315.45 296.95, 289.58 295.91 C263.7 294.87, 237.82 291.71, 213.03 287.93 C188.25 284.16, 162.71 279.89, 140.87 273.25 C119.03 266.62, 99.33 257.45, 82 248.14 C64.67 238.83, 48.97 228.32, 36.9 217.4 C24.82 206.48, 15.62 194.62, 9.53 182.62 C3.43 170.63, -0.13 157.59, 0.32 145.42 C0.76 133.25, 5.29 121.44, 12.19 109.62 C19.09 97.79, 28.87 85.26, 41.72 74.46 C54.56 63.66, 71.17 53.5, 89.28 44.81 C107.39 36.13, 128.27 28.85, 150.39 22.35 C172.5 15.85, 197.07 9.5, 221.98 5.81 C246.89 2.12, 274.01 0.66, 299.86 0.23 C325.71 -0.2, 349.2 0.22, 377.11 3.22 C405.02 6.23, 450.15 14.51, 467.32 18.25 C484.49 21.98, 482.6 23.25, 480.14 25.62 M383.19 4.25 C408.32 4.78, 435.05 12.08, 458.25 17.43 C481.46 22.78, 502.84 28.6, 522.43 36.36 C542.01 44.13, 561.34 53.37, 575.77 64.01 C590.21 74.65, 600.77 88.45, 609.03 100.21 C617.3 111.96, 622.79 122.28, 625.36 134.51 C627.92 146.75, 628.15 161.5, 624.44 173.6 C620.74 185.69, 613.81 195.85, 603.15 207.08 C592.48 218.3, 576.49 231.06, 560.45 240.95 C544.41 250.84, 527.57 259.19, 506.92 266.41 C486.27 273.63, 460.53 279.55, 436.55 284.27 C412.57 288.99, 388.71 292.99, 363.06 294.74 C337.4 296.5, 308.61 295.77, 282.63 294.8 C256.64 293.82, 231.6 292.81, 207.14 288.89 C182.68 284.96, 157.61 278.47, 135.86 271.24 C114.12 264.01, 93.85 254.72, 76.68 245.51 C59.5 236.31, 44.56 226.88, 32.79 215.99 C21.03 205.1, 11.73 192.19, 6.07 180.2 C0.41 168.21, -2.54 156.52, -1.18 144.05 C0.19 131.59, 6.82 117.38, 14.25 105.4 C21.69 93.42, 30.33 82.58, 43.44 72.16 C56.54 61.73, 74.01 51.26, 92.88 42.87 C111.75 34.49, 133.95 28.03, 156.66 21.84 C179.37 15.64, 204.55 9.57, 229.14 5.7 C253.74 1.83, 278.23 -1.25, 304.25 -1.39 C330.26 -1.52, 372.32 3.43, 385.22 4.9 C398.12 6.37, 383 5.37, 381.65 7.44" stroke="#000000" stroke-width="1" fill="none"></path></g><g transform="translate(350.9595849165937 184.92915607497338) rotate(0 90.65199299629774 18.6447361481747)"><text x="0" y="28.28947229634943" font-family="Virgil, HanziPen SC, Kai, Segoe UI Emoji" font-size="25.716877445758225px" fill="#000000" text-anchor="start" style="white-space: pre;" direction="ltr">分组（Group）</text></g><g stroke-linecap="round" transform="translate(216.5703125 248.3203125) rotate(0 235.48046875 99.568359375)"><path d="M340.89 10.56 C361.48 13.18, 380.96 20.18, 397.19 26.57 C413.43 32.96, 427.16 40.83, 438.31 48.91 C449.46 56.98, 458.57 65.96, 464.1 75.03 C469.62 84.09, 472.5 93.92, 471.46 103.31 C470.42 112.7, 465.15 122.35, 457.84 131.36 C450.54 140.38, 440.38 149.87, 427.64 157.41 C414.91 164.94, 398.69 170.76, 381.45 176.55 C364.21 182.35, 344.41 188.57, 324.21 192.18 C304.01 195.79, 282.07 197.18, 260.25 198.19 C238.43 199.21, 215.1 199.96, 193.26 198.29 C171.42 196.62, 149.04 192.43, 129.2 188.15 C109.36 183.87, 90.49 179.02, 74.21 172.61 C57.93 166.2, 42.65 157.84, 31.53 149.71 C20.4 141.57, 12.64 132.83, 7.47 123.8 C2.31 114.76, -0.14 105.02, 0.54 95.51 C1.22 86, 4.47 75.56, 11.54 66.76 C18.6 57.96, 29.98 50.38, 42.92 42.71 C55.86 35.04, 71.93 26.78, 89.18 20.74 C106.44 14.71, 126.13 9.81, 146.45 6.47 C166.76 3.13, 188.9 1.53, 211.05 0.72 C233.19 -0.09, 254.94 -0.79, 279.31 1.63 C303.67 4.04, 342.25 12.34, 357.24 15.23 C372.23 18.11, 371.43 17.58, 369.24 18.94 M163.19 3.82 C182.21 -0.65, 208.41 -0.48, 230.4 -0.8 C252.4 -1.13, 273.78 -0.7, 295.16 1.87 C316.54 4.44, 339.87 9.58, 358.68 14.6 C377.49 19.63, 393.35 25.08, 408.04 32.01 C422.73 38.93, 436.96 47.53, 446.82 56.14 C456.67 64.74, 463.58 74.25, 467.15 83.62 C470.72 92.99, 470.73 103.34, 468.24 112.33 C465.75 121.32, 460.52 129.33, 452.2 137.57 C443.88 145.82, 432.41 154.43, 418.33 161.79 C404.24 169.16, 385.89 176.19, 367.69 181.77 C349.5 187.35, 329.98 192.21, 309.17 195.29 C288.37 198.38, 265.24 200.26, 242.85 200.29 C220.46 200.31, 196.55 197.95, 174.85 195.44 C153.15 192.93, 131.48 190.23, 112.65 185.22 C93.82 180.21, 76.55 172.44, 61.88 165.39 C47.2 158.35, 34.54 151.26, 24.61 142.95 C14.69 134.63, 6.37 124.64, 2.33 115.51 C-1.72 106.38, -2.43 97.12, 0.33 88.18 C3.1 79.25, 10.3 70.73, 18.91 61.91 C27.51 53.09, 38.05 42.79, 51.99 35.29 C65.93 27.79, 83.96 21.76, 102.55 16.91 C121.14 12.07, 153 7.94, 163.55 6.22 C174.1 4.5, 164.94 5.32, 165.88 6.58" stroke="#000000" stroke-width="1" fill="none"></path></g><g transform="translate(301.4921875 351.45703125) rotate(0 150 12.5)"><text x="0" y="18" font-family="Virgil, HanziPen SC, Kai, Segoe UI Emoji" font-size="20px" fill="#000000" text-anchor="start" style="white-space: pre;" direction="ltr">ServiceName/DataId/McpName</text></g><g transform="translate(423.87890625 297.22265625) rotate(0 21.5 14.5)"><text x="0" y="21" font-family="Virgil, HanziPen SC, Kai, Segoe UI Emoji" font-size="20px" fill="#000000" text-anchor="start" style="white-space: pre;" direction="ltr">资源</text></g></svg>