<svg version="1.1" xmlns="http://www.w3.org/2000/svg" viewBox="0 0 1441.953125 699.22265625" width="2883.90625" height="1398.4453125">
  <!-- svg-source:excalidraw -->
  
  <defs>
    <style class="style-fonts">
      @font-face {
        font-family: "Virgil";
        src: url("https://excalidraw.com/Virgil.woff2");
      }
      @font-face {
        font-family: "Cascadia";
        src: url("https://excalidraw.com/Cascadia.woff2");
      }
    </style>
  </defs>
  <g stroke-linecap="round" transform="translate(64.82421875 170.9140625) rotate(0 268.080078125 206.54296875)"><path d="M32 0 M32 0 C181.12 1.4, 329.24 1.36, 504.16 0 M504.16 0 C523.96 0.89, 536.22 8.75, 536.16 32 M536.16 32 C536.89 103.69, 536.98 174.58, 536.16 381.09 M536.16 381.09 C534.93 401.28, 527.13 413.28, 504.16 413.09 M504.16 413.09 C318.31 415.47, 131.91 414.72, 32 413.09 M32 413.09 C10.87 411.42, -0.08 400.6, 0 381.09 M0 381.09 C-0.02 265.01, -0.76 148.77, 0 32 M0 32 C1.94 11.32, 11.53 -0.1, 32 0" stroke="#000000" stroke-width="1.5" fill="none" stroke-dasharray="8 9"></path></g><g transform="translate(529.53125 547.07421875) rotate(0 23 10)"><text x="0" y="14" font-family="Virgil, HanziPen SC, Kai, Segoe UI Emoji" font-size="16px" fill="#000000" text-anchor="start" style="white-space: pre;" direction="ltr">K8S 1</text></g><g stroke-linecap="round" transform="translate(130.1953125 296.98828125) rotate(0 77.126953125 116.78125)"><path d="M32 0 M32 0 C55.35 1.34, 80.58 1.82, 122.25 0 M122.25 0 C142.93 0.95, 154.42 11.18, 154.25 32 M154.25 32 C153.12 83.03, 154.72 132.37, 154.25 201.56 M154.25 201.56 C153.46 224.81, 145.23 234.49, 122.25 233.56 M122.25 233.56 C87.24 232.46, 54.08 233.64, 32 233.56 M32 233.56 C10.76 232.78, -1.33 222.01, 0 201.56 M0 201.56 C-1.88 142.87, 0.63 86.95, 0 32 M0 32 C-0.01 10.8, 11.25 -1.81, 32 0" stroke="#5f3dc4" stroke-width="1.5" fill="none" stroke-dasharray="1.5 7"></path></g><g transform="translate(198.30078125 499.5234375) rotate(0 34 10)"><text x="0" y="14" font-family="Virgil, HanziPen SC, Kai, Segoe UI Emoji" font-size="16px" fill="#5f3dc4" text-anchor="start" style="white-space: pre;" direction="ltr">Service 1</text></g><g stroke-linecap="round" transform="translate(157.59765625 332.25) rotate(0 49.017578125 22.783203125)"><path d="M11.64 -1.51 L85.12 -0.97 L92.56 2.55 L99.31 7.61 L97.5 36.15 L97.25 40.51 L93.51 42.01 L84.83 45.7 L11.75 46.38 L3.42 45.79 L-1.2 37.96 L0.6 7.15 L1.19 3.83 L10.97 1.06" stroke="none" stroke-width="0" fill="#228be6"></path><path d="M11.39 0 M11.39 0 C35.64 1.29, 63.32 -2.2, 86.64 0 M11.39 0 C28.99 -0.22, 47.64 0.84, 86.64 0 M86.64 0 C94.01 -0.19, 99.26 3.71, 98.04 11.39 M86.64 0 C95.02 1.09, 97.71 1.8, 98.04 11.39 M98.04 11.39 C97.64 18.55, 97.76 28.81, 98.04 34.17 M98.04 11.39 C97.81 18.05, 98.6 23.37, 98.04 34.17 M98.04 34.17 C99.36 42.79, 92.45 44.14, 86.64 45.57 M98.04 34.17 C97.98 43.61, 94.08 46.88, 86.64 45.57 M86.64 45.57 C59.63 46.1, 32.75 46.84, 11.39 45.57 M86.64 45.57 C60.16 45.89, 33.08 45.29, 11.39 45.57 M11.39 45.57 C4.28 45.68, -1.25 43.31, 0 34.17 M11.39 45.57 C4.72 46.41, 1.23 42.96, 0 34.17 M0 34.17 C1.87 27.07, 1.03 19.25, 0 11.39 M0 34.17 C-0.15 29.54, -0.88 26.01, 0 11.39 M0 11.39 C-2 4, 3.92 -0.64, 11.39 0 M0 11.39 C0.18 2.84, 2.69 -0.11, 11.39 0" stroke="#1864ab" stroke-width="1" fill="none"></path></g><g transform="translate(191.115234375 345.033203125) rotate(0 15.5 10)"><text x="15.5" y="14" font-family="Virgil, HanziPen SC, Kai, Segoe UI Emoji" font-size="16px" fill="#fff" text-anchor="middle" style="white-space: pre;" direction="ltr">Pod</text></g><g stroke-linecap="round" transform="translate(160.302734375 421.533203125) rotate(0 49.017578125 22.783203125)"><path d="M13.2 -0.62 L88.61 1.96 L94.49 3.2 L95.93 8.28 L96.4 34.54 L98.18 41.27 L94.48 43.01 L85.43 47.08 L9.78 46.37 L4.65 43.2 L0.13 37.48 L-1.65 7.42 L4.7 4.19 L9.46 -0.89" stroke="none" stroke-width="0" fill="#228be6"></path><path d="M11.39 0 M11.39 0 C33.83 0.32, 52.9 -0.36, 86.64 0 M11.39 0 C36.93 -0.05, 60.64 -1.55, 86.64 0 M86.64 0 C96.15 1.83, 99.41 2.6, 98.04 11.39 M86.64 0 C96.06 -1.69, 99.96 4.99, 98.04 11.39 M98.04 11.39 C96.69 18.52, 96.77 24.53, 98.04 34.17 M98.04 11.39 C96.99 18.77, 96.94 26.01, 98.04 34.17 M98.04 34.17 C98.04 39.99, 96.13 46.39, 86.64 45.57 M98.04 34.17 C97.65 41.39, 95.57 47.49, 86.64 45.57 M86.64 45.57 C64.77 46.98, 42.73 46.91, 11.39 45.57 M86.64 45.57 C62.79 46.65, 36.69 45.01, 11.39 45.57 M11.39 45.57 C2.22 47.37, 0.7 42.81, 0 34.17 M11.39 45.57 C4.66 46.1, -0.35 40.89, 0 34.17 M0 34.17 C0.66 30.56, -0.08 26.8, 0 11.39 M0 34.17 C0.68 27.69, 0.24 18.43, 0 11.39 M0 11.39 C0.14 3.34, 4.99 1.04, 11.39 0 M0 11.39 C-0.59 4.11, 1.62 -2.29, 11.39 0" stroke="#1864ab" stroke-width="1" fill="none"></path></g><g transform="translate(193.8203125 434.31640625) rotate(0 15.5 10)"><text x="15.5" y="14" font-family="Virgil, HanziPen SC, Kai, Segoe UI Emoji" font-size="16px" fill="#fff" text-anchor="middle" style="white-space: pre;" direction="ltr">Pod</text></g><g transform="translate(196.5078125 389.5546875) rotate(0 12 10)"><text x="0" y="14" font-family="Virgil, HanziPen SC, Kai, Segoe UI Emoji" font-size="16px" fill="#000000" text-anchor="start" style="white-space: pre;" direction="ltr">……</text></g><g stroke-linecap="round" transform="translate(342.462890625 296.7109375) rotate(0 77.126953125 116.78125)"><path d="M32 0 M32 0 C61.24 -0.24, 89.53 -1.46, 122.25 0 M122.25 0 C143.9 0.16, 152.38 10.93, 154.25 32 M154.25 32 C154.86 82.41, 153.87 131.67, 154.25 201.56 M154.25 201.56 C155.35 224.28, 142.72 233.35, 122.25 233.56 M122.25 233.56 C99.7 234.76, 77.28 232.7, 32 233.56 M32 233.56 C11.59 233.63, 1.32 224.58, 0 201.56 M0 201.56 C-0.35 143.62, -1.64 88.35, 0 32 M0 32 C-1.25 11.77, 11.85 -0.09, 32 0" stroke="#5f3dc4" stroke-width="1.5" fill="none" stroke-dasharray="1.5 7"></path></g><g transform="translate(410.568359375 499.24609375) rotate(0 37.5 10)"><text x="0" y="14" font-family="Virgil, HanziPen SC, Kai, Segoe UI Emoji" font-size="16px" fill="#5f3dc4" text-anchor="start" style="white-space: pre;" direction="ltr">Service 2</text></g><g stroke-linecap="round" transform="translate(369.865234375 331.97265625) rotate(0 49.017578125 22.783203125)"><path d="M13.33 -0.24 L87.28 -1.43 L93 1.91 L98.01 6.84 L98.29 34.16 L97.4 39.45 L93.37 43.62 L85.43 43.74 L12.48 46.95 L3.59 43.75 L-0.71 37.26 L1.51 9.25 L3.44 4.04 L9.93 0.92" stroke="none" stroke-width="0" fill="#228be6"></path><path d="M11.39 0 M11.39 0 C34.89 -0.73, 56.66 -1.07, 86.64 0 M11.39 0 C28.49 0.52, 47.43 -0.08, 86.64 0 M86.64 0 C93.87 1.13, 96.44 5.25, 98.04 11.39 M86.64 0 C94.71 -0.85, 97.54 4.11, 98.04 11.39 M98.04 11.39 C99.07 19.09, 97.58 26.83, 98.04 34.17 M98.04 11.39 C97.96 21.38, 97.05 30.36, 98.04 34.17 M98.04 34.17 C99.3 42.93, 93.23 46.49, 86.64 45.57 M98.04 34.17 C97.73 43.33, 93.12 45.53, 86.64 45.57 M86.64 45.57 C66.16 48, 42.77 44.1, 11.39 45.57 M86.64 45.57 C64.73 45.52, 42.66 44.89, 11.39 45.57 M11.39 45.57 C4.06 47.47, 0.36 41.03, 0 34.17 M11.39 45.57 C3.77 47.35, 1.86 40.34, 0 34.17 M0 34.17 C-1.3 28.4, -0.45 23.08, 0 11.39 M0 34.17 C1.1 28, -0.3 22.84, 0 11.39 M0 11.39 C0.05 2.67, 5.14 -1.5, 11.39 0 M0 11.39 C-1.75 3.02, 1.89 0.43, 11.39 0" stroke="#1864ab" stroke-width="1" fill="none"></path></g><g transform="translate(403.3828125 344.755859375) rotate(0 15.5 10)"><text x="15.5" y="14" font-family="Virgil, HanziPen SC, Kai, Segoe UI Emoji" font-size="16px" fill="#fff" text-anchor="middle" style="white-space: pre;" direction="ltr">Pod</text></g><g stroke-linecap="round" transform="translate(372.5703125 421.255859375) rotate(0 49.017578125 22.783203125)"><path d="M12.03 -1.43 L86.06 0.31 L93.74 -0.28 L98.12 8.71 L99.01 32.51 L96.21 40.78 L92.38 42.13 L87.73 46.95 L10.53 45.35 L3.57 44.38 L1.51 37.38 L0.77 9.91 L1.38 3.77 L11.46 1.32" stroke="none" stroke-width="0" fill="#228be6"></path><path d="M11.39 0 M11.39 0 C39.94 -0.4, 67.96 -1.68, 86.64 0 M11.39 0 C34.89 -0.46, 57.03 0.15, 86.64 0 M86.64 0 C92.64 1.45, 98.45 3.06, 98.04 11.39 M86.64 0 C93.74 0.32, 99.33 2.82, 98.04 11.39 M98.04 11.39 C97.81 15.26, 100.11 20.15, 98.04 34.17 M98.04 11.39 C97.11 17.67, 98.67 22.82, 98.04 34.17 M98.04 34.17 C97.02 42.7, 93.97 46.92, 86.64 45.57 M98.04 34.17 C96.92 41.74, 94.1 46.87, 86.64 45.57 M86.64 45.57 C60.05 44.41, 32.62 44.51, 11.39 45.57 M86.64 45.57 C63.94 44.8, 40.97 46.46, 11.39 45.57 M11.39 45.57 C4.16 44.83, -0.03 43.32, 0 34.17 M11.39 45.57 C5.66 44.13, -0.65 43.53, 0 34.17 M0 34.17 C-0.15 29.15, -1.26 20.06, 0 11.39 M0 34.17 C-0.68 25.1, -0.19 17.12, 0 11.39 M0 11.39 C1.34 2.3, 2.27 -0.68, 11.39 0 M0 11.39 C-1.91 4.23, 3.29 -0.85, 11.39 0" stroke="#1864ab" stroke-width="1" fill="none"></path></g><g transform="translate(406.087890625 434.0390625) rotate(0 15.5 10)"><text x="15.5" y="14" font-family="Virgil, HanziPen SC, Kai, Segoe UI Emoji" font-size="16px" fill="#fff" text-anchor="middle" style="white-space: pre;" direction="ltr">Pod</text></g><g transform="translate(408.775390625 389.27734375) rotate(0 12 10)"><text x="0" y="14" font-family="Virgil, HanziPen SC, Kai, Segoe UI Emoji" font-size="16px" fill="#000000" text-anchor="start" style="white-space: pre;" direction="ltr">……</text></g><g stroke-linecap="round" transform="translate(394.75390625 195.2265625) rotate(0 61.923828125 36.345703125)"><path d="M17.68 0.02 L105.97 -0.78 L118.47 2.15 L121.74 8.92 L122.91 14.98 L124.98 53.89 L123.22 63.6 L117.72 71.97 L103.85 72.44 L17.95 73.67 L7.08 69.63 L1.11 63.97 L-1.27 56.99 L-0.25 15.34 L4.39 5.25 L12.13 0.47 L19.83 -0.41" stroke="none" stroke-width="0" fill="#82c91e"></path><path d="M18.17 0 M18.17 0 C36.84 -1.45, 58.53 0.04, 105.67 0 M18.17 0 C44.58 0.32, 70.98 -1.09, 105.67 0 M105.67 0 C119.56 0.72, 121.91 6.87, 123.85 18.17 M105.67 0 C116.79 0.2, 122.62 4.55, 123.85 18.17 M123.85 18.17 C122.42 28.25, 122.57 42.94, 123.85 54.52 M123.85 18.17 C123.79 30.26, 123.36 40.75, 123.85 54.52 M123.85 54.52 C124.69 67.46, 117.12 71.23, 105.67 72.69 M123.85 54.52 C121.76 66.79, 120 73.27, 105.67 72.69 M105.67 72.69 C87.14 71.83, 69.08 74.17, 18.17 72.69 M105.67 72.69 C71.01 73.13, 36 72.93, 18.17 72.69 M18.17 72.69 C5.48 72.99, -1.93 66.47, 0 54.52 M18.17 72.69 C6.07 72.34, 1.11 65.66, 0 54.52 M0 54.52 C0.76 39.75, -2.15 27.44, 0 18.17 M0 54.52 C-0.57 42.15, 0.68 30.18, 0 18.17 M0 18.17 C-1.35 5.03, 4.73 -1.69, 18.17 0 M0 18.17 C-0.96 7.64, 5.67 1.37, 18.17 0" stroke="#5c940d" stroke-width="1" fill="none"></path></g><g transform="translate(418.177734375 211.572265625) rotate(0 38.5 20)"><text x="38.5" y="14" font-family="Virgil, HanziPen SC, Kai, Segoe UI Emoji" font-size="16px" fill="#fff" text-anchor="middle" style="white-space: pre;" direction="ltr">Nacos</text><text x="38.5" y="34" font-family="Virgil, HanziPen SC, Kai, Segoe UI Emoji" font-size="16px" fill="#fff" text-anchor="middle" style="white-space: pre;" direction="ltr">Controller</text></g><g stroke-linecap="round" transform="translate(587.3720703125 42.5673828125) rotate(0 137 25)"><path d="M11.15 1.81 L263.97 0.1 L272.81 3.77 L273.7 6.94 L274.46 41.89 L271.26 48.16 L261.18 49.98 L7.81 48.94 L5.96 49.94 L0.96 43.35 L0.09 14.47 L2.68 2.89 L13.65 1.92" stroke="none" stroke-width="0" fill="#15aabf"></path><path d="M12.5 0 M12.5 0 C98.77 -1.99, 183.35 -1.02, 261.5 0 M12.5 0 C68.36 0.1, 125.94 0.24, 261.5 0 M261.5 0 C269.99 0.91, 274.02 3.61, 274 12.5 M261.5 0 C269.32 -0.13, 272.46 2.61, 274 12.5 M274 12.5 C275.83 20.57, 275.44 27.88, 274 37.5 M274 12.5 C274.72 18.68, 273.19 24.2, 274 37.5 M274 37.5 C272.29 45.2, 271.06 49.74, 261.5 50 M274 37.5 C275.81 47.34, 271.16 47.81, 261.5 50 M261.5 50 C198.62 52.1, 135.83 51.43, 12.5 50 M261.5 50 C188.91 47.67, 115.51 47.77, 12.5 50 M12.5 50 C4.58 49.48, 1.6 45.45, 0 37.5 M12.5 50 C2.32 51.08, -0.92 46.37, 0 37.5 M0 37.5 C0.82 32.16, -0.91 23.98, 0 12.5 M0 37.5 C-0.64 30.57, 0.85 24.98, 0 12.5 M0 12.5 C-1.1 4.33, 5.31 1.39, 12.5 0 M0 12.5 C0.66 3.74, 5.05 0.31, 12.5 0" stroke="#0b7285" stroke-width="1" fill="none"></path></g><g transform="translate(699.8720703125 57.5673828125) rotate(0 24.5 10)"><text x="24.5" y="14" font-family="Virgil, HanziPen SC, Kai, Segoe UI Emoji" font-size="16px" fill="#fff" text-anchor="middle" style="white-space: pre;" direction="ltr">Nacos</text></g><g stroke-linecap="round"><g transform="translate(512.716796875 362.3268869688561) rotate(0 64.2667003350465 -128.6449734770373)"><path d="M0.68 -0.33 C22.37 -42.94, 107.64 -212.54, 128.95 -255.04 M-0.42 -1.56 C21.19 -44.59, 105.91 -214.9, 127.82 -256.96" stroke="#e67700" stroke-width="1" fill="none"></path></g><g transform="translate(512.716796875 362.3268869688561) rotate(0 64.2667003350465 -128.6449734770373)"><path d="M123.66 -227.73 C125.44 -234.39, 125.73 -238.17, 126.31 -255.53 M124.35 -227.16 C125.63 -237.22, 126.75 -246.97, 127.39 -256.9" stroke="#e67700" stroke-width="1" fill="none"></path></g><g transform="translate(512.716796875 362.3268869688561) rotate(0 64.2667003350465 -128.6449734770373)"><path d="M105.36 -237.02 C110.86 -241.92, 114.82 -243.83, 126.31 -255.53 M106.05 -236.45 C113.62 -243.15, 121.09 -249.68, 127.39 -256.9" stroke="#e67700" stroke-width="1" fill="none"></path></g></g><mask></mask><g transform="translate(372.1875 539.48046875) rotate(0 47 20)"><text x="0" y="14" font-family="Virgil, HanziPen SC, Kai, Segoe UI Emoji" font-size="16px" fill="#5f3dc4" text-anchor="start" style="white-space: pre;" direction="ltr">Spring Cloud</text><text x="0" y="34" font-family="Virgil, HanziPen SC, Kai, Segoe UI Emoji" font-size="16px" fill="#5f3dc4" text-anchor="start" style="white-space: pre;" direction="ltr">Dubbo/……</text></g><g transform="translate(140.14453125 535.26953125) rotate(0 73.5 23)"><text x="0" y="17" font-family="Virgil, HanziPen SC, Kai, Segoe UI Emoji" font-size="16px" fill="#5f3dc4" text-anchor="start" style="white-space: pre;" direction="ltr">多语言程序或</text><text x="0" y="40" font-family="Virgil, HanziPen SC, Kai, Segoe UI Emoji" font-size="16px" fill="#5f3dc4" text-anchor="start" style="white-space: pre;" direction="ltr">不依赖Nacos的应用</text></g><g stroke-linecap="round"><g transform="translate(253.08709697609459 286.2876190387517) rotate(0 64.3442163228832 -19.840549030936785)"><path d="M-1.01 -1.11 C20.47 -7.7, 107.84 -34.04, 129.7 -40.6 M0.66 0.92 C21.89 -5.43, 107.19 -32.69, 128.67 -39.4" stroke="#e67700" stroke-width="1" fill="none"></path></g><g transform="translate(253.08709697609459 286.2876190387517) rotate(0 64.3442163228832 -19.840549030936785)"><path d="M103.03 -21.38 C112.75 -27.19, 121.81 -34.19, 128.19 -38.29 M105.21 -21.92 C109.61 -25.72, 115.41 -29.75, 128.87 -39.51" stroke="#e67700" stroke-width="1" fill="none"></path></g><g transform="translate(253.08709697609459 286.2876190387517) rotate(0 64.3442163228832 -19.840549030936785)"><path d="M96.84 -40.95 C108.67 -39.47, 120.02 -39.24, 128.19 -38.29 M99.02 -41.48 C105.01 -40.6, 112.28 -40, 128.87 -39.51" stroke="#e67700" stroke-width="1" fill="none"></path></g></g><mask></mask><g stroke-linecap="round"><g transform="translate(505.46638212725634 183.72334961013405) rotate(0 46.92344807723799 -39.4879088673884)"><path d="M0.05 0.85 C15.97 -12.42, 79.58 -66.56, 95.23 -79.83 M-1.39 0.25 C14.49 -12.79, 79.09 -64.82, 94.84 -78.29" stroke="#e67700" stroke-width="1" fill="none"></path></g><g transform="translate(505.46638212725634 183.72334961013405) rotate(0 46.92344807723799 -39.4879088673884)"><path d="M81.06 -50.66 C83.89 -59.92, 89.88 -68.28, 94.73 -77.49 M79.25 -51.55 C85 -60.38, 87.58 -67.56, 94.22 -78.97" stroke="#e67700" stroke-width="1" fill="none"></path></g><g transform="translate(505.46638212725634 183.72334961013405) rotate(0 46.92344807723799 -39.4879088673884)"><path d="M67.99 -66.48 C74.4 -71.38, 83.99 -75.37, 94.73 -77.49 M66.18 -67.36 C75.66 -71.71, 81.99 -74.35, 94.22 -78.97" stroke="#e67700" stroke-width="1" fill="none"></path></g></g><mask></mask><g transform="translate(246.46484375 205.9132713607595) rotate(0 59 16.5)"><text x="0" y="12.5" font-family="Virgil, HanziPen SC, Kai, Segoe UI Emoji" font-size="11.462816455696206px" fill="#e67700" text-anchor="start" style="white-space: pre;" direction="ltr">通过Nacos Controller</text><text x="0" y="29" font-family="Virgil, HanziPen SC, Kai, Segoe UI Emoji" font-size="11.462816455696206px" fill="#e67700" text-anchor="start" style="white-space: pre;" direction="ltr">注册到Nacos中</text></g><g transform="translate(537.94140625 201.53990308544303) rotate(0 59.5 16.5)"><text x="0" y="12.5" font-family="Virgil, HanziPen SC, Kai, Segoe UI Emoji" font-size="11.473101265822798px" fill="#e67700" text-anchor="start" style="white-space: pre;" direction="ltr">通过应用框架或客户端</text><text x="0" y="29" font-family="Virgil, HanziPen SC, Kai, Segoe UI Emoji" font-size="11.473101265822798px" fill="#e67700" text-anchor="start" style="white-space: pre;" direction="ltr">直接注册到Nacos中</text></g><g stroke-linecap="round" transform="translate(806.107421875 169.9853515625) rotate(0 268.080078125 206.54296875)"><path d="M32 0 M32 0 C204.14 -0.88, 374.1 0, 504.16 0 M504.16 0 C524.49 -1.15, 537.04 10.71, 536.16 32 M536.16 32 C534.88 116.9, 536.15 202.59, 536.16 381.09 M536.16 381.09 C536.91 402.37, 524.51 412.67, 504.16 413.09 M504.16 413.09 C391.45 413.22, 278.94 411.96, 32 413.09 M32 413.09 C11.55 414.6, -1.81 403.91, 0 381.09 M0 381.09 C1.24 242.86, 1.65 102.85, 0 32 M0 32 C-1.26 10.77, 11.19 -0.68, 32 0" stroke="#000000" stroke-width="1.5" fill="none" stroke-dasharray="8 9"></path></g><g transform="translate(851.205078125 549.7080078125) rotate(0 26.5 10)"><text x="0" y="14" font-family="Virgil, HanziPen SC, Kai, Segoe UI Emoji" font-size="16px" fill="#000000" text-anchor="start" style="white-space: pre;" direction="ltr">K8S 2</text></g><g stroke-linecap="round" transform="translate(964.939453125 291.9384765625) rotate(0 77.126953125 116.78125)"><path d="M32 0 M32 0 C58.56 1.28, 87.92 -0.59, 122.25 0 M122.25 0 C144.47 0.04, 153.16 9.65, 154.25 32 M154.25 32 C155.86 74.14, 154.85 118.71, 154.25 201.56 M154.25 201.56 C153.27 222.48, 142.35 233.18, 122.25 233.56 M122.25 233.56 C95.13 232.08, 71.37 235.5, 32 233.56 M32 233.56 C8.86 235.05, 1.97 220.91, 0 201.56 M0 201.56 C0.39 163.49, 0.06 125.25, 0 32 M0 32 C0.52 9.99, 11.96 0.62, 32 0" stroke="#5f3dc4" stroke-width="1.5" fill="none" stroke-dasharray="1.5 7"></path></g><g transform="translate(1033.044921875 494.4736328125) rotate(0 37.5 10)"><text x="0" y="14" font-family="Virgil, HanziPen SC, Kai, Segoe UI Emoji" font-size="16px" fill="#5f3dc4" text-anchor="start" style="white-space: pre;" direction="ltr">Service 3</text></g><g stroke-linecap="round" transform="translate(992.341796875 327.2001953125) rotate(0 49.017578125 22.783203125)"><path d="M10.15 -1.9 L87.36 -1 L92.44 2.48 L97.9 7.63 L97.02 33.29 L96.25 39.89 L95.35 42.72 L87.4 45.52 L10.41 45.15 L3.21 43.58 L-0.09 36 L1.1 7.49 L0.95 3.73 L12.91 -1.81" stroke="none" stroke-width="0" fill="#228be6"></path><path d="M11.39 0 M11.39 0 C38.07 -0.8, 69.16 -0.18, 86.64 0 M11.39 0 C34.74 -0.38, 58.22 0.27, 86.64 0 M86.64 0 C95.64 0.1, 96.27 3.25, 98.04 11.39 M86.64 0 C94.14 -1.9, 96.73 2.48, 98.04 11.39 M98.04 11.39 C97.14 18.56, 99.99 26.79, 98.04 34.17 M98.04 11.39 C98.86 19.15, 97.08 28.86, 98.04 34.17 M98.04 34.17 C96.11 40.79, 96 47.18, 86.64 45.57 M98.04 34.17 C96.16 40.35, 93.26 44.71, 86.64 45.57 M86.64 45.57 C67.37 43.23, 49.75 46, 11.39 45.57 M86.64 45.57 C69.01 46.46, 50.92 45.41, 11.39 45.57 M11.39 45.57 C5.59 46.58, 1.46 41.29, 0 34.17 M11.39 45.57 C4.05 46.33, 0.88 43.32, 0 34.17 M0 34.17 C0.18 27.2, 0.76 21.89, 0 11.39 M0 34.17 C-0.28 28.72, -0.36 24.46, 0 11.39 M0 11.39 C-0.25 3.56, 1.83 -1.64, 11.39 0 M0 11.39 C-1.64 3.67, 3.95 -1.44, 11.39 0" stroke="#1864ab" stroke-width="1" fill="none"></path></g><g transform="translate(1025.859375 339.9833984375) rotate(0 15.5 10)"><text x="15.5" y="14" font-family="Virgil, HanziPen SC, Kai, Segoe UI Emoji" font-size="16px" fill="#fff" text-anchor="middle" style="white-space: pre;" direction="ltr">Pod</text></g><g stroke-linecap="round" transform="translate(995.046875 416.4833984375) rotate(0 49.017578125 22.783203125)"><path d="M12.11 -1 L85.5 0.88 L93.63 0.51 L96.84 7.84 L97.85 32.95 L98.2 39.88 L94.34 43.92 L85.66 45.15 L10.15 45.19 L4.19 43.12 L1.1 35.61 L-1.72 9.61 L4.37 1.04 L12.88 1.97" stroke="none" stroke-width="0" fill="#228be6"></path><path d="M11.39 0 M11.39 0 C27.95 -0.34, 41.77 -0.67, 86.64 0 M11.39 0 C35.01 0.57, 58.03 0.31, 86.64 0 M86.64 0 C92.47 -0.55, 97.95 2.15, 98.04 11.39 M86.64 0 C92.93 -1.32, 99.73 5.8, 98.04 11.39 M98.04 11.39 C99.66 18.52, 99.43 28.16, 98.04 34.17 M98.04 11.39 C97.37 20.49, 97.28 28.43, 98.04 34.17 M98.04 34.17 C99.8 43.38, 92.61 44.33, 86.64 45.57 M98.04 34.17 C97.06 40.91, 93.27 44.13, 86.64 45.57 M86.64 45.57 C70.03 45.68, 48.16 46.72, 11.39 45.57 M86.64 45.57 C59.16 45.35, 33.95 46.43, 11.39 45.57 M11.39 45.57 C5.25 45.09, 0.22 42.43, 0 34.17 M11.39 45.57 C4.68 47.12, -0.58 43.48, 0 34.17 M0 34.17 C0.89 27.45, -1.69 18.66, 0 11.39 M0 34.17 C-0.43 27.29, -0.02 19.88, 0 11.39 M0 11.39 C-1.97 2.16, 2.37 -0.11, 11.39 0 M0 11.39 C0.16 2.36, 5 0.54, 11.39 0" stroke="#1864ab" stroke-width="1" fill="none"></path></g><g transform="translate(1028.564453125 429.2666015625) rotate(0 15.5 10)"><text x="15.5" y="14" font-family="Virgil, HanziPen SC, Kai, Segoe UI Emoji" font-size="16px" fill="#fff" text-anchor="middle" style="white-space: pre;" direction="ltr">Pod</text></g><g transform="translate(1031.251953125 384.5048828125) rotate(0 12 10)"><text x="0" y="14" font-family="Virgil, HanziPen SC, Kai, Segoe UI Emoji" font-size="16px" fill="#000000" text-anchor="start" style="white-space: pre;" direction="ltr">……</text></g><g stroke-linecap="round" transform="translate(1177.4453125 291.6572265625) rotate(0 77.126953125 116.78125)"><path d="M32 0 M32 0 C62.04 -0.39, 93.93 -0.74, 122.25 0 M122.25 0 C145.35 -1.24, 155.01 10.62, 154.25 32 M154.25 32 C153.52 74.3, 153.06 118.04, 154.25 201.56 M154.25 201.56 C153.02 221, 144.47 235.08, 122.25 233.56 M122.25 233.56 C101.35 232.96, 82.87 235.89, 32 233.56 M32 233.56 C9.74 233.7, -1.26 223, 0 201.56 M0 201.56 C1.2 147.66, 0.68 89.19, 0 32 M0 32 C-0.55 10.58, 9.02 -1.14, 32 0" stroke="#5f3dc4" stroke-width="1.5" fill="none" stroke-dasharray="1.5 7"></path></g><g transform="translate(1245.55078125 494.1923828125) rotate(0 37 10)"><text x="0" y="14" font-family="Virgil, HanziPen SC, Kai, Segoe UI Emoji" font-size="16px" fill="#5f3dc4" text-anchor="start" style="white-space: pre;" direction="ltr">Service 4</text></g><g stroke-linecap="round" transform="translate(1204.84765625 326.9189453125) rotate(0 49.017578125 22.783203125)"><path d="M10.3 -1.02 L85.76 -0.18 L92.36 3.37 L96.62 9.48 L97.99 33.19 L96.01 39.87 L93.21 43.7 L85.8 46.49 L10.16 43.67 L5.34 45.48 L-1.63 38.33 L2.15 6.74 L1.35 1.3 L12.83 -0.93" stroke="none" stroke-width="0" fill="#228be6"></path><path d="M11.39 0 M11.39 0 C35.01 -0.72, 58.87 0.59, 86.64 0 M11.39 0 C38.95 0.62, 66.24 0.1, 86.64 0 M86.64 0 C93.09 1.47, 99.77 5.48, 98.04 11.39 M86.64 0 C92.98 -1.54, 100.05 1.93, 98.04 11.39 M98.04 11.39 C99.77 18.34, 96.2 29.19, 98.04 34.17 M98.04 11.39 C98.73 15.21, 97.3 20.24, 98.04 34.17 M98.04 34.17 C97.29 40.93, 92.99 44.5, 86.64 45.57 M98.04 34.17 C98.21 39.54, 96.48 46.53, 86.64 45.57 M86.64 45.57 C68.89 46.94, 50.23 44.84, 11.39 45.57 M86.64 45.57 C57.07 46.22, 28.31 46.5, 11.39 45.57 M11.39 45.57 C5.15 45.06, 1.49 41.88, 0 34.17 M11.39 45.57 C4.2 44.74, 1.07 42.04, 0 34.17 M0 34.17 C-0.74 28.22, -0.89 24.67, 0 11.39 M0 34.17 C-0.79 26.91, -0.03 21.13, 0 11.39 M0 11.39 C-1.25 4.84, 4.27 0.82, 11.39 0 M0 11.39 C-2.23 5.91, 4.25 -1.29, 11.39 0" stroke="#1864ab" stroke-width="1" fill="none"></path></g><g transform="translate(1238.365234375 339.7021484375) rotate(0 15.5 10)"><text x="15.5" y="14" font-family="Virgil, HanziPen SC, Kai, Segoe UI Emoji" font-size="16px" fill="#fff" text-anchor="middle" style="white-space: pre;" direction="ltr">Pod</text></g><g stroke-linecap="round" transform="translate(1207.552734375 416.2021484375) rotate(0 49.017578125 22.783203125)"><path d="M10.51 -0.18 L85.42 1.77 L92.35 2.36 L97.81 7.74 L97.62 32.93 L96.05 40.85 L92.74 44.88 L85.41 43.67 L12.28 47.08 L2.64 45.45 L2.15 34.86 L-1.32 7.17 L4.28 1.92 L11.53 -1.26" stroke="none" stroke-width="0" fill="#228be6"></path><path d="M11.39 0 M11.39 0 C35.66 0.88, 58.73 0.36, 86.64 0 M11.39 0 C26.5 -0.53, 42.68 0.77, 86.64 0 M86.64 0 C95.98 1.68, 96.95 2.46, 98.04 11.39 M86.64 0 C96.25 -1.86, 99.78 2.95, 98.04 11.39 M98.04 11.39 C96.49 20.83, 96.31 27.94, 98.04 34.17 M98.04 11.39 C97.6 19.81, 97.85 28.66, 98.04 34.17 M98.04 34.17 C96.79 40.7, 94.39 43.63, 86.64 45.57 M98.04 34.17 C100.28 42.73, 92.69 47.73, 86.64 45.57 M86.64 45.57 C58.47 44.77, 34.85 46.94, 11.39 45.57 M86.64 45.57 C58.91 46.03, 31.2 45.4, 11.39 45.57 M11.39 45.57 C5.29 45.68, 0.35 41.05, 0 34.17 M11.39 45.57 C4.87 45.84, -1.89 39.95, 0 34.17 M0 34.17 C-0.97 27.5, -0.14 19.76, 0 11.39 M0 34.17 C0.13 29.65, -0.44 25.51, 0 11.39 M0 11.39 C0.47 4.62, 1.86 1.84, 11.39 0 M0 11.39 C0.46 2.51, 4.48 0.95, 11.39 0" stroke="#1864ab" stroke-width="1" fill="none"></path></g><g transform="translate(1241.0703125 428.9853515625) rotate(0 15.5 10)"><text x="15.5" y="14" font-family="Virgil, HanziPen SC, Kai, Segoe UI Emoji" font-size="16px" fill="#fff" text-anchor="middle" style="white-space: pre;" direction="ltr">Pod</text></g><g transform="translate(1243.7578125 384.2236328125) rotate(0 12 10)"><text x="0" y="14" font-family="Virgil, HanziPen SC, Kai, Segoe UI Emoji" font-size="16px" fill="#000000" text-anchor="start" style="white-space: pre;" direction="ltr">……</text></g><g stroke-linecap="round" transform="translate(853.919921875 197.1533203125) rotate(0 61.923828125 36.345703125)"><path d="M19.94 -1.24 L106.43 -0.05 L115.77 2.14 L120.05 6.72 L123.3 13.07 L124.77 53.29 L119.39 66.48 L118.27 68.33 L107.16 74.66 L16.19 71.2 L5.55 71.57 L1.63 65.73 L-0.97 58.88 L0.81 13.23 L5.84 5.17 L11.62 1.24 L16.41 -0.55" stroke="none" stroke-width="0" fill="#82c91e"></path><path d="M18.17 0 M18.17 0 C42.89 1.97, 71.64 2.18, 105.67 0 M18.17 0 C38.84 -0.01, 60.77 0.08, 105.67 0 M105.67 0 C119.61 -1.62, 122.1 6.73, 123.85 18.17 M105.67 0 C115.57 -1.13, 125.87 7.91, 123.85 18.17 M123.85 18.17 C122.88 25.28, 122.38 33, 123.85 54.52 M123.85 18.17 C123.91 28.68, 124.44 41.08, 123.85 54.52 M123.85 54.52 C123.61 67.58, 116.41 71.54, 105.67 72.69 M123.85 54.52 C125.91 67.8, 119.47 72.14, 105.67 72.69 M105.67 72.69 C79.82 72.52, 52.75 73.14, 18.17 72.69 M105.67 72.69 C78.01 72.28, 49.33 73.21, 18.17 72.69 M18.17 72.69 C5.14 71.7, -1.07 67.05, 0 54.52 M18.17 72.69 C5.77 72.42, -2.26 64.75, 0 54.52 M0 54.52 C-1.23 47.24, 0.49 38.71, 0 18.17 M0 54.52 C-0.89 47.44, 0.08 39.95, 0 18.17 M0 18.17 C0.26 4.52, 5.14 -1.07, 18.17 0 M0 18.17 C-2.15 5.59, 4.73 0.44, 18.17 0" stroke="#5c940d" stroke-width="1" fill="none"></path></g><g transform="translate(877.34375 213.4990234375) rotate(0 38.5 20)"><text x="38.5" y="14" font-family="Virgil, HanziPen SC, Kai, Segoe UI Emoji" font-size="16px" fill="#fff" text-anchor="middle" style="white-space: pre;" direction="ltr">Nacos</text><text x="38.5" y="34" font-family="Virgil, HanziPen SC, Kai, Segoe UI Emoji" font-size="16px" fill="#fff" text-anchor="middle" style="white-space: pre;" direction="ltr">Controller</text></g><g transform="translate(1207.169921875 534.1650390625) rotate(0 47 20)"><text x="0" y="14" font-family="Virgil, HanziPen SC, Kai, Segoe UI Emoji" font-size="16px" fill="#5f3dc4" text-anchor="start" style="white-space: pre;" direction="ltr">Spring Cloud</text><text x="0" y="34" font-family="Virgil, HanziPen SC, Kai, Segoe UI Emoji" font-size="16px" fill="#5f3dc4" text-anchor="start" style="white-space: pre;" direction="ltr">Dubbo/……</text></g><g stroke-linecap="round"><g transform="translate(866.7840809149534 99.9848172270373) rotate(0 176.42857684503713 89.35973708006955)"><path d="M0.4 0.62 C59.35 30.61, 294.86 149.03, 353.71 178.82 M-0.85 -0.1 C57.91 29.62, 293.67 147.26, 352.54 176.85" stroke="#e67700" stroke-width="1" fill="none"></path></g><g transform="translate(866.7840809149534 99.9848172270373) rotate(0 176.42857684503713 89.35973708006955)"><path d="M323.78 172.72 C332.1 173.27, 341.88 173.66, 351.67 177.1 M321.86 174.14 C333.88 173.44, 345.24 175.95, 352.81 177.76" stroke="#e67700" stroke-width="1" fill="none"></path></g><g transform="translate(866.7840809149534 99.9848172270373) rotate(0 176.42857684503713 89.35973708006955)"><path d="M332.96 154.37 C338.37 160.44, 345.4 166.31, 351.67 177.1 M331.05 155.79 C339.64 162.05, 347.56 171.43, 352.81 177.76" stroke="#e67700" stroke-width="1" fill="none"></path></g></g><mask></mask><g stroke-linecap="round"><g transform="translate(777.6468644227621 105.99962761738846) rotate(0 33.09081496659928 47.36461446945518)"><path d="M-0.79 -0.93 C10.1 14.72, 53.45 78.74, 64.65 94.7 M1 1.2 C12.33 16.89, 56.11 79.92, 66.97 95.66" stroke="#e67700" stroke-width="1" fill="none"></path></g><g transform="translate(777.6468644227621 105.99962761738846) rotate(0 33.09081496659928 47.36461446945518)"><path d="M40.93 77.11 C46.73 84.41, 52.89 86.89, 66.7 97.29 M42.07 77.41 C52.11 84.47, 62.13 92.9, 66.48 95.77" stroke="#e67700" stroke-width="1" fill="none"></path></g><g transform="translate(777.6468644227621 105.99962761738846) rotate(0 33.09081496659928 47.36461446945518)"><path d="M57.8 65.42 C59.56 75.45, 61.62 80.78, 66.7 97.29 M58.93 65.72 C62.24 77.48, 65.54 90.57, 66.48 95.77" stroke="#e67700" stroke-width="1" fill="none"></path></g></g><mask></mask><g stroke-linecap="round"><g transform="translate(893.6851858548821 281.24288086013394) rotate(0 28.028111416394836 28.643368294467194)"><path d="M0.71 0.62 C9.93 10.26, 47.2 47.83, 56.43 57.39 M-0.37 -0.1 C8.68 9.2, 46.68 46.08, 56.03 55.45" stroke="#e67700" stroke-width="1" fill="none"></path></g><g transform="translate(893.6851858548821 281.24288086013394) rotate(0 28.028111416394836 28.643368294467194)"><path d="M29.78 44.71 C40.03 48.91, 51.78 52.83, 55.05 54.22 M29.62 42.66 C37.21 46.73, 47.14 51.96, 56.24 54.69" stroke="#e67700" stroke-width="1" fill="none"></path></g><g transform="translate(893.6851858548821 281.24288086013394) rotate(0 28.028111416394836 28.643368294467194)"><path d="M44.18 30.1 C48.71 40.14, 54.79 49.81, 55.05 54.22 M44.03 28.04 C46.79 37.15, 51.85 47.33, 56.24 54.69" stroke="#e67700" stroke-width="1" fill="none"></path></g></g><mask></mask><g transform="translate(1140.3828125 201.2068584070796) rotate(0 63 17.5)"><text x="0" y="13.5" font-family="Virgil, HanziPen SC, Kai, Segoe UI Emoji" font-size="12.17975663716814px" fill="#e67700" text-anchor="start" style="white-space: pre;" direction="ltr">通过应用框架或客户端</text><text x="0" y="31" font-family="Virgil, HanziPen SC, Kai, Segoe UI Emoji" font-size="12.17975663716814px" fill="#e67700" text-anchor="start" style="white-space: pre;" direction="ltr">直接从Nacos中订阅</text></g><g transform="translate(815.1967047275641 317.08203125) rotate(0 58 16)"><text x="0" y="12" font-family="Virgil, HanziPen SC, Kai, Segoe UI Emoji" font-size="11.282363191972143px" fill="#e67700" text-anchor="start" style="white-space: pre;" direction="ltr">通过Nacos Controller</text><text x="0" y="28" font-family="Virgil, HanziPen SC, Kai, Segoe UI Emoji" font-size="11.282363191972143px" fill="#e67700" text-anchor="start" style="white-space: pre;" direction="ltr">同步到K8S DNS中</text></g><g stroke-linecap="round"><g transform="translate(561.3918755772731 395.0184061087392) rotate(179.15761722405577 145.40301027872863 25.042889073415665)" fill-rule="evenodd"><path d="M-1.81 -1.8 L1.05 48.52 L174.95 49.68 L174.19 75.86 L291.38 24.71 L174.84 -25.17 L174.22 -0.02 L-0.34 0.59" stroke="none" stroke-width="0" fill="#ced4da" fill-rule="evenodd"></path><path d="M-0.77 0.51 C0.71 11.91, 0.86 25.85, 0.64 48.3 M-0.84 0.61 C-0.47 19.7, -0.88 36.95, -0.61 50.63 M1.49 50.87 C61.94 48.18, 124.08 48.58, 176.11 48.04 M-0.97 50.84 C34.79 51.09, 69.34 51.74, 175.88 49.03 M175.93 51.2 C173.7 58.52, 174.94 68.27, 173.12 73.23 M174.11 49.79 C175.6 56.77, 174.5 64.22, 175.22 74.67 M173.2 74.12 C201.12 63.16, 224.12 52.05, 292.58 22.84 M174.5 75.17 C210.39 59.8, 245.25 45.86, 290.4 24.73 M289.01 24.34 C250.97 7.57, 211.42 -10.73, 176.43 -25.09 M290.55 24.55 C248.57 7.26, 206.61 -11.56, 175.31 -24.49 M173.08 -23.39 C174.98 -15.84, 173.89 -8.44, 176.72 1.22 M175.02 -24.89 C174.39 -14.3, 174.08 -6.04, 175.02 0.94 M174.22 -1.58 C106.14 0.88, 35.52 2.96, -1.77 -0.66 M175.35 0.17 C135.01 1.7, 92.46 0.83, -0.37 0.47 M0 0 C0 0, 0 0, 0 0 M0 0 C0 0, 0 0, 0 0" stroke="#495057" stroke-width="1" fill="none"></path></g></g><mask></mask><g transform="translate(649.59765625 411.8359375) rotate(0 78 10)"><text x="0" y="14" font-family="Virgil, HanziPen SC, Kai, Segoe UI Emoji" font-size="16px" fill="#495057" text-anchor="start" style="white-space: pre;" direction="ltr">Cross K8s Request</text></g><g stroke-linecap="round" transform="translate(10 10) rotate(0 710.9765625 319.73046875)"><path d="M32 0 M32 0 C355.97 5.06, 678.29 4.28, 1389.95 0 M32 0 C567.57 -5.08, 1103.2 -4.96, 1389.95 0 M1389.95 0 C1411.61 1.5, 1423.06 9.43, 1421.95 32 M1389.95 0 C1409.49 1.04, 1420.96 8.55, 1421.95 32 M1421.95 32 C1423.68 199.59, 1423.07 368.96, 1421.95 607.46 M1421.95 32 C1419.49 234.5, 1419.68 437.24, 1421.95 607.46 M1421.95 607.46 C1421.89 626.95, 1409.93 637.48, 1389.95 639.46 M1421.95 607.46 C1423.42 629.56, 1411.39 637.66, 1389.95 639.46 M1389.95 639.46 C1047.4 638.32, 706.02 638.48, 32 639.46 M1389.95 639.46 C1097.39 641.09, 804.21 641.05, 32 639.46 M32 639.46 C9.34 638.34, 1.03 628.26, 0 607.46 M32 639.46 C12.57 638.24, -1.29 630.1, 0 607.46 M0 607.46 C0.74 417.31, 1.73 228.75, 0 32 M0 607.46 C-0.34 405.56, -0.49 204.29, 0 32 M0 32 C-1.57 9.98, 11.97 -1.34, 32 0 M0 32 C-1.55 8.74, 10.08 -1.13, 32 0" stroke="#495057" stroke-width="1" fill="none"></path></g><g transform="translate(1357.57421875 604.5194052419355) rotate(0 19.28125 12.439516129032256)"><text x="0" y="17.879032258064534" font-family="Virgil, HanziPen SC, Kai, Segoe UI Emoji" font-size="19.90322580645162px" fill="#495057" text-anchor="start" style="white-space: pre;" direction="ltr">VPC</text></g><g transform="translate(1011.52734375 666.22265625) rotate(0 206.5 11.5)"><text x="0" y="17" font-family="Virgil, HanziPen SC, Kai, Segoe UI Emoji" font-size="16px" fill="#495057" text-anchor="start" style="white-space: pre;" direction="ltr">* 在跨集群容灾等需要进行跨K8S集群调用的场景中使用</text></g><g transform="translate(976.0546875 531.5546875) rotate(0 73.5 23)"><text x="0" y="17" font-family="Virgil, HanziPen SC, Kai, Segoe UI Emoji" font-size="16px" fill="#5f3dc4" text-anchor="start" style="white-space: pre;" direction="ltr">多语言程序或</text><text x="0" y="40" font-family="Virgil, HanziPen SC, Kai, Segoe UI Emoji" font-size="16px" fill="#5f3dc4" text-anchor="start" style="white-space: pre;" direction="ltr">不依赖Nacos的应用</text></g></svg>