<svg version="1.1" xmlns="http://www.w3.org/2000/svg" viewBox="0 0 1180.6505897835207 549.29296875" width="2361.3011795670413" height="1098.5859375">
  <!-- svg-source:excalidraw -->
  
  <defs>
    <style class="style-fonts">
      @font-face {
        font-family: "Virgil";
        src: url("https://excalidraw.com/Virgil.woff2");
      }
      @font-face {
        font-family: "Cascadia";
        src: url("https://excalidraw.com/Cascadia.woff2");
      }
    </style>
  </defs>
  <g stroke-linecap="round" transform="translate(19.7847225668163 273.7532564304422) rotate(0 12.071116973872847 12.014314754698262)"><path d="M2.23 5.91 C2.23 5.91, 2.23 5.91, 2.23 5.91 M2.23 5.91 C2.23 5.91, 2.23 5.91, 2.23 5.91 M2.05 12.18 C5.48 7.55, 8.66 6.11, 10.94 2.14 M0.64 13.63 C3.55 10.31, 7.82 6.67, 10.62 2.22 M1.58 16.45 C8.07 13.84, 13.64 5.68, 14.12 1.03 M3.77 17.07 C7.12 13.46, 9.4 10.25, 14.76 2.29 M3.47 21.78 C11.66 15.1, 17.9 5.34, 19.24 4.66 M3.51 21.34 C8.78 16.68, 11.62 12.88, 21.24 2.23 M9.2 23.15 C12.49 15.78, 18.79 12.4, 23.74 7.8 M7.49 23.35 C12.78 19.14, 15.95 14.67, 22.53 5.59 M12.55 24.07 C16.34 20.51, 21.02 16.07, 24.82 10.2 M12.28 25.82 C16.14 21.75, 19.52 16.57, 25.91 8.67 M16.99 24.46 C19.42 21.49, 23.04 19.06, 24.89 18.08 M17.71 24.21 C19.68 22.21, 21.54 19.78, 24.05 17.16" stroke="#12b886" stroke-width="0.5" fill="none"></path><path d="M8.74 0.02 C11.03 -0.76, 15.38 0.17, 17.88 1.24 C20.38 2.32, 22.91 3.97, 23.73 6.46 C24.55 8.95, 23.48 13.47, 22.8 16.19 C22.12 18.91, 21.7 21.53, 19.63 22.79 C17.56 24.06, 13.11 24.11, 10.38 23.79 C7.65 23.47, 4.96 22.85, 3.25 20.88 C1.53 18.91, 0.24 14.46, 0.07 11.97 C-0.1 9.48, 0.44 7.88, 2.22 5.93 C4 3.97, 9.19 1.35, 10.77 0.24 C12.35 -0.86, 11.58 -0.84, 11.68 -0.71 M6.83 0.9 C9.2 -0.08, 13.93 -0.3, 16.34 0.65 C18.75 1.6, 20.24 4.71, 21.29 6.6 C22.34 8.49, 22.96 9.72, 22.63 12 C22.29 14.28, 20.72 18.13, 19.27 20.29 C17.81 22.44, 16.19 24.6, 13.9 24.93 C11.62 25.26, 8 24.03, 5.58 22.26 C3.16 20.49, 0.14 16.77, -0.63 14.33 C-1.39 11.9, -0.13 9.73, 1 7.63 C2.13 5.53, 5.18 2.59, 6.16 1.74 C7.13 0.88, 6.83 2.69, 6.86 2.53" stroke="#495057" stroke-width="1" fill="none"></path></g><g stroke-linecap="round"><g transform="translate(31.799037321515016 297.78188593983873) rotate(0 0.23652553525758435 16.915081093912022)" fill-rule="evenodd"><path d="M-7.84 -0.19 C-7.84 -0.19, -7.84 -0.19, -7.84 -0.19 M-7.84 -0.19 C-7.84 -0.19, -7.84 -0.19, -7.84 -0.19 M-13.96 11.19 C-7.84 8.06, -4.34 3.14, -3.87 -0.52 M-12.37 11.34 C-9.3 7.66, -7.78 4.5, -2.98 -0.38 M-11.98 19.81 C-7.63 12.04, -3.35 6.56, 1.88 0.95 M-13.17 18.25 C-8.47 11.38, -2.6 6.19, 2.43 0.45 M-17.15 26.93 C-5.18 16.66, 1.99 7.23, 6.76 0.23 M-14.45 27.52 C-10.17 20.34, -4.82 15.86, 8.54 0.22 M-13.56 34.9 C-10.98 24.82, -5.79 18.72, 10 2.47 M-15.65 33.02 C-5.47 20.78, 3.38 11.38, 10.34 4.13 M-11.15 35.62 C-6.98 26.12, 2.45 19.01, 11.39 7.81 M-12.46 34.14 C-5.58 28.81, -1.02 21.82, 11.08 7.42 M-9.63 36.64 C0.27 28.6, 8.58 18.96, 12.95 9.92 M-7.9 36.52 C-3.49 30.43, 0.63 25.93, 12.7 12.47 M-3.05 37.97 C2.87 28.75, 10.17 22.87, 15.87 16.29 M-2.3 37.34 C2.22 29.82, 8.29 24.49, 15.22 15.7 M0.8 38.7 C4.68 34.94, 10.38 30.32, 15.51 18.9 M1.63 36.62 C6.03 32.05, 10.67 27.18, 16.16 20.74 M9.41 36.52 C11.2 33.38, 12.26 30.9, 17.26 25.26 M8.64 35.61 C11.22 32.41, 15.13 29.31, 16.97 25.87" stroke="#12b886" stroke-width="0.5" fill="none"></path><path d="M0.2 -0.59 C1.61 -0.46, 6.53 -5.12, 9.1 0.25 C11.66 5.61, 19.65 26.31, 15.58 31.62 C11.5 36.93, -11.56 37.49, -15.36 32.09 C-19.16 26.7, -9.61 4.41, -7.23 -0.76 C-4.85 -5.93, -2.42 0.79, -1.06 1.08 M-1.16 1.71 C0.13 1.5, 6.1 -6.92, 8.72 -1.75 C11.34 3.42, 18.49 26.88, 14.58 32.71 C10.66 38.54, -10.95 38.81, -14.76 33.23 C-18.57 27.64, -10.72 4.66, -8.29 -0.77 C-5.86 -6.21, -1.32 0.45, -0.21 0.61" stroke="#495057" stroke-width="1" fill="none"></path></g></g><mask></mask><g transform="translate(10 342.40625) rotate(0 23.5 12.5)"><text x="0" y="18" font-family="Virgil, HanziPen SC, Kai, Segoe UI Emoji" font-size="20px" fill="#2b8a3e" text-anchor="start" style="white-space: pre;" direction="ltr">User</text></g><g stroke-linecap="round" transform="translate(85.39453125 93.42578125) rotate(0 231.423828125 222.93359375)"><path d="M0.71 -0.91 C107.47 -1.18, 213.98 -0.11, 462.82 -0.55 M0.06 0.45 C103.15 -1.21, 206.3 -1.49, 462.91 0.23 M461.91 -0.25 C462.21 141.76, 463.16 285.41, 462.35 445.96 M462.43 0.42 C463.62 135.47, 463.76 270.43, 463.21 446.13 M462.29 446.05 C286.89 446.02, 108.94 444.78, -0.2 445.3 M463.13 446.31 C349.05 445.14, 234.64 445.31, -0.43 445.72 M-0.45 445.92 C1.31 322.97, 1.65 199.94, 0.24 0.49 M-0.04 445.65 C-0.37 272.87, -0.57 100.14, -0.13 0.16" stroke="#000000" stroke-width="1" fill="none"></path></g><g transform="translate(111.4296875 118.14453125) rotate(0 50.5 12.5)"><text x="0" y="18" font-family="Virgil, HanziPen SC, Kai, Segoe UI Emoji" font-size="20px" fill="#000000" text-anchor="start" style="white-space: pre;" direction="ltr">User Host</text></g><g stroke-linecap="round" transform="translate(124.86328125 205.1953125) rotate(0 127.833984375 115.421875)"><path d="M32 0 M32 0 C81.87 0.42, 129.62 1.44, 223.67 0 M223.67 0 C246.71 -0.26, 256.91 9.29, 255.67 32 M255.67 32 C258.04 91.17, 257.46 147.63, 255.67 198.84 M255.67 198.84 C256.05 221.07, 246.56 231.51, 223.67 230.84 M223.67 230.84 C163.34 227.46, 107.87 229.02, 32 230.84 M32 230.84 C10.62 231.05, 1.93 222.14, 0 198.84 M0 198.84 C-1.58 166.02, 1.16 130.72, 0 32 M0 32 C-1.27 11.6, 10.46 1.97, 32 0" stroke="#495057" stroke-width="1.5" fill="none" stroke-dasharray="8 9"></path></g><g stroke-linecap="round" transform="translate(145.80859375 263.12890625) rotate(0 59.5 58.5)"><path d="M29.25 0 M29.25 0 C45.75 -1.6, 61.57 -0.86, 89.75 0 M29.25 0 C47.75 -1.24, 66.5 0.3, 89.75 0 M89.75 0 C107.62 0.94, 119.51 10.28, 119 29.25 M89.75 0 C108.77 2.09, 119.76 8.13, 119 29.25 M119 29.25 C117.55 40.6, 118.4 54.68, 119 87.75 M119 29.25 C119.28 50.18, 119.16 72.39, 119 87.75 M119 87.75 C117.49 107.84, 108.26 115.46, 89.75 117 M119 87.75 C117.7 106.48, 107.11 116.61, 89.75 117 M89.75 117 C78.7 116.66, 66.59 116.55, 29.25 117 M89.75 117 C69.1 118.35, 46.06 117.89, 29.25 117 M29.25 117 C11.68 115.06, -1.01 106.8, 0 87.75 M29.25 117 C7.78 118.6, -1.4 108.24, 0 87.75 M0 87.75 C-1.64 71.58, 0.67 51.04, 0 29.25 M0 87.75 C1.13 71.17, 1 54.64, 0 29.25 M0 29.25 C-0.58 11.64, 11.58 1.85, 29.25 0 M0 29.25 C0.58 8.54, 11.11 1.6, 29.25 0" stroke="#000000" stroke-width="1" fill="none"></path></g><g transform="translate(165.30859375 311.62890625) rotate(0 40 10)"><text x="40" y="14" font-family="Virgil, HanziPen SC, Kai, Segoe UI Emoji" font-size="16px" fill="#000000" text-anchor="middle" style="white-space: pre;" direction="ltr">Agent App</text></g><g stroke-linecap="round" transform="translate(264.515625 300.6015625) rotate(0 52 24.5)"><path d="M12.25 0 M12.25 0 C41.66 -1.31, 67.62 0.69, 91.75 0 M12.25 0 C31.17 -0.94, 49.75 -0.41, 91.75 0 M91.75 0 C100.67 -1.05, 102.55 2.56, 104 12.25 M91.75 0 C98.17 -2.2, 103.42 2.1, 104 12.25 M104 12.25 C102.79 19.65, 105.39 23.49, 104 36.75 M104 12.25 C104.89 17.43, 104.25 23.83, 104 36.75 M104 36.75 C105.06 43.3, 100.08 50.93, 91.75 49 M104 36.75 C105.83 44.65, 98.3 50.62, 91.75 49 M91.75 49 C63.94 50.66, 35.39 48.86, 12.25 49 M91.75 49 C72.49 49.38, 52.6 50.4, 12.25 49 M12.25 49 C5.46 47.78, -1.74 45.34, 0 36.75 M12.25 49 C5.9 50.24, 1.17 43.92, 0 36.75 M0 36.75 C1.84 26.51, 0.67 20.03, 0 12.25 M0 36.75 C0.64 30.54, -0.5 23.87, 0 12.25 M0 12.25 C1.78 4.24, 5.13 -1.35, 12.25 0 M0 12.25 C-2.1 1.8, 5.69 1.58, 12.25 0" stroke="#000000" stroke-width="1" fill="none"></path></g><g transform="translate(273.515625 315.1015625) rotate(0 43 10)"><text x="43" y="14" font-family="Virgil, HanziPen SC, Kai, Segoe UI Emoji" font-size="16px" fill="#000000" text-anchor="middle" style="white-space: pre;" direction="ltr">MCP Client</text></g><g stroke-linecap="round" transform="translate(428.5625 204.40625) rotate(0 44 50.5)"><path d="M22 0 M22 0 C35.46 -1.11, 48.11 -1.68, 66 0 M22 0 C39.08 0.4, 56.49 -0.51, 66 0 M66 0 C80.37 -0.78, 87 9.31, 88 22 M66 0 C80.74 1.81, 89.63 6.49, 88 22 M88 22 C88.03 40.82, 88.96 65.3, 88 79 M88 22 C87.8 42.05, 87.26 61.55, 88 79 M88 79 C88 94.39, 80.6 101.8, 66 101 M88 79 C85.71 93.49, 81.6 99.17, 66 101 M66 101 C51.34 101.63, 33.86 100.61, 22 101 M66 101 C48.25 101.7, 31.24 102.2, 22 101 M22 101 C7.69 101.85, -0.22 92.98, 0 79 M22 101 C8.39 98.85, 0.6 94.8, 0 79 M0 79 C-0.22 61.13, -1.43 44.74, 0 22 M0 79 C0.11 60.77, -1.03 40.86, 0 22 M0 22 C1.96 8.97, 6.97 0.45, 22 0 M0 22 C1.32 6.07, 6.81 -0.37, 22 0" stroke="#364fc7" stroke-width="1" fill="none"></path></g><g transform="translate(445.0625 224.90625) rotate(0 27.5 30)"><text x="27.5" y="14" font-family="Virgil, HanziPen SC, Kai, Segoe UI Emoji" font-size="16px" fill="#364fc7" text-anchor="middle" style="white-space: pre;" direction="ltr">Nacos</text><text x="27.5" y="34" font-family="Virgil, HanziPen SC, Kai, Segoe UI Emoji" font-size="16px" fill="#364fc7" text-anchor="middle" style="white-space: pre;" direction="ltr">MCP</text><text x="27.5" y="54" font-family="Virgil, HanziPen SC, Kai, Segoe UI Emoji" font-size="16px" fill="#364fc7" text-anchor="middle" style="white-space: pre;" direction="ltr">Router</text></g><g stroke-linecap="round" transform="translate(681.896484375 281.83203125) rotate(0 192.857421875 126.9375)"><path d="M-0.14 -0.67 C84.32 2.36, 167.75 1.42, 385.46 1.05 M0.22 -0.3 C84.32 2.73, 167.57 2.21, 385.63 0.43 M385.1 1.16 C384.17 65.51, 383.78 129.07, 384.62 254.99 M385.78 -0.38 C386.77 74.6, 386.77 149.04, 386.24 254.18 M384.59 254.72 C234.1 252.47, 84.31 253.27, 1.16 254.69 M385.69 254.28 C276.95 252, 168.26 252.03, -0.41 253.31 M-1.11 252.28 C1.48 153.08, -0.91 51.57, -0.38 1.43 M0.58 253.6 C-1.38 167.02, -0.62 80.08, 0.18 0.74" stroke="#000000" stroke-width="1" fill="none"></path></g><g transform="translate(691.27734375 299) rotate(0 63.5 12.5)"><text x="0" y="18" font-family="Virgil, HanziPen SC, Kai, Segoe UI Emoji" font-size="20px" fill="#000000" text-anchor="start" style="white-space: pre;" direction="ltr">Remote Host</text></g><g stroke-linecap="round" transform="translate(823.109375 331.53125) rotate(0 44 50.5)"><path d="M22 0 M22 0 C35.44 0.35, 49.92 -0.96, 66 0 M22 0 C32.17 -0.59, 42.76 0.53, 66 0 M66 0 C81.97 -1.09, 86.46 5.35, 88 22 M66 0 C82.23 -1.04, 88.82 6.95, 88 22 M88 22 C90.26 40.68, 88.77 56.83, 88 79 M88 22 C87.11 35.52, 88.31 46.35, 88 79 M88 79 C87.51 92.42, 79.51 100.88, 66 101 M88 79 C87.09 91.96, 78.45 99.96, 66 101 M66 101 C50.19 100.27, 33.34 99.09, 22 101 M66 101 C52.06 101, 39.33 100.57, 22 101 M22 101 C5.47 99, 1.77 94.55, 0 79 M22 101 C6.73 100.57, -0.76 93.34, 0 79 M0 79 C-1.71 56.33, 1.29 36.29, 0 22 M0 79 C0.71 58.62, 0.24 38.21, 0 22 M0 22 C0.25 6.3, 6.04 -0.88, 22 0 M0 22 C0.74 6.96, 8.11 1.48, 22 0" stroke="#1864ab" stroke-width="1" fill="none"></path></g><g transform="translate(839.609375 352.03125) rotate(0 27.5 30)"><text x="27.5" y="14" font-family="Virgil, HanziPen SC, Kai, Segoe UI Emoji" font-size="16px" fill="#1864ab" text-anchor="middle" style="white-space: pre;" direction="ltr">Nacos</text><text x="27.5" y="34" font-family="Virgil, HanziPen SC, Kai, Segoe UI Emoji" font-size="16px" fill="#1864ab" text-anchor="middle" style="white-space: pre;" direction="ltr">MCP</text><text x="27.5" y="54" font-family="Virgil, HanziPen SC, Kai, Segoe UI Emoji" font-size="16px" fill="#1864ab" text-anchor="middle" style="white-space: pre;" direction="ltr">Router</text></g><g stroke-linecap="round" transform="translate(786.765625 462.90625) rotate(0 84 24)"><path d="M12 0 M12 0 C57.37 -1.27, 104.72 -0.08, 156 0 M12 0 C59.87 0.05, 106.33 -0.75, 156 0 M156 0 C165.55 0.92, 167.77 5.56, 168 12 M156 0 C161.8 0.79, 166.96 3.94, 168 12 M168 12 C167.1 19.75, 168.72 26.04, 168 36 M168 12 C168.05 19.56, 167.78 25.42, 168 36 M168 36 C169.27 43.25, 163.65 47.6, 156 48 M168 36 C168.02 46.14, 164.47 49.82, 156 48 M156 48 C119.55 47.72, 85.31 50.27, 12 48 M156 48 C107.29 48.25, 57.87 48.96, 12 48 M12 48 C4.24 46.73, -0.02 42.45, 0 36 M12 48 C3.9 47.58, -0.43 43.55, 0 36 M0 36 C-1.07 29.11, -0.43 20.38, 0 12 M0 36 C0.66 29.27, 0.72 23.39, 0 12 M0 12 C-0.72 2.08, 5.84 -0.63, 12 0 M0 12 C-1.72 4.51, 4.58 0.29, 12 0" stroke="#5c940d" stroke-width="1" fill="none"></path></g><g transform="translate(799.765625 476.90625) rotate(0 71 10)"><text x="71" y="14" font-family="Virgil, HanziPen SC, Kai, Segoe UI Emoji" font-size="16px" fill="#5c940d" text-anchor="middle" style="white-space: pre;" direction="ltr">Local MCP Server</text></g><g stroke-linecap="round"><g transform="translate(837.5013157553949 74.08997862894671) rotate(0 38.4775743224709 8.28724228384067)" fill-rule="evenodd"><path d="M0 0 C0 0, 0 0, 0 0 M0 0 C0 0, 0 0, 0 0 M-1.42 5.03 C5.89 -0.59, 11.97 -8.45, 18.6 -13.64 M1.01 5.5 C5.66 -0.82, 11.25 -6.93, 16.57 -14.16 M1.6 10.12 C3.83 5.06, 9.21 -1.37, 22.12 -14.51 M0.67 12.32 C9.15 1.05, 17.37 -8.75, 21.67 -14.53 M1.85 18.93 C6.92 9.81, 18.49 -2.74, 28.75 -16.13 M1.13 18.57 C7.49 11.48, 12.32 2.91, 29 -13.82 M3.28 22.48 C12.61 10.5, 22.15 -3.21, 35.06 -17.47 M1.91 22.24 C10.9 13.03, 17.23 3.26, 34.68 -15.18 M4.75 25.87 C16.56 12.14, 28.76 0.23, 39.24 -16.04 M4.73 25.28 C15.9 11.98, 25.75 0.12, 39.74 -15.38 M7.8 26.69 C19.28 10.55, 33.01 -2.42, 42.8 -12.29 M7.68 26.48 C16.44 16.75, 27.22 6.25, 44.09 -14.68 M10.93 30.35 C21.93 20.28, 29.64 5.57, 49.62 -13.9 M9.99 31.43 C25.32 13.95, 41.52 -4.4, 48.16 -12.6 M16.67 32.75 C23.96 20.09, 34.73 10.01, 54.36 -14.22 M15.44 31.67 C25.47 18.89, 36.63 6.12, 53.65 -13.72 M19.37 31.64 C30.07 20.6, 42.12 7.38, 57.48 -13.63 M18.73 32.72 C34.21 14.61, 50.57 -2.44, 59.02 -12.54 M23.44 32.99 C36.06 21.83, 46.76 7.97, 64.97 -12.64 M24.02 32.89 C31.26 25.03, 40.62 16.37, 63.68 -11.97 M27.85 33.6 C46.09 15.5, 57.97 -0.12, 69.3 -12.09 M27.96 34.6 C36.77 25.28, 46.11 15.61, 67.32 -10.99 M35.11 33.53 C42.84 25.96, 49.85 15.59, 71.94 -8.15 M33.06 35.2 C49.06 16.55, 62.06 1.14, 70.92 -7.12 M38.96 34.4 C50.76 20.71, 59.47 9.5, 71.6 -3.83 M39.82 33.99 C49.2 21.99, 61.32 10.9, 73.41 -5.31 M46.79 35.32 C56.5 21.51, 65.59 9.86, 76.01 -2.02 M45.64 34.61 C52.74 23.92, 60.83 15.08, 75.89 -2.44 M50.01 32.25 C59.36 21.51, 70.88 8.87, 78.97 -0.62 M51.53 33.02 C61.35 20.75, 72.33 9.72, 79.09 0.1 M56.37 31.61 C64.69 21.13, 72.86 11.93, 81.38 4.3 M56.97 31.63 C65.65 22.97, 73.36 12.83, 78.89 5.82 M63.11 31.7 C64.94 28.17, 70.53 23.2, 79.57 12.15 M61.42 33.3 C67.7 24.2, 75.2 18.17, 79.05 13.36" stroke="#228be6" stroke-width="0.5" fill="none"></path><path d="M-0.08 0.69 C0.15 2.23, 1.05 6.31, 1.36 9.76 C1.67 13.21, 0.45 18.25, 1.79 21.38 C3.13 24.51, 5.27 26.69, 9.4 28.57 C13.54 30.45, 19.85 32.02, 26.58 32.67 C33.31 33.31, 43.15 33.03, 49.79 32.43 C56.42 31.83, 61.86 30.62, 66.4 29.07 C70.95 27.51, 75.32 26.39, 77.04 23.09 C78.77 19.8, 77.11 13.31, 76.75 9.3 C76.39 5.3, 76.51 2.5, 74.86 -0.93 C73.2 -4.35, 71.16 -8.98, 66.83 -11.24 C62.49 -13.51, 55.81 -13.67, 48.85 -14.51 C41.89 -15.35, 31.65 -17.02, 25.09 -16.27 C18.53 -15.53, 13.85 -12.63, 9.49 -10.05 C5.14 -7.46, 0.48 -2.29, -1.04 -0.76 M-1.58 0.01 C-1.4 1.67, 0.5 7.84, 1.04 11.08 C1.57 14.33, 0.18 16.41, 1.62 19.49 C3.05 22.57, 5.7 27.34, 9.65 29.59 C13.6 31.83, 18.45 32.71, 25.31 32.97 C32.17 33.24, 43.9 32.05, 50.79 31.17 C57.68 30.3, 62.35 29.02, 66.63 27.71 C70.91 26.4, 74.5 26.07, 76.47 23.3 C78.44 20.54, 78.71 15.18, 78.46 11.12 C78.22 7.07, 76.82 2.53, 75.02 -1.02 C73.22 -4.57, 72.2 -7.95, 67.66 -10.17 C63.12 -12.38, 54.91 -13.68, 47.77 -14.3 C40.63 -14.93, 31.24 -14.57, 24.82 -13.92 C18.4 -13.28, 13.58 -12.49, 9.23 -10.46 C4.89 -8.42, 0.01 -3.45, -1.25 -1.72" stroke="#1864ab" stroke-width="1" fill="none"></path></g></g><mask></mask><g stroke-linecap="round" transform="translate(844.315060723136 60.34262893689049) rotate(0 31.492298279294914 12.04379679236493)"><path d="M31.72 0.91 C38.12 0.83, 47.18 1.94, 52.43 3.5 C57.68 5.06, 62.18 7.81, 63.23 10.28 C64.28 12.75, 62.47 16.13, 58.76 18.32 C55.05 20.5, 47.5 22.56, 40.95 23.4 C34.41 24.24, 25.73 24.47, 19.47 23.36 C13.21 22.24, 6.65 18.91, 3.41 16.73 C0.17 14.55, -1.51 12.51, 0.04 10.26 C1.59 8.02, 7.05 5.07, 12.72 3.26 C18.39 1.45, 30.06 -0.01, 34.08 -0.57 C38.09 -1.14, 36.81 -0.39, 36.8 -0.11 M25.06 1.1 C31.05 0.3, 40.59 0.93, 46.32 1.92 C52.04 2.92, 56.96 4.96, 59.4 7.05 C61.85 9.14, 63.03 11.98, 60.99 14.46 C58.95 16.95, 52.66 20.18, 47.18 21.96 C41.7 23.75, 34.4 25.32, 28.1 25.19 C21.8 25.06, 14.24 23.05, 9.37 21.16 C4.5 19.27, -0.88 16.8, -1.13 13.86 C-1.39 10.93, 3.58 5.98, 7.86 3.55 C12.14 1.12, 21.93 -0.21, 24.53 -0.72 C27.14 -1.23, 23.43 -0.01, 23.5 0.51" stroke="none" stroke-width="0" fill="#228be6"></path><path d="M26.14 0.04 C32.29 -0.67, 41.94 0.23, 47.66 1.5 C53.38 2.76, 58.36 5.18, 60.48 7.63 C62.6 10.08, 62.49 13.57, 60.38 16.19 C58.28 18.82, 53.67 22.21, 47.85 23.38 C42.03 24.54, 32.39 23.68, 25.47 23.17 C18.55 22.66, 10.44 22.15, 6.33 20.32 C2.22 18.48, 0.54 14.65, 0.82 12.14 C1.09 9.64, 2.3 7.4, 7.98 5.26 C13.66 3.13, 28.67 0.04, 34.88 -0.67 C41.09 -1.38, 45.33 0.78, 45.25 1 M36.19 -0.58 C42.7 0, 50.77 3.13, 55.06 5.11 C59.35 7.08, 61.76 8.76, 61.92 11.27 C62.09 13.78, 60.19 18.28, 56.03 20.15 C51.88 22.03, 43.91 22.13, 36.98 22.51 C30.05 22.88, 20.54 23.43, 14.48 22.39 C8.42 21.36, 2.77 18.86, 0.62 16.29 C-1.53 13.71, -1.14 9.45, 1.58 6.91 C4.3 4.37, 11.2 2.05, 16.91 1.04 C22.62 0.03, 32.7 0.87, 35.84 0.83 C38.99 0.78, 35.81 0.72, 35.81 0.75" stroke="#1864ab" stroke-width="1" fill="none"></path></g><g stroke-linecap="round"><g transform="translate(837.8420485978086 101.61621373970189) rotate(0 37.96350622353384 14.87321033349582)" fill-rule="evenodd"><path d="M0 0 C0 0, 0 0, 0 0 M0 0 C0 0, 0 0, 0 0 M0.63 5.16 C1.73 4.52, 2.35 3.88, 3.61 2.18 M0.36 5.68 C1.28 4.33, 2.11 3.68, 3.81 2.05 M0.23 10.62 C2.01 9.33, 4.47 9.06, 7.71 4.27 M0.68 11.09 C2.53 8.4, 5 6.57, 7.75 4.07 M2.53 15.8 C4.6 12.07, 6.84 9.17, 10.12 7.2 M0.65 16.65 C4.86 13.4, 8.32 8.12, 11.05 6.73 M1.58 20.66 C6.19 15.85, 9.17 14.3, 13.95 7.65 M1.41 21.91 C5.84 17.76, 10.32 11.86, 13.79 8.01 M7.21 24.63 C9.97 17.6, 15.1 14.75, 16.46 8.31 M5.15 23.83 C10.59 18.17, 15.86 12.93, 19.11 9.11 M7.51 27.17 C11.38 24.12, 15.29 18.53, 22.44 10.04 M9.08 27.25 C12.13 22.21, 14.71 19.48, 21.63 11.37 M10.88 27.04 C17.22 23.15, 22.74 17.67, 25.99 10.28 M12.24 28.85 C17.56 22.63, 23.69 15.46, 27.55 12.43 M16.14 31.84 C22.7 22.27, 27.57 17.8, 32.29 12.89 M15.3 30.91 C21.29 23.58, 26.07 18.51, 31.28 12.3 M20.11 32.29 C21.73 27.5, 28.84 23.2, 38.53 12.47 M20.59 32.25 C23.59 28.35, 27.46 22.07, 36.83 12.2 M26.63 30.55 C31.2 26.03, 31.74 20.62, 41.02 13.44 M25.53 33.15 C29.36 27.62, 33.23 23.36, 41.35 12.28 M28.33 33.41 C36.71 25.29, 37.99 20.69, 48.82 10.21 M30.87 33.11 C36.3 24.62, 41.79 18.62, 49.2 12.26 M35.62 32.62 C41.11 27.03, 46.27 22.19, 55.56 10.03 M34.08 33.69 C42.33 25.7, 48.73 16.42, 54.22 10.97 M40.42 31.26 C44.84 26.96, 53.01 19.33, 58.36 11.12 M41.54 33.51 C46.38 25.96, 52.17 18.75, 61.06 10.92 M46.54 31.66 C53.65 23.57, 61.34 14.17, 65.64 9.56 M45.36 32.69 C54.01 22.95, 63.26 13.76, 67.43 7.8 M52.02 30.74 C58.55 23.09, 66.18 16.46, 77.36 4.37 M52.17 32.74 C59.08 23.2, 66.29 16.83, 76.83 2.15 M56.91 30.38 C64.64 23.75, 69.9 19.29, 79.13 8.3 M57.27 31.56 C61.45 25.63, 66.77 19.82, 77.01 8.67 M62.24 32.59 C66.67 27.08, 71.68 22.82, 76.55 13.63 M62.13 33.07 C68.03 26.32, 74.06 19.94, 76.81 14.62" stroke="#228be6" stroke-width="0.5" fill="none"></path><path d="M1.19 -0.41 C1.42 1.24, 1.25 7.12, 1.29 10.61 C1.33 14.11, -0.25 17.75, 1.42 20.56 C3.08 23.37, 7.09 25.76, 11.28 27.49 C15.47 29.23, 20.05 30.33, 26.55 30.96 C33.05 31.58, 43.58 31.47, 50.27 31.23 C56.96 30.99, 62.74 31.12, 66.68 29.52 C70.63 27.92, 72.57 24.45, 73.95 21.62 C75.32 18.8, 74.45 15.97, 74.92 12.56 C75.4 9.15, 76.91 2.64, 76.79 1.15 C76.67 -0.35, 76.36 2.85, 74.19 3.6 C72.01 4.34, 67.63 4.74, 63.74 5.61 C59.85 6.49, 56.86 8.34, 50.82 8.87 C44.78 9.4, 34.01 9.36, 27.5 8.8 C20.98 8.24, 16.46 7.04, 11.73 5.5 C7 3.95, 1.18 0.52, -0.87 -0.45 M0.36 -1.67 C0.53 -0.41, 0.88 5.03, 0.93 8.94 C0.98 12.85, -1.15 18.53, 0.65 21.79 C2.45 25.06, 7.12 26.95, 11.73 28.51 C16.34 30.07, 21.74 30.86, 28.33 31.13 C34.92 31.41, 45.31 30.58, 51.27 30.18 C57.23 29.78, 60.56 30.29, 64.12 28.73 C67.68 27.17, 70.61 23.69, 72.65 20.83 C74.68 17.96, 76.01 14.87, 76.3 11.53 C76.6 8.19, 74.66 2.45, 74.41 0.79 C74.17 -0.87, 76.33 0.29, 74.84 1.55 C73.36 2.81, 69.38 7.32, 65.49 8.36 C61.6 9.41, 57.42 7.86, 51.49 7.83 C45.56 7.81, 36.45 8.16, 29.91 8.21 C23.37 8.26, 17.31 9.4, 12.27 8.13 C7.24 6.86, 1.5 1.88, -0.3 0.56" stroke="#1864ab" stroke-width="1" fill="none"></path></g></g><mask></mask><g stroke-linecap="round"><g transform="translate(837.878048498462 127.90807481615906) rotate(0 38.254635785707706 15.359908150464264)" fill-rule="evenodd"><path d="M0 0 C0 0, 0 0, 0 0 M0 0 C0 0, 0 0, 0 0 M-0.09 6.09 C1.3 4.66, 2.69 3.24, 3.98 1.8 M0.43 5.59 C1.09 4.41, 2.44 3.65, 3.86 1.63 M0.12 11.12 C1.92 10.51, 4.72 8.13, 7.88 4.02 M0.59 10.9 C2.62 8.67, 5.49 6.58, 7.68 4.05 M-0.02 16.94 C2.26 13.16, 5.43 11.54, 11.93 6.93 M0.89 17.12 C5.41 12.92, 7.76 9.4, 11.42 5.86 M1.79 21.08 C4.83 16.41, 10.93 13.43, 13.49 8.96 M2.98 20.76 C7.78 16.28, 10.93 10.96, 13.83 8.84 M5.44 24.32 C8.65 19.11, 16.03 11.76, 18.65 9.52 M4.64 24.81 C9.85 19.25, 15.45 13.58, 19.45 7.65 M9.69 24.66 C14.33 21.06, 16.4 18.63, 23.5 7.03 M9.77 25.95 C11.76 21.39, 16.06 17.65, 24.82 8.15 M11.37 28.36 C18.54 22.63, 24.16 12.73, 28.36 10.53 M13.17 26.9 C17.6 22.65, 21.11 19.24, 30.51 9.15 M19.38 29.23 C20.7 23.4, 27.14 18.71, 35.6 9.15 M18.45 28.52 C20.62 24.1, 25.07 19.04, 35.01 8.03 M20.98 29.32 C25.77 26.55, 31.06 20.13, 39.81 7.86 M20.93 30.87 C27.03 24.42, 30.71 18.28, 39.54 8.88 M23.87 33.5 C31.82 20.95, 38.89 13.41, 46.07 7.09 M26.47 32.21 C29.53 27.23, 33.86 20.47, 44.9 8.61 M31.36 33.86 C37.29 20.8, 46.71 13.58, 50.28 8.63 M31.05 31.88 C35.72 24.04, 42.92 18.99, 52.33 7.24 M35.19 33.84 C43.31 24.67, 52.21 14.82, 56.14 8.72 M36.26 32.83 C44.71 22.81, 51.83 13.58, 57.08 7.48 M39.86 30.09 C50.79 22.82, 58.32 11.45, 64.68 5.94 M42.12 31.9 C46.62 25.45, 51.45 19.72, 64.47 6.99 M46.3 31.09 C54.79 22.26, 61.96 12.85, 68.7 9.85 M47.33 30.96 C52.06 26.41, 57.31 20.25, 66.93 7.52 M51.42 31.29 C56.99 25.73, 63.57 17.24, 79.42 1.77 M53.42 31.41 C59.33 23.01, 68.4 13.1, 77.2 2.1 M57.1 32.25 C62.42 25.64, 69.88 19.22, 78.09 6.93 M58.28 29.76 C64.91 22.26, 71.68 14.14, 78.47 7.61 M62.53 32.48 C65.44 29.07, 69.61 22.11, 76.77 15.94 M63.01 31.95 C66.6 27.97, 70.55 22.88, 77.76 14.73" stroke="#228be6" stroke-width="0.5" fill="none"></path><path d="M-0.41 1.12 C-0.35 2.5, 0.75 6.24, 1.03 9.47 C1.31 12.71, -0.36 17.74, 1.26 20.52 C2.88 23.29, 6.46 24.58, 10.74 26.1 C15.02 27.63, 20.21 28.83, 26.92 29.69 C33.64 30.54, 44.39 31.65, 51.04 31.23 C57.7 30.8, 63.11 28.9, 66.87 27.14 C70.63 25.39, 71.95 23.14, 73.6 20.7 C75.25 18.27, 76.36 15.71, 76.76 12.52 C77.15 9.34, 76.32 3.44, 75.99 1.58 C75.65 -0.27, 76.78 0.45, 74.75 1.38 C72.71 2.32, 67.96 6.1, 63.76 7.2 C59.57 8.3, 55.56 7.57, 49.57 7.99 C43.57 8.4, 34.29 10.14, 27.77 9.7 C21.25 9.26, 15.14 7.06, 10.43 5.34 C5.73 3.62, 1.34 0.17, -0.45 -0.6 M1.58 0.67 C1.49 2.76, 0.73 8.06, 0.53 11.01 C0.34 13.96, -1.32 15.74, 0.41 18.37 C2.14 21, 6.15 24.92, 10.9 26.8 C15.65 28.68, 21.98 29.02, 28.9 29.67 C35.82 30.31, 46.53 30.72, 52.45 30.64 C58.37 30.56, 60.52 30.39, 64.41 29.18 C68.3 27.98, 73.94 26.34, 75.78 23.42 C77.62 20.5, 75.26 15.31, 75.44 11.66 C75.62 8, 77.42 3.1, 76.85 1.46 C76.28 -0.17, 73.92 0.91, 72.03 1.87 C70.15 2.83, 69.26 5.82, 65.52 7.22 C61.78 8.62, 55.44 9.86, 49.58 10.28 C43.71 10.7, 36.87 10.1, 30.33 9.72 C23.78 9.33, 15.29 9.55, 10.29 7.98 C5.3 6.42, 2.36 1.36, 0.35 0.33" stroke="#1864ab" stroke-width="1" fill="none"></path></g></g><mask></mask><g transform="translate(822.11328125 10) rotate(0 52.5 21.5)"><text x="52.5" y="15.5" font-family="Virgil, HanziPen SC, Kai, Segoe UI Emoji" font-size="16px" fill="#1864ab" text-anchor="middle" style="white-space: pre;" direction="ltr">MCP Registry</text><text x="52.5" y="37" font-family="Virgil, HanziPen SC, Kai, Segoe UI Emoji" font-size="16px" fill="#1864ab" text-anchor="middle" style="white-space: pre;" direction="ltr">（Nacos）</text></g><g stroke-linecap="round" transform="translate(363.62109375 121.69140625) rotate(0 84 24)"><path d="M12 0 M12 0 C50.2 2.01, 87.58 1.27, 156 0 M12 0 C53.19 0.95, 96.43 0.9, 156 0 M156 0 C162.14 1.36, 169.98 3.14, 168 12 M156 0 C165.58 -0.03, 168.44 3.73, 168 12 M168 12 C169.65 19.86, 167.15 26.39, 168 36 M168 12 C168.83 20.29, 166.95 28.5, 168 36 M168 36 C166.3 43.54, 165.41 48.22, 156 48 M168 36 C170.07 42.02, 163.78 46.93, 156 48 M156 48 C108.1 50.6, 58.27 47.61, 12 48 M156 48 C105.76 48.3, 55.7 48.13, 12 48 M12 48 C5.2 49.14, -0.83 44.72, 0 36 M12 48 C2.17 46.09, -0.71 42.71, 0 36 M0 36 C-1.97 28.49, 1.52 24.73, 0 12 M0 36 C0.46 29.37, -0.94 22.09, 0 12 M0 12 C1.7 3.91, 4.04 0.68, 12 0 M0 12 C0.6 6.08, 3.56 2.16, 12 0" stroke="#5c940d" stroke-width="1" fill="none"></path></g><g transform="translate(376.62109375 135.69140625) rotate(0 71 10)"><text x="71" y="14" font-family="Virgil, HanziPen SC, Kai, Segoe UI Emoji" font-size="16px" fill="#5c940d" text-anchor="middle" style="white-space: pre;" direction="ltr">Local MCP Server</text></g><g stroke-linecap="round" transform="translate(648.8671875 208.1015625) rotate(0 84 24)"><path d="M12 0 M12 0 C62.33 -2.21, 115.41 1.33, 156 0 M12 0 C59.36 -1.55, 107.24 -1.48, 156 0 M156 0 C164.08 1.11, 168.91 4.84, 168 12 M156 0 C166.26 1.11, 169.22 2.05, 168 12 M168 12 C167.21 18.74, 168.63 25.44, 168 36 M168 12 C167.37 19.4, 167.31 27.11, 168 36 M168 36 C166.18 44.36, 163.49 48.65, 156 48 M168 36 C166.85 42.65, 163.65 47.82, 156 48 M156 48 C98.59 45.46, 40.42 47.59, 12 48 M156 48 C123.27 48.33, 89.56 47.84, 12 48 M12 48 C3.74 46.45, -0.25 45.31, 0 36 M12 48 C3.43 48.5, 1.45 44.89, 0 36 M0 36 C0.75 30.7, -1.44 23.62, 0 12 M0 36 C-0.23 29.74, -0.87 22.71, 0 12 M0 12 C-0.43 5.22, 4.54 -0.54, 12 0 M0 12 C1.95 3.81, 2.57 -0.94, 12 0" stroke="#5c940d" stroke-width="1" fill="none"></path></g><g transform="translate(654.3671875 222.1015625) rotate(0 78.5 10)"><text x="78.5" y="14" font-family="Virgil, HanziPen SC, Kai, Segoe UI Emoji" font-size="16px" fill="#5c940d" text-anchor="middle" style="white-space: pre;" direction="ltr">Remote MCP Server</text></g><g stroke-linecap="round"><g transform="translate(52.296875 312.44921875) rotate(0 29.162937143328577 0.33460873833888627)"><path d="M0.72 0.51 C10.33 0.36, 48.88 -0.41, 58.69 -0.24 M-0.36 -0.27 C9.02 -0.33, 47.93 0.93, 57.89 0.94" stroke="#000000" stroke-width="1" fill="none"></path></g><g transform="translate(52.296875 312.44921875) rotate(0 29.162937143328577 0.33460873833888627)"><path d="M31.12 10.91 C39.81 8.53, 53.48 3, 57.19 1.42 M29.53 10.31 C37.25 7.18, 43.02 5.92, 58.13 0.3" stroke="#000000" stroke-width="1" fill="none"></path></g><g transform="translate(52.296875 312.44921875) rotate(0 29.162937143328577 0.33460873833888627)"><path d="M31.49 -9.05 C40.14 -3.69, 53.66 -1.48, 57.19 1.42 M29.89 -9.66 C37.38 -7.9, 43.06 -4.28, 58.13 0.3" stroke="#000000" stroke-width="1" fill="none"></path></g></g><mask></mask><g stroke-linecap="round"><g transform="translate(347.73046875 293.4765625) rotate(0 34.888279445054934 -18.930913408845697)"><path d="M0.35 -0.29 C4.9 -4.76, 15.97 -20.22, 27.7 -26.43 C39.43 -32.64, 63.61 -35.63, 70.71 -37.57 M-0.93 -1.5 C3.42 -6.32, 14.86 -22.32, 26.64 -28.1 C38.41 -33.87, 62.48 -34.66, 69.73 -36.16" stroke="#000000" stroke-width="1" fill="none"></path></g><g transform="translate(347.73046875 293.4765625) rotate(0 34.888279445054934 -18.930913408845697)"><path d="M49.5 -26.35 C57.95 -30.07, 63.3 -34.12, 69.21 -35.31 M50.76 -25.61 C56.16 -29.26, 59.69 -30.9, 69.2 -37.03" stroke="#000000" stroke-width="1" fill="none"></path></g><g transform="translate(347.73046875 293.4765625) rotate(0 34.888279445054934 -18.930913408845697)"><path d="M47.57 -41.42 C56.7 -40.16, 62.7 -39.22, 69.21 -35.31 M48.83 -40.68 C54.77 -40.31, 58.82 -37.93, 69.2 -37.03" stroke="#000000" stroke-width="1" fill="none"></path></g></g><mask></mask><g stroke-linecap="round"><g transform="translate(374.100001804945 341.87622590884564) rotate(0 216.77237945217166 27.85947215598037)"><path d="M0.49 0.25 C15.55 8.68, 16.93 41.3, 89.23 50.58 C161.52 59.86, 377.13 54.98, 434.26 55.92 M-0.71 -0.66 C14.38 7.87, 16.37 42.43, 88.83 51.5 C161.3 60.57, 376.97 53.35, 434.1 53.77" stroke="#000000" stroke-width="1" fill="none"></path></g><g transform="translate(374.100001804945 341.87622590884564) rotate(0 216.77237945217166 27.85947215598037)"><path d="M406.46 66.14 C409.86 64.01, 418.2 58, 435.25 55.47 M405.74 65.07 C415.63 59.85, 426.22 56.59, 433.83 53.04" stroke="#000000" stroke-width="1" fill="none"></path></g><g transform="translate(374.100001804945 341.87622590884564) rotate(0 216.77237945217166 27.85947215598037)"><path d="M406.21 45.62 C409.66 47.71, 418.06 45.92, 435.25 55.47 M405.49 44.55 C415.64 46.56, 426.32 50.53, 433.83 53.04" stroke="#000000" stroke-width="1" fill="none"></path></g></g><mask></mask><g transform="translate(382.15625 229.7421875) rotate(0 20.5 10)"><text x="20.5" y="14" font-family="Virgil, HanziPen SC, Kai, Segoe UI Emoji" font-size="16px" fill="#000000" text-anchor="middle" style="white-space: pre;" direction="ltr">stdio</text></g><g stroke-linecap="round"><g transform="translate(475.234375 205.4609375) rotate(0 -0.1308868511486594 -15.256912723928679)"><path d="M-0.72 -0.44 C-0.67 -5.48, -0.5 -25.31, -0.19 -30.08 M1.11 -1.71 C1.01 -6.59, -1.32 -23.77, -1.37 -28.64" stroke="#000000" stroke-width="1" fill="none"></path></g><g transform="translate(475.234375 205.4609375) rotate(0 -0.1308868511486594 -15.256912723928679)"><path d="M4.25 -15.56 C2.96 -17.47, 2.69 -22.82, -1.64 -27.53 M5.41 -15.53 C2.35 -18.45, 1.13 -22.95, -1.06 -28.04" stroke="#000000" stroke-width="1" fill="none"></path></g><g transform="translate(475.234375 205.4609375) rotate(0 -0.1308868511486594 -15.256912723928679)"><path d="M-5.94 -14.78 C-4.61 -16.83, -2.24 -22.38, -1.64 -27.53 M-4.79 -14.76 C-5.17 -17.79, -3.7 -22.5, -1.06 -28.04" stroke="#000000" stroke-width="1" fill="none"></path></g></g><mask></mask><g transform="translate(483.37890625 179.4453125) rotate(0 20.5 10)"><text x="20.5" y="14" font-family="Virgil, HanziPen SC, Kai, Segoe UI Emoji" font-size="16px" fill="#000000" text-anchor="middle" style="white-space: pre;" direction="ltr">stdio</text></g><g transform="translate(590.703125 370.953125) rotate(0 14 10)"><text x="14" y="14" font-family="Virgil, HanziPen SC, Kai, Segoe UI Emoji" font-size="16px" fill="#000000" text-anchor="middle" style="white-space: pre;" direction="ltr">sse</text></g><g transform="translate(559.3359375 404.57421875) rotate(0 44 10)"><text x="44" y="14" font-family="Virgil, HanziPen SC, Kai, Segoe UI Emoji" font-size="16px" fill="#000000" text-anchor="middle" style="white-space: pre;" direction="ltr">streamable</text></g><g stroke-linecap="round"><g transform="translate(869.672425233063 436.75) rotate(0 0.33185831445575786 -0.7304066159398417)"><path d="M-1.17 -0.88 C-1.1 -1.43, -0.79 -2.32, -0.59 -2.73 M0.41 1.27 C0.97 0.84, 2 -0.81, 1.81 -1.45" stroke="#000000" stroke-width="1" fill="none"></path></g><g transform="translate(869.672425233063 436.75) rotate(0 0.33185831445575786 -0.7304066159398417)"><path d="M1.96 -0.42 C1.94 -0.6, 1.84 -0.84, 1.74 -1.43 M2 -0.41 C1.98 -0.62, 1.91 -0.91, 1.76 -1.44" stroke="#000000" stroke-width="1" fill="none"></path></g><g transform="translate(869.672425233063 436.75) rotate(0 0.33185831445575786 -0.7304066159398417)"><path d="M1.2 -0.52 C1.35 -0.67, 1.41 -0.9, 1.74 -1.43 M1.24 -0.52 C1.42 -0.7, 1.54 -0.95, 1.76 -1.44" stroke="#000000" stroke-width="1" fill="none"></path></g></g><mask></mask><g transform="translate(880.5546875 439.56640625) rotate(0 20.5 10)"><text x="20.5" y="14" font-family="Virgil, HanziPen SC, Kai, Segoe UI Emoji" font-size="16px" fill="#000000" text-anchor="middle" style="white-space: pre;" direction="ltr">stdio</text></g><g stroke-linecap="round"><g transform="translate(849.131901447804 321.20703125) rotate(0 -11.127797025872042 -34.03046658162452)"><path d="M-0.12 -1.18 C-1.36 -6.41, -4.56 -19.91, -8.18 -30.89 C-11.8 -41.87, -19.38 -60.77, -21.81 -67.07 M-1.64 0.82 C-2.45 -4.27, -2.53 -17.86, -5.95 -29.48 C-9.37 -41.09, -19.37 -62.47, -22.14 -68.88" stroke="#000000" stroke-width="1" fill="none"></path></g><g transform="translate(849.131901447804 321.20703125) rotate(0 -11.127797025872042 -34.03046658162452)"><path d="M-10.04 -55.86 C-11.93 -56.46, -13.21 -61.57, -23.19 -68.42 M-8.76 -53.69 C-11.35 -59.04, -16.78 -61.61, -21.78 -68.68" stroke="#000000" stroke-width="1" fill="none"></path></g><g transform="translate(849.131901447804 321.20703125) rotate(0 -11.127797025872042 -34.03046658162452)"><path d="M-22.69 -50.22 C-21.55 -52.17, -19.79 -58.63, -23.19 -68.42 M-21.41 -48.06 C-20.55 -54.95, -22.52 -59.07, -21.78 -68.68" stroke="#000000" stroke-width="1" fill="none"></path></g></g><mask></mask><g transform="translate(763.94921875 265.39453125) rotate(0 61 10)"><text x="61" y="14" font-family="Virgil, HanziPen SC, Kai, Segoe UI Emoji" font-size="16px" fill="#000000" text-anchor="middle" style="white-space: pre;" direction="ltr">sse/streamable</text></g><g stroke-linecap="round"><g transform="translate(524.12109375 269.5637857746613) rotate(0 56.956916144555464 -8.114701546828996)"><path d="M0.9 -0.37 C19.69 -2.67, 93.06 -11.84, 111.81 -13.98 M-0.08 -1.6 C19.14 -4.26, 95.15 -13.64, 113.99 -15.86" stroke="#000000" stroke-width="1" fill="none"></path></g><g transform="translate(524.12109375 269.5637857746613) rotate(0 56.956916144555464 -8.114701546828996)"><path d="M86.64 -3.97 C94.1 -4.54, 101.4 -10.14, 115.45 -16.58 M87.44 -2.58 C97.69 -7.68, 105.57 -12.7, 114.68 -16.09" stroke="#000000" stroke-width="1" fill="none"></path></g><g transform="translate(524.12109375 269.5637857746613) rotate(0 56.956916144555464 -8.114701546828996)"><path d="M84.16 -24.34 C92.16 -20.31, 100.02 -21.28, 115.45 -16.58 M84.96 -22.95 C95.92 -20.92, 104.67 -18.79, 114.68 -16.09" stroke="#000000" stroke-width="1" fill="none"></path></g></g><mask></mask><g transform="translate(550.01171875 272.375) rotate(0 61 10)"><text x="61" y="14" font-family="Virgil, HanziPen SC, Kai, Segoe UI Emoji" font-size="16px" fill="#000000" text-anchor="middle" style="white-space: pre;" direction="ltr">sse/streamable</text></g><g stroke-linecap="round"><g transform="translate(531.48046875 219.5078125) rotate(0 146.10992979268542 -53.41199106350541)"><path d="M0.36 -0.38 C48.68 -18.29, 242.12 -88.89, 290.87 -106.44 M-0.92 -1.63 C47.71 -18.9, 244.21 -88.25, 293.14 -105.39" stroke="#1864ab" stroke-width="1" fill="none"></path></g><g transform="translate(531.48046875 219.5078125) rotate(0 146.10992979268542 -53.41199106350541)"><path d="M22.67 -21.11 C13.31 -10.49, 5.94 -3.15, 0.92 -1.72 M23.85 -19.72 C18.36 -16.32, 13.47 -11.22, 0.76 -0.03" stroke="#1864ab" stroke-width="1" fill="none"></path></g><g transform="translate(531.48046875 219.5078125) rotate(0 146.10992979268542 -53.41199106350541)"><path d="M29.72 -1.83 C17.55 1.56, 7.53 1.67, 0.92 -1.72 M30.9 -0.45 C24.01 -1.09, 17.63 -0.06, 0.76 -0.03" stroke="#1864ab" stroke-width="1" fill="none"></path></g><g transform="translate(531.48046875 219.5078125) rotate(0 146.10992979268542 -53.41199106350541)"><path d="M269.31 -87.75 C276.95 -91.68, 286.89 -98.73, 293.71 -106.73 M270.5 -86.37 C274.89 -91.12, 279.72 -94.11, 293.54 -105.04" stroke="#1864ab" stroke-width="1" fill="none"></path></g><g transform="translate(531.48046875 219.5078125) rotate(0 146.10992979268542 -53.41199106350541)"><path d="M262.5 -107.11 C272.86 -103.79, 285.36 -103.58, 293.71 -106.73 M263.69 -105.72 C269.43 -106.41, 275.7 -105.32, 293.54 -105.04" stroke="#1864ab" stroke-width="1" fill="none"></path></g></g><mask></mask><g stroke-linecap="round"><g transform="translate(922.6947455911165 358.2542417010221) rotate(0 23.15563707701972 -96.13332456191648)"><path d="M0.72 0.56 C10.31 -15.68, 58.64 -66.31, 56.81 -98.54 C54.98 -130.78, 1.17 -177.31, -10.26 -192.83 M-0.36 -0.19 C9.12 -16.17, 57.51 -65.3, 55.81 -97.24 C54.12 -129.18, 0.72 -175.72, -10.55 -191.83" stroke="#1864ab" stroke-width="1" fill="none"></path></g><g transform="translate(922.6947455911165 358.2542417010221) rotate(0 23.15563707701972 -96.13332456191648)"><path d="M9.42 -28.57 C5.63 -19.92, 3.51 -15.48, 1.7 -1.32 M9.36 -28.58 C6.24 -19.01, 4.62 -10.9, 0.65 0.22" stroke="#1864ab" stroke-width="1" fill="none"></path></g><g transform="translate(922.6947455911165 358.2542417010221) rotate(0 23.15563707701972 -96.13332456191648)"><path d="M26.23 -16.8 C18.53 -10.87, 12.38 -9.24, 1.7 -1.32 M26.17 -16.81 C17.84 -10.81, 11.03 -6.32, 0.65 0.22" stroke="#1864ab" stroke-width="1" fill="none"></path></g><g transform="translate(922.6947455911165 358.2542417010221) rotate(0 23.15563707701972 -96.13332456191648)"><path d="M16.74 -177.64 C8.89 -179.25, 2.32 -185.17, -9.57 -193.71 M16.68 -177.65 C7.75 -181.38, 0.4 -186.64, -10.62 -192.17" stroke="#1864ab" stroke-width="1" fill="none"></path></g><g transform="translate(922.6947455911165 358.2542417010221) rotate(0 23.15563707701972 -96.13332456191648)"><path d="M1.36 -164.06 C-2.69 -169.01, -5.58 -178.18, -9.57 -193.71 M1.3 -164.06 C-2.9 -172.06, -5.51 -181.51, -10.62 -192.17" stroke="#1864ab" stroke-width="1" fill="none"></path></g></g><mask></mask><g transform="translate(566.92578125 127.265625) rotate(338.22330576843905 112 10)"><text x="112" y="14" font-family="Virgil, HanziPen SC, Kai, Segoe UI Emoji" font-size="16px" fill="#364fc7" text-anchor="middle" style="white-space: pre;" direction="ltr">MCP Server/Tool Metadata</text></g><g transform="translate(948.66796875 218.15234374999994) rotate(17.116166882365263 112 10)"><text x="112" y="14" font-family="Virgil, HanziPen SC, Kai, Segoe UI Emoji" font-size="16px" fill="#1864ab" text-anchor="middle" style="white-space: pre;" direction="ltr">MCP Server/Tool Metadata</text></g></svg>